<ttFont>
    <TTGlyph name=".notAccess" xMin="11" yMin="0" xMax="542" yMax="533">
      <contour>
        <pt x="274" y="450" on="1"/>
        <pt x="174" y="205" on="1"/>
        <pt x="375" y="205" on="1"/>
      </contour>
      <contour>
        <pt x="464" y="0" on="1"/>
        <pt x="406" y="142" on="1"/>
        <pt x="145" y="142" on="1"/>
        <pt x="87" y="0" on="1"/>
        <pt x="11" y="0" on="1"/>
        <pt x="234" y="533" on="1"/>
        <pt x="316" y="533" on="1"/>
        <pt x="542" y="0" on="1"/>
      </contour>
    </TTGlyph>
    <TTGlyph name=".notdef" xMin="100" yMin="0" xMax="1300" yMax="1800">
      <contour>
        <pt x="150" y="50" on="1"/>
        <pt x="1250" y="50" on="1"/>
        <pt x="1250" y="1750" on="1"/>
        <pt x="150" y="1750" on="1"/>
      </contour>
      <contour>
        <pt x="100" y="1800" on="1"/>
        <pt x="1300" y="1800" on="1"/>
        <pt x="1300" y="0" on="1"/>
        <pt x="100" y="0" on="1"/>
      </contour>
    </TTGlyph>
    <TTGlyph name="A" xMin="-50" yMin="0" xMax="1133" yMax="1317">
      <contour>
        <pt x="371" y="429" on="1"/>
        <pt x="244" y="141" on="1"/>
        <pt x="231" y="110" on="0"/>
        <pt x="289" y="83" on="0"/>
        <pt x="364" y="73" on="1"/>
        <pt x="355" y="0" on="1"/>
        <pt x="-50" y="0" on="1"/>
        <pt x="-40" y="73" on="1"/>
        <pt x="24" y="85" on="0"/>
        <pt x="95" y="111" on="0"/>
        <pt x="108" y="141" on="1"/>
        <pt x="576" y="1205" on="1"/>
        <pt x="601" y="1225" on="0"/>
        <pt x="658" y="1260" on="0"/>
        <pt x="718" y="1288" on="0"/>
        <pt x="776" y="1309" on="0"/>
        <pt x="801" y="1317" on="1"/>
        <pt x="1028" y="141" on="1"/>
        <pt x="1031" y="127" on="0"/>
        <pt x="1042" y="105" on="0"/>
        <pt x="1065" y="89" on="0"/>
        <pt x="1103" y="77" on="0"/>
        <pt x="1133" y="73" on="1"/>
        <pt x="1124" y="0" on="1"/>
        <pt x="663" y="0" on="1"/>
        <pt x="673" y="73" on="1"/>
        <pt x="745" y="78" on="0"/>
        <pt x="802" y="108" on="0"/>
        <pt x="796" y="141" on="1"/>
        <pt x="742" y="429" on="1"/>
      </contour>
      <contour>
        <pt x="719" y="550" on="1"/>
        <pt x="629" y="1022" on="1"/>
        <pt x="424" y="550" on="1"/>
      </contour>
    </TTGlyph>
    <TTGlyph name="AE" xMin="-39" yMin="0" xMax="1552" yMax="1260">
      <contour>
        <pt x="814" y="1117" on="1"/>
        <pt x="815" y="1128" on="0"/>
        <pt x="804" y="1138" on="0"/>
        <pt x="784" y="1135" on="0"/>
        <pt x="762" y="1118" on="0"/>
        <pt x="753" y="1100" on="1"/>
        <pt x="566" y="735" on="1"/>
        <pt x="762" y="735" on="1"/>
      </contour>
      <contour>
        <pt x="1487" y="304" on="1"/>
        <pt x="1477" y="261" on="0"/>
        <pt x="1454" y="166" on="0"/>
        <pt x="1432" y="81" on="0"/>
        <pt x="1414" y="15" on="0"/>
        <pt x="1408" y="0" on="1"/>
        <pt x="537" y="0" on="1"/>
        <pt x="547" y="73" on="1"/>
        <pt x="610" y="87" on="0"/>
        <pt x="678" y="120" on="0"/>
        <pt x="680" y="134" on="1"/>
        <pt x="747" y="625" on="1"/>
        <pt x="512" y="625" on="1"/>
        <pt x="264" y="141" on="1"/>
        <pt x="248" y="112" on="0"/>
        <pt x="289" y="82" on="0"/>
        <pt x="355" y="73" on="1"/>
        <pt x="345" y="0" on="1"/>
        <pt x="-39" y="0" on="1"/>
        <pt x="-29" y="73" on="1"/>
        <pt x="28" y="82" on="0"/>
        <pt x="98" y="112" on="0"/>
        <pt x="114" y="141" on="1"/>
        <pt x="604" y="1103" on="1"/>
        <pt x="613" y="1120" on="0"/>
        <pt x="607" y="1143" on="0"/>
        <pt x="577" y="1162" on="0"/>
        <pt x="519" y="1178" on="0"/>
        <pt x="475" y="1187" on="1"/>
        <pt x="484" y="1260" on="1"/>
        <pt x="1523" y="1260" on="1"/>
        <pt x="1552" y="1228" on="1"/>
        <pt x="1547" y="1202" on="0"/>
        <pt x="1530" y="1124" on="0"/>
        <pt x="1509" y="1042" on="0"/>
        <pt x="1487" y="969" on="0"/>
        <pt x="1478" y="950" on="1"/>
        <pt x="1408" y="950" on="1"/>
        <pt x="1416" y="1043" on="0"/>
        <pt x="1394" y="1139" on="0"/>
        <pt x="1358" y="1139" on="1"/>
        <pt x="1049" y="1139" on="1"/>
        <pt x="993" y="735" on="1"/>
        <pt x="1360" y="735" on="1"/>
        <pt x="1387" y="700" on="1"/>
        <pt x="1377" y="686" on="0"/>
        <pt x="1350" y="648" on="0"/>
        <pt x="1322" y="611" on="0"/>
        <pt x="1294" y="579" on="0"/>
        <pt x="1284" y="570" on="1"/>
        <pt x="1261" y="599" on="0"/>
        <pt x="1189" y="625" on="0"/>
        <pt x="1141" y="625" on="1"/>
        <pt x="979" y="625" on="1"/>
        <pt x="918" y="184" on="1"/>
        <pt x="916" y="169" on="0"/>
        <pt x="926" y="146" on="0"/>
        <pt x="965" y="129" on="0"/>
        <pt x="1038" y="120" on="0"/>
        <pt x="1099" y="120" on="1"/>
        <pt x="1186" y="120" on="1"/>
        <pt x="1229" y="120" on="0"/>
        <pt x="1293" y="142" on="0"/>
        <pt x="1346" y="191" on="0"/>
        <pt x="1395" y="271" on="0"/>
        <pt x="1423" y="330" on="1"/>
      </contour>
    </TTGlyph>
    <TTGlyph name="AEacute" xMin="-39" yMin="0" xMax="1552" yMax="1731">
      <component glyphName="AE" x="0" y="0" flags="0x0"/>
      <component glyphName="acutecomb.LP" x="1379" y="320" flags="0x0"/>
    </TTGlyph>
    <TTGlyph name="Aacute" xMin="-50" yMin="0" xMax="1133" yMax="1731">
      <component glyphName="A" x="0" y="0" flags="0x0"/>
      <component glyphName="acutecomb.LP" x="1065" y="320" flags="0x0"/>
    </TTGlyph>
    <TTGlyph name="Abreve" xMin="-50" yMin="0" xMax="1133" yMax="1728">
      <component glyphName="A" x="0" y="0" flags="0x0"/>
      <component glyphName="uni0306" x="1092" y="320" flags="0x0"/>
    </TTGlyph>
    <TTGlyph name="Acircumflex" xMin="-50" yMin="0" xMax="1133" yMax="1707">
      <component glyphName="A" x="0" y="0" flags="0x0"/>
      <component glyphName="uni0302.LP" x="1072" y="320" flags="0x0"/>
    </TTGlyph>
    <TTGlyph name="Adieresis" xMin="-50" yMin="0" xMax="1133" yMax="1652">
      <component glyphName="A" x="0" y="0" flags="0x0"/>
      <component glyphName="uni0308.LP" x="1082" y="320" flags="0x0"/>
    </TTGlyph>
    <TTGlyph name="Agrave" xMin="-50" yMin="0" xMax="1133" yMax="1731">
      <component glyphName="A" x="0" y="0" flags="0x0"/>
      <component glyphName="gravecomb.LP" x="987" y="320" flags="0x0"/>
    </TTGlyph>
    <TTGlyph name="Amacron" xMin="-50" yMin="0" xMax="1155" yMax="1600">
      <component glyphName="A" x="0" y="0" flags="0x0"/>
      <component glyphName="uni0304.LP" x="1077" y="320" flags="0x0"/>
    </TTGlyph>
    <TTGlyph name="Aring" xMin="-50" yMin="0" xMax="1133" yMax="1773">
      <component glyphName="A" x="0" y="0" flags="0x0"/>
      <component glyphName="uni030A" x="1066" y="320" flags="0x0"/>
    </TTGlyph>
    <TTGlyph name="Aringacute" xMin="-50" yMin="0" xMax="1133" yMax="2196">
      <component glyphName="A" x="0" y="0" flags="0x0"/>
      <component glyphName="uni030A" x="1066" y="320" flags="0x0"/>
      <component glyphName="acutecomb.LP" x="1123" y="785" flags="0x0"/>
    </TTGlyph>
    <TTGlyph name="Atilde" xMin="-50" yMin="0" xMax="1133" yMax="1661">
      <component glyphName="A" x="0" y="0" flags="0x0"/>
      <component glyphName="tildecomb.LP" x="1067" y="320" flags="0x0"/>
    </TTGlyph>
    <TTGlyph name="B" xMin="-8" yMin="-31" xMax="1024" yMax="1290">
      <contour>
        <pt x="1024" y="410" on="1"/>
        <pt x="1024" y="312" on="0"/>
        <pt x="941" y="150" on="0"/>
        <pt x="796" y="34" on="0"/>
        <pt x="602" y="-31" on="0"/>
        <pt x="491" y="-31" on="1"/>
        <pt x="471" y="-31" on="0"/>
        <pt x="412" y="-29" on="0"/>
        <pt x="343" y="-24" on="0"/>
        <pt x="267" y="-19" on="0"/>
        <pt x="231" y="-16" on="1"/>
        <pt x="146" y="-9" on="0"/>
        <pt x="51" y="0" on="1"/>
        <pt x="-8" y="0" on="1"/>
        <pt x="-2" y="73" on="1"/>
        <pt x="62" y="87" on="0"/>
        <pt x="130" y="120" on="0"/>
        <pt x="132" y="134" on="1"/>
        <pt x="276" y="1168" on="1"/>
        <pt x="235" y="1163" on="0"/>
        <pt x="166" y="1150" on="0"/>
        <pt x="134" y="1143" on="1"/>
        <pt x="134" y="1227" on="1"/>
        <pt x="227" y="1253" on="0"/>
        <pt x="468" y="1290" on="0"/>
        <pt x="608" y="1290" on="1"/>
        <pt x="813" y="1290" on="0"/>
        <pt x="1018" y="1157" on="0"/>
        <pt x="1018" y="1040" on="1"/>
        <pt x="1018" y="935" on="0"/>
        <pt x="889" y="768" on="0"/>
        <pt x="767" y="723" on="1"/>
        <pt x="824" y="715" on="0"/>
        <pt x="918" y="660" on="0"/>
        <pt x="986" y="576" on="0"/>
        <pt x="1024" y="470" on="0"/>
      </contour>
      <contour>
        <pt x="548" y="634" on="1"/>
        <pt x="505" y="634" on="0"/>
        <pt x="456" y="626" on="0"/>
        <pt x="432" y="621" on="1"/>
        <pt x="364" y="134" on="1"/>
        <pt x="361" y="124" on="0"/>
        <pt x="379" y="112" on="1"/>
        <pt x="412" y="95" on="0"/>
        <pt x="491" y="83" on="0"/>
        <pt x="532" y="83" on="1"/>
        <pt x="592" y="83" on="0"/>
        <pt x="683" y="129" on="0"/>
        <pt x="746" y="208" on="0"/>
        <pt x="778" y="314" on="0"/>
        <pt x="778" y="375" on="1"/>
        <pt x="778" y="425" on="0"/>
        <pt x="755" y="518" on="0"/>
        <pt x="701" y="590" on="0"/>
        <pt x="613" y="634" on="0"/>
      </contour>
      <contour>
        <pt x="566" y="1184" on="1"/>
        <pt x="537" y="1184" on="1"/>
        <pt x="524" y="1184" on="0"/>
        <pt x="510" y="1183" on="1"/>
        <pt x="448" y="740" on="1"/>
        <pt x="481" y="740" on="1"/>
        <pt x="534" y="740" on="0"/>
        <pt x="638" y="767" on="0"/>
        <pt x="721" y="825" on="0"/>
        <pt x="772" y="919" on="0"/>
        <pt x="772" y="987" on="1"/>
        <pt x="772" y="1042" on="0"/>
        <pt x="733" y="1118" on="0"/>
        <pt x="673" y="1164" on="0"/>
        <pt x="600" y="1184" on="0"/>
      </contour>
    </TTGlyph>
    <TTGlyph name="C" xMin="61" yMin="-27" xMax="1078" yMax="1290">
      <contour>
        <pt x="1076" y="1190" on="1"/>
        <pt x="1078" y="1187" on="0"/>
        <pt x="1066" y="1157" on="0"/>
        <pt x="1044" y="1114" on="0"/>
        <pt x="1015" y="1064" on="0"/>
        <pt x="985" y="1019" on="0"/>
        <pt x="958" y="982" on="0"/>
        <pt x="949" y="975" on="1"/>
        <pt x="889" y="990" on="1"/>
        <pt x="875" y="1022" on="0"/>
        <pt x="836" y="1081" on="0"/>
        <pt x="783" y="1127" on="0"/>
        <pt x="716" y="1154" on="0"/>
        <pt x="675" y="1154" on="1"/>
        <pt x="635" y="1154" on="0"/>
        <pt x="561" y="1131" on="0"/>
        <pt x="521" y="1100" on="1"/>
        <pt x="458" y="1051" on="0"/>
        <pt x="374" y="903" on="0"/>
        <pt x="323" y="740" on="0"/>
        <pt x="302" y="579" on="0"/>
        <pt x="302" y="516" on="1"/>
        <pt x="302" y="407" on="0"/>
        <pt x="358" y="260" on="0"/>
        <pt x="443" y="172" on="0"/>
        <pt x="543" y="134" on="0"/>
        <pt x="588" y="134" on="1"/>
        <pt x="613" y="134" on="0"/>
        <pt x="678" y="145" on="0"/>
        <pt x="759" y="178" on="0"/>
        <pt x="859" y="234" on="0"/>
        <pt x="921" y="279" on="1"/>
        <pt x="926" y="277" on="0"/>
        <pt x="937" y="257" on="0"/>
        <pt x="947" y="234" on="0"/>
        <pt x="955" y="214" on="0"/>
        <pt x="957" y="211" on="1"/>
        <pt x="889" y="143" on="0"/>
        <pt x="758" y="52" on="0"/>
        <pt x="637" y="-3" on="0"/>
        <pt x="527" y="-27" on="0"/>
        <pt x="480" y="-27" on="1"/>
        <pt x="393" y="-27" on="0"/>
        <pt x="241" y="38" on="0"/>
        <pt x="127" y="162" on="0"/>
        <pt x="61" y="343" on="0"/>
        <pt x="61" y="459" on="1"/>
        <pt x="61" y="553" on="0"/>
        <pt x="101" y="748" on="0"/>
        <pt x="182" y="933" on="0"/>
        <pt x="306" y="1100" on="0"/>
        <pt x="390" y="1167" on="1"/>
        <pt x="426" y="1195" on="0"/>
        <pt x="515" y="1241" on="0"/>
        <pt x="610" y="1273" on="0"/>
        <pt x="709" y="1290" on="0"/>
        <pt x="756" y="1290" on="1"/>
        <pt x="805" y="1290" on="0"/>
        <pt x="901" y="1274" on="0"/>
        <pt x="986" y="1247" on="0"/>
        <pt x="1054" y="1211" on="0"/>
      </contour>
    </TTGlyph>
    <TTGlyph name="Cacute" xMin="61" yMin="-27" xMax="1078" yMax="1731">
      <component glyphName="C" x="0" y="0" flags="0x0"/>
      <component glyphName="acutecomb.LP" x="1054" y="320" flags="0x0"/>
    </TTGlyph>
    <TTGlyph name="Ccaron" xMin="61" yMin="-27" xMax="1078" yMax="1746">
      <component glyphName="C" x="0" y="0" flags="0x0"/>
      <component glyphName="uni030C.LP" x="1066" y="320" flags="0x0"/>
    </TTGlyph>
    <TTGlyph name="Ccedilla" xMin="61" yMin="-412" xMax="1078" yMax="1290">
      <contour>
        <pt x="637" y="-221" on="1"/>
        <pt x="637" y="-274" on="0"/>
        <pt x="569" y="-362" on="0"/>
        <pt x="458" y="-412" on="0"/>
        <pt x="315" y="-411" on="0"/>
        <pt x="240" y="-375" on="1"/>
        <pt x="238" y="-306" on="1"/>
        <pt x="280" y="-323" on="0"/>
        <pt x="350" y="-328" on="0"/>
        <pt x="399" y="-312" on="0"/>
        <pt x="427" y="-281" on="0"/>
        <pt x="427" y="-261" on="1"/>
        <pt x="427" y="-240" on="0"/>
        <pt x="386" y="-213" on="0"/>
        <pt x="357" y="-215" on="1"/>
        <pt x="372" y="-183" on="0"/>
        <pt x="396" y="-127" on="0"/>
        <pt x="415" y="-75" on="0"/>
        <pt x="422" y="-49" on="1"/>
        <pt x="426" y="-37" on="0"/>
        <pt x="429" y="-24" on="1"/>
        <pt x="370" y="-17" on="0"/>
        <pt x="317" y="5" on="1"/>
        <pt x="241" y="38" on="0"/>
        <pt x="127" y="162" on="0"/>
        <pt x="61" y="343" on="0"/>
        <pt x="61" y="459" on="1"/>
        <pt x="61" y="553" on="0"/>
        <pt x="101" y="748" on="0"/>
        <pt x="182" y="933" on="0"/>
        <pt x="306" y="1100" on="0"/>
        <pt x="390" y="1167" on="1"/>
        <pt x="426" y="1195" on="0"/>
        <pt x="515" y="1241" on="0"/>
        <pt x="610" y="1273" on="0"/>
        <pt x="709" y="1290" on="0"/>
        <pt x="756" y="1290" on="1"/>
        <pt x="805" y="1290" on="0"/>
        <pt x="901" y="1274" on="0"/>
        <pt x="986" y="1247" on="0"/>
        <pt x="1054" y="1211" on="0"/>
        <pt x="1076" y="1190" on="1"/>
        <pt x="1078" y="1187" on="0"/>
        <pt x="1066" y="1157" on="0"/>
        <pt x="1044" y="1114" on="0"/>
        <pt x="1015" y="1064" on="0"/>
        <pt x="985" y="1019" on="0"/>
        <pt x="958" y="982" on="0"/>
        <pt x="949" y="975" on="1"/>
        <pt x="889" y="990" on="1"/>
        <pt x="875" y="1022" on="0"/>
        <pt x="836" y="1081" on="0"/>
        <pt x="783" y="1127" on="0"/>
        <pt x="716" y="1154" on="0"/>
        <pt x="675" y="1154" on="1"/>
        <pt x="635" y="1154" on="0"/>
        <pt x="561" y="1131" on="0"/>
        <pt x="521" y="1100" on="1"/>
        <pt x="458" y="1051" on="0"/>
        <pt x="374" y="903" on="0"/>
        <pt x="323" y="740" on="0"/>
        <pt x="302" y="579" on="0"/>
        <pt x="302" y="516" on="1"/>
        <pt x="302" y="407" on="0"/>
        <pt x="358" y="260" on="0"/>
        <pt x="443" y="172" on="0"/>
        <pt x="543" y="134" on="0"/>
        <pt x="588" y="134" on="1"/>
        <pt x="613" y="134" on="0"/>
        <pt x="678" y="145" on="0"/>
        <pt x="759" y="178" on="0"/>
        <pt x="859" y="234" on="0"/>
        <pt x="921" y="279" on="1"/>
        <pt x="926" y="277" on="0"/>
        <pt x="937" y="257" on="0"/>
        <pt x="947" y="234" on="0"/>
        <pt x="955" y="214" on="0"/>
        <pt x="957" y="211" on="1"/>
        <pt x="889" y="143" on="0"/>
        <pt x="758" y="52" on="0"/>
        <pt x="637" y="-3" on="0"/>
        <pt x="582" y="-15" on="1"/>
        <pt x="555" y="-21" on="0"/>
        <pt x="529" y="-24" on="1"/>
        <pt x="527" y="-39" on="0"/>
        <pt x="523" y="-55" on="1"/>
        <pt x="517" y="-84" on="0"/>
        <pt x="512" y="-98" on="1"/>
        <pt x="575" y="-100" on="0"/>
        <pt x="637" y="-172" on="0"/>
      </contour>
    </TTGlyph>
    <TTGlyph name="Ccircumflex" xMin="61" yMin="-27" xMax="1078" yMax="1707">
      <component glyphName="C" x="0" y="0" flags="0x0"/>
      <component glyphName="uni0302.LP" x="1061" y="320" flags="0x0"/>
    </TTGlyph>
    <TTGlyph name="Cdotaccent" xMin="61" yMin="-27" xMax="1078" yMax="1652">
      <component glyphName="C" x="0" y="0" flags="0x0"/>
      <component glyphName="uni0307.LP" x="1057" y="320" flags="0x0"/>
    </TTGlyph>
    <TTGlyph name="D" xMin="-8" yMin="0" xMax="1182" yMax="1290">
      <contour>
        <pt x="572" y="1184" on="1"/>
        <pt x="557" y="1184" on="0"/>
        <pt x="527" y="1181" on="0"/>
        <pt x="512" y="1180" on="1"/>
        <pt x="374" y="162" on="1"/>
        <pt x="370" y="133" on="0"/>
        <pt x="424" y="107" on="0"/>
        <pt x="500" y="107" on="1"/>
        <pt x="569" y="107" on="0"/>
        <pt x="686" y="160" on="0"/>
        <pt x="782" y="251" on="0"/>
        <pt x="855" y="372" on="0"/>
        <pt x="905" y="510" on="0"/>
        <pt x="930" y="657" on="0"/>
        <pt x="930" y="727" on="1"/>
        <pt x="930" y="834" on="0"/>
        <pt x="890" y="1003" on="0"/>
        <pt x="803" y="1121" on="0"/>
        <pt x="667" y="1184" on="0"/>
      </contour>
      <contour>
        <pt x="1182" y="753" on="1"/>
        <pt x="1182" y="665" on="0"/>
        <pt x="1140" y="485" on="0"/>
        <pt x="1060" y="318" on="0"/>
        <pt x="944" y="171" on="0"/>
        <pt x="795" y="63" on="0"/>
        <pt x="615" y="0" on="0"/>
        <pt x="511" y="0" on="1"/>
        <pt x="-8" y="0" on="1"/>
        <pt x="2" y="73" on="1"/>
        <pt x="65" y="87" on="0"/>
        <pt x="133" y="120" on="0"/>
        <pt x="135" y="134" on="1"/>
        <pt x="277" y="1159" on="1"/>
        <pt x="136" y="1139" on="1"/>
        <pt x="136" y="1232" on="1"/>
        <pt x="193" y="1246" on="0"/>
        <pt x="319" y="1267" on="0"/>
        <pt x="445" y="1282" on="0"/>
        <pt x="565" y="1290" on="0"/>
        <pt x="616" y="1290" on="1"/>
        <pt x="761" y="1290" on="0"/>
        <pt x="975" y="1215" on="0"/>
        <pt x="1114" y="1075" on="0"/>
        <pt x="1182" y="877" on="0"/>
      </contour>
    </TTGlyph>
    <TTGlyph name="Dcaron" xMin="-8" yMin="0" xMax="1182" yMax="1746">
      <component glyphName="D" x="0" y="0" flags="0x0"/>
      <component glyphName="uni030C.LP" x="1065" y="320" flags="0x0"/>
    </TTGlyph>
    <TTGlyph name="Dcroat" xMin="-8" yMin="0" xMax="1182" yMax="1290">
      <contour>
        <pt x="572" y="1184" on="1"/>
        <pt x="557" y="1184" on="0"/>
        <pt x="527" y="1181" on="0"/>
        <pt x="512" y="1180" on="1"/>
        <pt x="449" y="720" on="1"/>
        <pt x="687" y="720" on="1"/>
        <pt x="713" y="688" on="1"/>
        <pt x="664" y="600" on="1"/>
        <pt x="433" y="600" on="1"/>
        <pt x="374" y="162" on="1"/>
        <pt x="370" y="133" on="0"/>
        <pt x="424" y="107" on="0"/>
        <pt x="500" y="107" on="1"/>
        <pt x="569" y="107" on="0"/>
        <pt x="686" y="160" on="0"/>
        <pt x="782" y="251" on="0"/>
        <pt x="855" y="372" on="0"/>
        <pt x="905" y="510" on="0"/>
        <pt x="930" y="657" on="0"/>
        <pt x="930" y="727" on="1"/>
        <pt x="930" y="834" on="0"/>
        <pt x="890" y="1003" on="0"/>
        <pt x="803" y="1121" on="0"/>
        <pt x="667" y="1184" on="0"/>
      </contour>
      <contour>
        <pt x="1182" y="753" on="1"/>
        <pt x="1182" y="665" on="0"/>
        <pt x="1140" y="485" on="0"/>
        <pt x="1060" y="318" on="0"/>
        <pt x="944" y="171" on="0"/>
        <pt x="795" y="63" on="0"/>
        <pt x="615" y="0" on="0"/>
        <pt x="511" y="0" on="1"/>
        <pt x="-8" y="0" on="1"/>
        <pt x="2" y="73" on="1"/>
        <pt x="65" y="87" on="0"/>
        <pt x="133" y="120" on="0"/>
        <pt x="135" y="134" on="1"/>
        <pt x="199" y="600" on="1"/>
        <pt x="84" y="600" on="1"/>
        <pt x="58" y="630" on="1"/>
        <pt x="61" y="638" on="0"/>
        <pt x="74" y="662" on="0"/>
        <pt x="89" y="688" on="0"/>
        <pt x="102" y="712" on="0"/>
        <pt x="107" y="720" on="1"/>
        <pt x="216" y="720" on="1"/>
        <pt x="277" y="1159" on="1"/>
        <pt x="136" y="1139" on="1"/>
        <pt x="136" y="1232" on="1"/>
        <pt x="193" y="1246" on="0"/>
        <pt x="319" y="1267" on="0"/>
        <pt x="445" y="1282" on="0"/>
        <pt x="565" y="1290" on="0"/>
        <pt x="616" y="1290" on="1"/>
        <pt x="761" y="1290" on="0"/>
        <pt x="975" y="1215" on="0"/>
        <pt x="1114" y="1075" on="0"/>
        <pt x="1182" y="877" on="0"/>
      </contour>
    </TTGlyph>
    <TTGlyph name="Delta" xMin="15" yMin="0" xMax="1041" yMax="1317">
      <contour>
        <pt x="781" y="196" on="1"/>
        <pt x="749" y="345" on="0"/>
        <pt x="717" y="492" on="1"/>
        <pt x="703" y="555" on="0"/>
        <pt x="674" y="691" on="0"/>
        <pt x="644" y="826" on="0"/>
        <pt x="617" y="956" on="0"/>
        <pt x="605" y="1013" on="1"/>
        <pt x="575" y="950" on="0"/>
        <pt x="510" y="812" on="0"/>
        <pt x="446" y="674" on="0"/>
        <pt x="382" y="539" on="0"/>
        <pt x="354" y="478" on="1"/>
        <pt x="287" y="335" on="0"/>
        <pt x="222" y="196" on="1"/>
        <pt x="213" y="177" on="0"/>
        <pt x="207" y="156" on="0"/>
        <pt x="223" y="145" on="0"/>
        <pt x="269" y="143" on="0"/>
        <pt x="312" y="143" on="1"/>
        <pt x="673" y="143" on="1"/>
        <pt x="717" y="143" on="0"/>
        <pt x="765" y="145" on="0"/>
        <pt x="785" y="156" on="0"/>
        <pt x="784" y="177" on="0"/>
      </contour>
      <contour>
        <pt x="1008" y="0" on="1"/>
        <pt x="28" y="0" on="1"/>
        <pt x="15" y="59" on="1"/>
        <pt x="124" y="288" on="0"/>
        <pt x="225" y="503" on="1"/>
        <pt x="268" y="594" on="0"/>
        <pt x="360" y="788" on="0"/>
        <pt x="447" y="974" on="0"/>
        <pt x="526" y="1142" on="0"/>
        <pt x="556" y="1207" on="1"/>
        <pt x="606" y="1241" on="0"/>
        <pt x="714" y="1294" on="0"/>
        <pt x="770" y="1317" on="1"/>
        <pt x="785" y="1242" on="0"/>
        <pt x="824" y="1055" on="0"/>
        <pt x="868" y="850" on="0"/>
        <pt x="914" y="638" on="0"/>
        <pt x="936" y="539" on="1"/>
        <pt x="987" y="306" on="0"/>
        <pt x="1041" y="59" on="1"/>
      </contour>
    </TTGlyph>
    <TTGlyph name="E" xMin="-8" yMin="0" xMax="1014" yMax="1260">
      <contour>
        <pt x="947" y="304" on="1"/>
        <pt x="937" y="261" on="0"/>
        <pt x="914" y="166" on="0"/>
        <pt x="892" y="81" on="0"/>
        <pt x="873" y="15" on="0"/>
        <pt x="867" y="0" on="1"/>
        <pt x="-8" y="0" on="1"/>
        <pt x="2" y="73" on="1"/>
        <pt x="67" y="87" on="0"/>
        <pt x="136" y="120" on="0"/>
        <pt x="138" y="134" on="1"/>
        <pt x="274" y="1125" on="1"/>
        <pt x="276" y="1137" on="0"/>
        <pt x="220" y="1173" on="0"/>
        <pt x="155" y="1187" on="1"/>
        <pt x="165" y="1260" on="1"/>
        <pt x="982" y="1260" on="1"/>
        <pt x="1014" y="1228" on="1"/>
        <pt x="1009" y="1202" on="0"/>
        <pt x="991" y="1124" on="0"/>
        <pt x="969" y="1042" on="0"/>
        <pt x="947" y="969" on="0"/>
        <pt x="939" y="950" on="1"/>
        <pt x="869" y="950" on="1"/>
        <pt x="877" y="1043" on="0"/>
        <pt x="853" y="1140" on="0"/>
        <pt x="818" y="1140" on="1"/>
        <pt x="507" y="1140" on="1"/>
        <pt x="451" y="735" on="1"/>
        <pt x="820" y="735" on="1"/>
        <pt x="847" y="700" on="1"/>
        <pt x="838" y="686" on="0"/>
        <pt x="811" y="648" on="0"/>
        <pt x="783" y="611" on="0"/>
        <pt x="755" y="578" on="0"/>
        <pt x="744" y="570" on="1"/>
        <pt x="731" y="585" on="0"/>
        <pt x="700" y="606" on="0"/>
        <pt x="657" y="619" on="0"/>
        <pt x="595" y="625" on="0"/>
        <pt x="552" y="625" on="1"/>
        <pt x="436" y="625" on="1"/>
        <pt x="376" y="184" on="1"/>
        <pt x="374" y="169" on="0"/>
        <pt x="384" y="146" on="0"/>
        <pt x="423" y="129" on="0"/>
        <pt x="496" y="120" on="0"/>
        <pt x="557" y="120" on="1"/>
        <pt x="649" y="120" on="1"/>
        <pt x="691" y="120" on="0"/>
        <pt x="754" y="142" on="0"/>
        <pt x="806" y="191" on="0"/>
        <pt x="854" y="271" on="0"/>
        <pt x="882" y="330" on="1"/>
      </contour>
    </TTGlyph>
    <TTGlyph name="Eacute" xMin="-8" yMin="0" xMax="1014" yMax="1731">
      <component glyphName="E" x="0" y="0" flags="0x0"/>
      <component glyphName="acutecomb.LP" x="972" y="320" flags="0x0"/>
    </TTGlyph>
    <TTGlyph name="Ebreve" xMin="-8" yMin="0" xMax="1014" yMax="1728">
      <component glyphName="E" x="0" y="0" flags="0x0"/>
      <component glyphName="uni0306" x="999" y="320" flags="0x0"/>
    </TTGlyph>
    <TTGlyph name="Ecaron" xMin="-8" yMin="0" xMax="1014" yMax="1746">
      <component glyphName="E" x="0" y="0" flags="0x0"/>
      <component glyphName="uni030C.LP" x="984" y="320" flags="0x0"/>
    </TTGlyph>
    <TTGlyph name="Ecircumflex" xMin="-8" yMin="0" xMax="1014" yMax="1707">
      <component glyphName="E" x="0" y="0" flags="0x0"/>
      <component glyphName="uni0302.LP" x="979" y="320" flags="0x0"/>
    </TTGlyph>
    <TTGlyph name="Edieresis" xMin="-8" yMin="0" xMax="1014" yMax="1652">
      <component glyphName="E" x="0" y="0" flags="0x0"/>
      <component glyphName="uni0308.LP" x="989" y="320" flags="0x0"/>
    </TTGlyph>
    <TTGlyph name="Edotaccent" xMin="-8" yMin="0" xMax="1014" yMax="1652">
      <component glyphName="E" x="0" y="0" flags="0x0"/>
      <component glyphName="uni0307.LP" x="975" y="320" flags="0x0"/>
    </TTGlyph>
    <TTGlyph name="Egrave" xMin="-8" yMin="0" xMax="1014" yMax="1731">
      <component glyphName="E" x="0" y="0" flags="0x0"/>
      <component glyphName="gravecomb.LP" x="894" y="320" flags="0x0"/>
    </TTGlyph>
    <TTGlyph name="Emacron" xMin="-8" yMin="0" xMax="1062" yMax="1600">
      <component glyphName="E" x="0" y="0" flags="0x0"/>
      <component glyphName="uni0304.LP" x="984" y="320" flags="0x0"/>
    </TTGlyph>
    <TTGlyph name="Eng" xMin="0" yMin="-452" xMax="1196" yMax="1290">
      <contour>
        <pt x="1196" y="1042" on="1"/>
        <pt x="1196" y="996" on="0"/>
        <pt x="1190" y="950" on="1"/>
        <pt x="1091" y="239" on="1"/>
        <pt x="1077" y="137" on="0"/>
        <pt x="1006" y="-42" on="0"/>
        <pt x="910" y="-192" on="0"/>
        <pt x="794" y="-311" on="0"/>
        <pt x="735" y="-352" on="1"/>
        <pt x="710" y="-370" on="0"/>
        <pt x="643" y="-405" on="0"/>
        <pt x="567" y="-434" on="0"/>
        <pt x="487" y="-452" on="0"/>
        <pt x="449" y="-452" on="1"/>
        <pt x="405" y="-452" on="0"/>
        <pt x="313" y="-424" on="0"/>
        <pt x="237" y="-384" on="0"/>
        <pt x="189" y="-341" on="0"/>
        <pt x="189" y="-326" on="1"/>
        <pt x="189" y="-320" on="0"/>
        <pt x="210" y="-290" on="0"/>
        <pt x="244" y="-252" on="0"/>
        <pt x="286" y="-211" on="0"/>
        <pt x="327" y="-177" on="0"/>
        <pt x="362" y="-155" on="0"/>
        <pt x="373" y="-155" on="1"/>
        <pt x="386" y="-155" on="0"/>
        <pt x="429" y="-195" on="0"/>
        <pt x="485" y="-243" on="0"/>
        <pt x="555" y="-283" on="0"/>
        <pt x="596" y="-283" on="1"/>
        <pt x="639" y="-283" on="0"/>
        <pt x="720" y="-229" on="0"/>
        <pt x="788" y="-119" on="0"/>
        <pt x="840" y="47" on="0"/>
        <pt x="856" y="160" on="1"/>
        <pt x="948" y="842" on="1"/>
        <pt x="950" y="858" on="0"/>
        <pt x="954" y="897" on="0"/>
        <pt x="958" y="934" on="0"/>
        <pt x="961" y="966" on="0"/>
        <pt x="961" y="975" on="1"/>
        <pt x="961" y="1041" on="0"/>
        <pt x="904" y="1099" on="0"/>
        <pt x="852" y="1099" on="1"/>
        <pt x="824" y="1099" on="0"/>
        <pt x="747" y="1069" on="0"/>
        <pt x="662" y="1015" on="0"/>
        <pt x="576" y="937" on="0"/>
        <pt x="504" y="842" on="0"/>
        <pt x="453" y="730" on="0"/>
        <pt x="444" y="669" on="1"/>
        <pt x="371" y="134" on="1"/>
        <pt x="369" y="122" on="0"/>
        <pt x="431" y="87" on="0"/>
        <pt x="494" y="73" on="1"/>
        <pt x="485" y="0" on="1"/>
        <pt x="0" y="0" on="1"/>
        <pt x="9" y="73" on="1"/>
        <pt x="72" y="87" on="0"/>
        <pt x="141" y="120" on="0"/>
        <pt x="143" y="134" on="1"/>
        <pt x="260" y="978" on="1"/>
        <pt x="269" y="1036" on="0"/>
        <pt x="268" y="1099" on="0"/>
        <pt x="238" y="1120" on="0"/>
        <pt x="173" y="1108" on="0"/>
        <pt x="116" y="1093" on="1"/>
        <pt x="101" y="1178" on="1"/>
        <pt x="153" y="1197" on="0"/>
        <pt x="264" y="1237" on="0"/>
        <pt x="363" y="1270" on="0"/>
        <pt x="441" y="1290" on="0"/>
        <pt x="461" y="1290" on="1"/>
        <pt x="486" y="1290" on="0"/>
        <pt x="509" y="1241" on="0"/>
        <pt x="509" y="1184" on="1"/>
        <pt x="509" y="1150" on="0"/>
        <pt x="495" y="1044" on="0"/>
        <pt x="485" y="989" on="1"/>
        <pt x="546" y="1066" on="0"/>
        <pt x="679" y="1180" on="0"/>
        <pt x="810" y="1254" on="0"/>
        <pt x="931" y="1290" on="0"/>
        <pt x="979" y="1290" on="1"/>
        <pt x="1013" y="1290" on="0"/>
        <pt x="1089" y="1267" on="0"/>
        <pt x="1153" y="1210" on="0"/>
        <pt x="1196" y="1114" on="0"/>
      </contour>
    </TTGlyph>
    <TTGlyph name="Eng.BaselineHook" xMin="0" yMin="-30" xMax="1240" yMax="1290">
      <contour>
        <pt x="0" y="0" on="1"/>
        <pt x="9" y="73" on="1"/>
        <pt x="72" y="87" on="0"/>
        <pt x="141" y="120" on="0"/>
        <pt x="143" y="134" on="1"/>
        <pt x="260" y="978" on="1"/>
        <pt x="266" y="1019" on="0"/>
        <pt x="270" y="1073" on="0"/>
        <pt x="262" y="1104" on="0"/>
        <pt x="241" y="1116" on="0"/>
        <pt x="223" y="1116" on="1"/>
        <pt x="207" y="1116" on="0"/>
        <pt x="151" y="1103" on="0"/>
        <pt x="116" y="1093" on="1"/>
        <pt x="101" y="1178" on="1"/>
        <pt x="153" y="1197" on="0"/>
        <pt x="264" y="1237" on="0"/>
        <pt x="363" y="1270" on="0"/>
        <pt x="441" y="1290" on="0"/>
        <pt x="461" y="1290" on="1"/>
        <pt x="486" y="1290" on="0"/>
        <pt x="509" y="1244" on="0"/>
        <pt x="509" y="1192" on="1"/>
        <pt x="509" y="1178" on="0"/>
        <pt x="504" y="1127" on="0"/>
        <pt x="497" y="1066" on="0"/>
        <pt x="487" y="1002" on="0"/>
        <pt x="482" y="977" on="1"/>
        <pt x="543" y="1053" on="0"/>
        <pt x="689" y="1169" on="0"/>
        <pt x="834" y="1249" on="0"/>
        <pt x="966" y="1290" on="0"/>
        <pt x="1014" y="1290" on="1"/>
        <pt x="1050" y="1290" on="0"/>
        <pt x="1129" y="1267" on="0"/>
        <pt x="1196" y="1210" on="0"/>
        <pt x="1240" y="1114" on="0"/>
        <pt x="1240" y="1042" on="1"/>
        <pt x="1240" y="1022" on="0"/>
        <pt x="1238" y="971" on="0"/>
        <pt x="1234" y="945" on="1"/>
        <pt x="1166" y="455" on="1"/>
        <pt x="1152" y="353" on="0"/>
        <pt x="1055" y="157" on="0"/>
        <pt x="968" y="79" on="1"/>
        <pt x="945" y="59" on="0"/>
        <pt x="892" y="20" on="0"/>
        <pt x="830" y="-11" on="0"/>
        <pt x="760" y="-30" on="0"/>
        <pt x="720" y="-30" on="1"/>
        <pt x="680" y="-30" on="0"/>
        <pt x="609" y="5" on="0"/>
        <pt x="557" y="57" on="0"/>
        <pt x="526" y="117" on="0"/>
        <pt x="526" y="143" on="1"/>
        <pt x="526" y="149" on="0"/>
        <pt x="550" y="174" on="0"/>
        <pt x="587" y="203" on="0"/>
        <pt x="633" y="234" on="0"/>
        <pt x="677" y="259" on="0"/>
        <pt x="715" y="275" on="0"/>
        <pt x="726" y="275" on="1"/>
        <pt x="734" y="272" on="0"/>
        <pt x="748" y="224" on="0"/>
        <pt x="767" y="170" on="0"/>
        <pt x="798" y="126" on="0"/>
        <pt x="822" y="126" on="1"/>
        <pt x="844" y="126" on="0"/>
        <pt x="877" y="163" on="0"/>
        <pt x="902" y="234" on="0"/>
        <pt x="921" y="337" on="0"/>
        <pt x="929" y="403" on="1"/>
        <pt x="989" y="837" on="1"/>
        <pt x="994" y="875" on="0"/>
        <pt x="1003" y="946" on="0"/>
        <pt x="1003" y="975" on="1"/>
        <pt x="1003" y="1041" on="0"/>
        <pt x="943" y="1099" on="0"/>
        <pt x="887" y="1099" on="1"/>
        <pt x="860" y="1099" on="0"/>
        <pt x="778" y="1069" on="0"/>
        <pt x="685" y="1014" on="0"/>
        <pt x="589" y="936" on="0"/>
        <pt x="509" y="841" on="0"/>
        <pt x="452" y="730" on="0"/>
        <pt x="444" y="669" on="1"/>
        <pt x="371" y="134" on="1"/>
        <pt x="369" y="125" on="0"/>
        <pt x="384" y="105" on="0"/>
        <pt x="407" y="88" on="0"/>
        <pt x="435" y="75" on="0"/>
        <pt x="447" y="73" on="1"/>
        <pt x="438" y="0" on="1"/>
      </contour>
    </TTGlyph>
    <TTGlyph name="Eng.Kom" xMin="44" yMin="-30" xMax="1193" yMax="1290">
      <contour>
        <pt x="44" y="510" on="1"/>
        <pt x="53" y="583" on="1"/>
        <pt x="122" y="597" on="0"/>
        <pt x="204" y="630" on="0"/>
        <pt x="206" y="644" on="1"/>
        <pt x="253" y="975" on="1"/>
        <pt x="260" y="1032" on="0"/>
        <pt x="264" y="1096" on="0"/>
        <pt x="237" y="1120" on="0"/>
        <pt x="170" y="1110" on="0"/>
        <pt x="108" y="1092" on="1"/>
        <pt x="94" y="1178" on="1"/>
        <pt x="144" y="1196" on="0"/>
        <pt x="257" y="1236" on="0"/>
        <pt x="358" y="1269" on="0"/>
        <pt x="438" y="1290" on="0"/>
        <pt x="455" y="1290" on="1"/>
        <pt x="469" y="1290" on="0"/>
        <pt x="487" y="1274" on="0"/>
        <pt x="497" y="1245" on="0"/>
        <pt x="501" y="1207" on="0"/>
        <pt x="501" y="1185" on="1"/>
        <pt x="501" y="1157" on="0"/>
        <pt x="497" y="1115" on="0"/>
        <pt x="491" y="1075" on="0"/>
        <pt x="484" y="1033" on="0"/>
        <pt x="481" y="1006" on="1"/>
        <pt x="613" y="1157" on="0"/>
        <pt x="863" y="1290" on="0"/>
        <pt x="970" y="1290" on="1"/>
        <pt x="1012" y="1290" on="0"/>
        <pt x="1092" y="1262" on="0"/>
        <pt x="1155" y="1202" on="0"/>
        <pt x="1193" y="1108" on="0"/>
        <pt x="1193" y="1043" on="1"/>
        <pt x="1193" y="1027" on="0"/>
        <pt x="1192" y="990" on="0"/>
        <pt x="1190" y="974" on="1"/>
        <pt x="1137" y="587" on="1"/>
        <pt x="1125" y="497" on="0"/>
        <pt x="1066" y="344" on="0"/>
        <pt x="987" y="218" on="0"/>
        <pt x="894" y="120" on="0"/>
        <pt x="846" y="85" on="1"/>
        <pt x="811" y="59" on="0"/>
        <pt x="738" y="17" on="0"/>
        <pt x="658" y="-13" on="0"/>
        <pt x="567" y="-30" on="0"/>
        <pt x="515" y="-30" on="1"/>
        <pt x="437" y="-30" on="0"/>
        <pt x="307" y="9" on="0"/>
        <pt x="213" y="63" on="0"/>
        <pt x="161" y="119" on="0"/>
        <pt x="161" y="135" on="1"/>
        <pt x="161" y="144" on="0"/>
        <pt x="185" y="180" on="0"/>
        <pt x="222" y="222" on="0"/>
        <pt x="267" y="266" on="0"/>
        <pt x="312" y="302" on="0"/>
        <pt x="350" y="325" on="0"/>
        <pt x="361" y="325" on="1"/>
        <pt x="367" y="325" on="0"/>
        <pt x="388" y="294" on="0"/>
        <pt x="420" y="248" on="0"/>
        <pt x="463" y="193" on="0"/>
        <pt x="518" y="147" on="0"/>
        <pt x="586" y="116" on="0"/>
        <pt x="627" y="116" on="1"/>
        <pt x="737" y="116" on="0"/>
        <pt x="871" y="310" on="0"/>
        <pt x="900" y="514" on="1"/>
        <pt x="942" y="820" on="1"/>
        <pt x="943" y="832" on="0"/>
        <pt x="949" y="879" on="0"/>
        <pt x="954" y="928" on="0"/>
        <pt x="958" y="970" on="0"/>
        <pt x="958" y="979" on="1"/>
        <pt x="958" y="1031" on="0"/>
        <pt x="903" y="1099" on="0"/>
        <pt x="843" y="1099" on="1"/>
        <pt x="812" y="1099" on="0"/>
        <pt x="733" y="1068" on="0"/>
        <pt x="648" y="1012" on="0"/>
        <pt x="566" y="935" on="0"/>
        <pt x="497" y="845" on="0"/>
        <pt x="449" y="744" on="0"/>
        <pt x="441" y="692" on="1"/>
        <pt x="434" y="644" on="1"/>
        <pt x="434" y="643" on="1"/>
        <pt x="434" y="631" on="0"/>
        <pt x="506" y="597" on="0"/>
        <pt x="576" y="583" on="1"/>
        <pt x="567" y="510" on="1"/>
      </contour>
    </TTGlyph>
    <TTGlyph name="Eng.UCStyle" xMin="-2" yMin="-396" xMax="1350" yMax="1260">
      <contour>
        <pt x="1341" y="1187" on="1"/>
        <pt x="1272" y="1177" on="0"/>
        <pt x="1208" y="1140" on="0"/>
        <pt x="1206" y="1125" on="1"/>
        <pt x="1081" y="216" on="1"/>
        <pt x="1065" y="100" on="0"/>
        <pt x="1022" y="-67" on="0"/>
        <pt x="966" y="-188" on="0"/>
        <pt x="897" y="-272" on="0"/>
        <pt x="856" y="-304" on="1"/>
        <pt x="802" y="-347" on="0"/>
        <pt x="678" y="-396" on="0"/>
        <pt x="617" y="-396" on="1"/>
        <pt x="580" y="-396" on="0"/>
        <pt x="509" y="-375" on="0"/>
        <pt x="452" y="-345" on="0"/>
        <pt x="418" y="-312" on="0"/>
        <pt x="418" y="-301" on="1"/>
        <pt x="418" y="-294" on="0"/>
        <pt x="439" y="-266" on="0"/>
        <pt x="472" y="-231" on="0"/>
        <pt x="512" y="-193" on="0"/>
        <pt x="550" y="-162" on="0"/>
        <pt x="583" y="-142" on="0"/>
        <pt x="591" y="-141" on="1"/>
        <pt x="604" y="-146" on="0"/>
        <pt x="637" y="-174" on="0"/>
        <pt x="678" y="-204" on="0"/>
        <pt x="727" y="-228" on="0"/>
        <pt x="754" y="-228" on="1"/>
        <pt x="774" y="-228" on="0"/>
        <pt x="815" y="-211" on="0"/>
        <pt x="856" y="-160" on="0"/>
        <pt x="893" y="-67" on="0"/>
        <pt x="910" y="9" on="1"/>
        <pt x="882" y="22" on="0"/>
        <pt x="847" y="58" on="0"/>
        <pt x="836" y="80" on="1"/>
        <pt x="389" y="922" on="1"/>
        <pt x="281" y="134" on="1"/>
        <pt x="280" y="128" on="0"/>
        <pt x="290" y="111" on="0"/>
        <pt x="318" y="94" on="0"/>
        <pt x="364" y="78" on="0"/>
        <pt x="399" y="73" on="1"/>
        <pt x="389" y="0" on="1"/>
        <pt x="-2" y="0" on="1"/>
        <pt x="8" y="73" on="1"/>
        <pt x="77" y="82" on="0"/>
        <pt x="140" y="120" on="0"/>
        <pt x="142" y="134" on="1"/>
        <pt x="277" y="1115" on="1"/>
        <pt x="226" y="1175" on="0"/>
        <pt x="158" y="1187" on="1"/>
        <pt x="168" y="1260" on="1"/>
        <pt x="423" y="1260" on="1"/>
        <pt x="439" y="1260" on="0"/>
        <pt x="458" y="1256" on="0"/>
        <pt x="475" y="1240" on="0"/>
        <pt x="492" y="1209" on="0"/>
        <pt x="506" y="1182" on="1"/>
        <pt x="959" y="327" on="1"/>
        <pt x="1068" y="1125" on="1"/>
        <pt x="1069" y="1131" on="0"/>
        <pt x="1059" y="1148" on="0"/>
        <pt x="1033" y="1165" on="0"/>
        <pt x="986" y="1181" on="0"/>
        <pt x="950" y="1187" on="1"/>
        <pt x="959" y="1260" on="1"/>
        <pt x="1350" y="1260" on="1"/>
      </contour>
    </TTGlyph>
    <TTGlyph name="Eth" xMin="-8" yMin="0" xMax="1182" yMax="1290">
      <contour>
        <pt x="572" y="1184" on="1"/>
        <pt x="557" y="1184" on="0"/>
        <pt x="527" y="1181" on="0"/>
        <pt x="512" y="1180" on="1"/>
        <pt x="449" y="720" on="1"/>
        <pt x="687" y="720" on="1"/>
        <pt x="713" y="688" on="1"/>
        <pt x="664" y="600" on="1"/>
        <pt x="433" y="600" on="1"/>
        <pt x="374" y="162" on="1"/>
        <pt x="370" y="133" on="0"/>
        <pt x="424" y="107" on="0"/>
        <pt x="500" y="107" on="1"/>
        <pt x="569" y="107" on="0"/>
        <pt x="686" y="160" on="0"/>
        <pt x="782" y="251" on="0"/>
        <pt x="855" y="372" on="0"/>
        <pt x="905" y="510" on="0"/>
        <pt x="930" y="657" on="0"/>
        <pt x="930" y="727" on="1"/>
        <pt x="930" y="834" on="0"/>
        <pt x="890" y="1003" on="0"/>
        <pt x="803" y="1121" on="0"/>
        <pt x="667" y="1184" on="0"/>
      </contour>
      <contour>
        <pt x="1182" y="753" on="1"/>
        <pt x="1182" y="665" on="0"/>
        <pt x="1140" y="485" on="0"/>
        <pt x="1060" y="318" on="0"/>
        <pt x="944" y="171" on="0"/>
        <pt x="795" y="63" on="0"/>
        <pt x="615" y="0" on="0"/>
        <pt x="511" y="0" on="1"/>
        <pt x="-8" y="0" on="1"/>
        <pt x="2" y="73" on="1"/>
        <pt x="65" y="87" on="0"/>
        <pt x="133" y="120" on="0"/>
        <pt x="135" y="134" on="1"/>
        <pt x="199" y="600" on="1"/>
        <pt x="84" y="600" on="1"/>
        <pt x="58" y="630" on="1"/>
        <pt x="61" y="638" on="0"/>
        <pt x="74" y="662" on="0"/>
        <pt x="89" y="688" on="0"/>
        <pt x="102" y="712" on="0"/>
        <pt x="107" y="720" on="1"/>
        <pt x="216" y="720" on="1"/>
        <pt x="277" y="1159" on="1"/>
        <pt x="136" y="1139" on="1"/>
        <pt x="136" y="1232" on="1"/>
        <pt x="193" y="1246" on="0"/>
        <pt x="319" y="1267" on="0"/>
        <pt x="445" y="1282" on="0"/>
        <pt x="565" y="1290" on="0"/>
        <pt x="616" y="1290" on="1"/>
        <pt x="761" y="1290" on="0"/>
        <pt x="975" y="1215" on="0"/>
        <pt x="1114" y="1075" on="0"/>
        <pt x="1182" y="877" on="0"/>
      </contour>
    </TTGlyph>
    <TTGlyph name="Euro" xMin="-22" yMin="-30" xMax="969" yMax="1235">
      <contour>
        <pt x="591" y="436" on="1"/>
        <pt x="313" y="436" on="1"/>
        <pt x="313" y="344" on="0"/>
        <pt x="349" y="220" on="0"/>
        <pt x="406" y="145" on="0"/>
        <pt x="479" y="113" on="0"/>
        <pt x="516" y="113" on="1"/>
        <pt x="541" y="113" on="0"/>
        <pt x="594" y="123" on="0"/>
        <pt x="660" y="154" on="0"/>
        <pt x="741" y="210" on="0"/>
        <pt x="795" y="256" on="1"/>
        <pt x="806" y="242" on="0"/>
        <pt x="825" y="205" on="0"/>
        <pt x="833" y="189" on="1"/>
        <pt x="768" y="121" on="0"/>
        <pt x="659" y="35" on="0"/>
        <pt x="561" y="-13" on="0"/>
        <pt x="473" y="-30" on="0"/>
        <pt x="430" y="-30" on="1"/>
        <pt x="358" y="-30" on="0"/>
        <pt x="230" y="29" on="0"/>
        <pt x="135" y="146" on="0"/>
        <pt x="79" y="320" on="0"/>
        <pt x="79" y="436" on="1"/>
        <pt x="1" y="436" on="1"/>
        <pt x="-22" y="469" on="1"/>
        <pt x="-19" y="476" on="0"/>
        <pt x="-9" y="500" on="0"/>
        <pt x="2" y="525" on="0"/>
        <pt x="13" y="549" on="0"/>
        <pt x="17" y="557" on="1"/>
        <pt x="86" y="557" on="1"/>
        <pt x="87" y="564" on="0"/>
        <pt x="88" y="577" on="0"/>
        <pt x="90" y="584" on="1"/>
        <pt x="93" y="607" on="0"/>
        <pt x="100" y="650" on="0"/>
        <pt x="104" y="671" on="1"/>
        <pt x="61" y="671" on="1"/>
        <pt x="38" y="704" on="1"/>
        <pt x="41" y="711" on="0"/>
        <pt x="51" y="735" on="0"/>
        <pt x="62" y="760" on="0"/>
        <pt x="73" y="784" on="0"/>
        <pt x="77" y="792" on="1"/>
        <pt x="135" y="792" on="1"/>
        <pt x="171" y="904" on="0"/>
        <pt x="279" y="1071" on="0"/>
        <pt x="420" y="1181" on="0"/>
        <pt x="589" y="1235" on="0"/>
        <pt x="686" y="1235" on="1"/>
        <pt x="779" y="1235" on="0"/>
        <pt x="924" y="1177" on="0"/>
        <pt x="966" y="1135" on="1"/>
        <pt x="969" y="1132" on="0"/>
        <pt x="958" y="1105" on="0"/>
        <pt x="935" y="1066" on="0"/>
        <pt x="906" y="1020" on="0"/>
        <pt x="877" y="978" on="0"/>
        <pt x="850" y="945" on="0"/>
        <pt x="842" y="937" on="1"/>
        <pt x="784" y="951" on="1"/>
        <pt x="752" y="1025" on="0"/>
        <pt x="666" y="1103" on="0"/>
        <pt x="597" y="1103" on="1"/>
        <pt x="569" y="1103" on="0"/>
        <pt x="506" y="1079" on="0"/>
        <pt x="444" y="1012" on="0"/>
        <pt x="385" y="890" on="0"/>
        <pt x="361" y="792" on="1"/>
        <pt x="695" y="792" on="1"/>
        <pt x="720" y="762" on="1"/>
        <pt x="679" y="671" on="1"/>
        <pt x="336" y="671" on="1"/>
        <pt x="333" y="654" on="0"/>
        <pt x="327" y="617" on="0"/>
        <pt x="325" y="598" on="1"/>
        <pt x="323" y="587" on="0"/>
        <pt x="322" y="577" on="1"/>
        <pt x="320" y="557" on="1"/>
        <pt x="607" y="557" on="1"/>
        <pt x="633" y="527" on="1"/>
      </contour>
    </TTGlyph>
    <TTGlyph name="F" xMin="-8" yMin="0" xMax="1021" yMax="1260">
      <contour>
        <pt x="815" y="700" on="1"/>
        <pt x="804" y="683" on="0"/>
        <pt x="777" y="644" on="0"/>
        <pt x="749" y="608" on="0"/>
        <pt x="722" y="578" on="0"/>
        <pt x="711" y="570" on="1"/>
        <pt x="698" y="585" on="0"/>
        <pt x="667" y="606" on="0"/>
        <pt x="625" y="619" on="0"/>
        <pt x="569" y="625" on="0"/>
        <pt x="532" y="625" on="1"/>
        <pt x="436" y="625" on="1"/>
        <pt x="369" y="134" on="1"/>
        <pt x="368" y="128" on="0"/>
        <pt x="381" y="114" on="0"/>
        <pt x="415" y="99" on="0"/>
        <pt x="473" y="82" on="0"/>
        <pt x="517" y="73" on="1"/>
        <pt x="507" y="0" on="1"/>
        <pt x="-8" y="0" on="1"/>
        <pt x="2" y="73" on="1"/>
        <pt x="67" y="87" on="0"/>
        <pt x="136" y="120" on="0"/>
        <pt x="138" y="134" on="1"/>
        <pt x="274" y="1125" on="1"/>
        <pt x="276" y="1137" on="0"/>
        <pt x="220" y="1173" on="0"/>
        <pt x="155" y="1187" on="1"/>
        <pt x="165" y="1260" on="1"/>
        <pt x="991" y="1260" on="1"/>
        <pt x="1021" y="1228" on="1"/>
        <pt x="1017" y="1202" on="0"/>
        <pt x="999" y="1124" on="0"/>
        <pt x="978" y="1042" on="0"/>
        <pt x="956" y="969" on="0"/>
        <pt x="948" y="950" on="1"/>
        <pt x="877" y="950" on="1"/>
        <pt x="886" y="1043" on="0"/>
        <pt x="861" y="1140" on="0"/>
        <pt x="826" y="1140" on="1"/>
        <pt x="507" y="1140" on="1"/>
        <pt x="451" y="735" on="1"/>
        <pt x="786" y="735" on="1"/>
      </contour>
    </TTGlyph>
    <TTGlyph name="G" xMin="61" yMin="-31" xMax="1125" yMax="1290">
      <contour>
        <pt x="1119" y="547" on="1"/>
        <pt x="1065" y="531" on="0"/>
        <pt x="1017" y="488" on="0"/>
        <pt x="1014" y="465" on="1"/>
        <pt x="1010" y="438" on="0"/>
        <pt x="999" y="354" on="0"/>
        <pt x="989" y="265" on="0"/>
        <pt x="979" y="188" on="0"/>
        <pt x="977" y="169" on="1"/>
        <pt x="901" y="108" on="0"/>
        <pt x="771" y="31" on="0"/>
        <pt x="660" y="-14" on="0"/>
        <pt x="565" y="-31" on="0"/>
        <pt x="525" y="-31" on="1"/>
        <pt x="433" y="-31" on="0"/>
        <pt x="266" y="41" on="0"/>
        <pt x="137" y="175" on="0"/>
        <pt x="61" y="368" on="0"/>
        <pt x="61" y="488" on="1"/>
        <pt x="61" y="583" on="0"/>
        <pt x="104" y="768" on="0"/>
        <pt x="183" y="935" on="0"/>
        <pt x="293" y="1080" on="0"/>
        <pt x="359" y="1136" on="1"/>
        <pt x="401" y="1172" on="0"/>
        <pt x="496" y="1229" on="0"/>
        <pt x="604" y="1269" on="0"/>
        <pt x="729" y="1290" on="0"/>
        <pt x="801" y="1290" on="1"/>
        <pt x="836" y="1290" on="0"/>
        <pt x="924" y="1276" on="0"/>
        <pt x="1011" y="1250" on="0"/>
        <pt x="1089" y="1212" on="0"/>
        <pt x="1115" y="1188" on="1"/>
        <pt x="1119" y="1184" on="0"/>
        <pt x="1108" y="1154" on="0"/>
        <pt x="1086" y="1112" on="0"/>
        <pt x="1055" y="1063" on="0"/>
        <pt x="1024" y="1018" on="0"/>
        <pt x="995" y="983" on="0"/>
        <pt x="986" y="975" on="1"/>
        <pt x="928" y="988" on="1"/>
        <pt x="910" y="1025" on="0"/>
        <pt x="865" y="1089" on="0"/>
        <pt x="805" y="1137" on="0"/>
        <pt x="727" y="1164" on="0"/>
        <pt x="677" y="1164" on="1"/>
        <pt x="633" y="1164" on="0"/>
        <pt x="534" y="1116" on="0"/>
        <pt x="484" y="1068" on="1"/>
        <pt x="445" y="1031" on="0"/>
        <pt x="377" y="906" on="0"/>
        <pt x="328" y="758" on="0"/>
        <pt x="300" y="601" on="0"/>
        <pt x="300" y="531" on="1"/>
        <pt x="300" y="424" on="0"/>
        <pt x="355" y="271" on="0"/>
        <pt x="443" y="174" on="0"/>
        <pt x="550" y="128" on="0"/>
        <pt x="603" y="128" on="1"/>
        <pt x="637" y="128" on="0"/>
        <pt x="716" y="145" on="0"/>
        <pt x="751" y="171" on="1"/>
        <pt x="793" y="465" on="1"/>
        <pt x="794" y="475" on="0"/>
        <pt x="786" y="495" on="0"/>
        <pt x="744" y="515" on="0"/>
        <pt x="658" y="535" on="0"/>
        <pt x="583" y="547" on="1"/>
        <pt x="589" y="620" on="1"/>
        <pt x="1125" y="620" on="1"/>
      </contour>
    </TTGlyph>
    <TTGlyph name="Gbreve" xMin="61" yMin="-31" xMax="1125" yMax="1728">
      <component glyphName="G" x="0" y="0" flags="0x0"/>
      <component glyphName="uni0306" x="1117" y="320" flags="0x0"/>
    </TTGlyph>
    <TTGlyph name="Gcaron" xMin="61" yMin="-31" xMax="1125" yMax="1746">
      <component glyphName="G" x="0" y="0" flags="0x0"/>
      <component glyphName="uni030C.LP" x="1102" y="320" flags="0x0"/>
    </TTGlyph>
    <TTGlyph name="Gcircumflex" xMin="61" yMin="-31" xMax="1125" yMax="1707">
      <component glyphName="G" x="0" y="0" flags="0x0"/>
      <component glyphName="uni0302.LP" x="1097" y="320" flags="0x0"/>
    </TTGlyph>
    <TTGlyph name="Gdotaccent" xMin="61" yMin="-31" xMax="1125" yMax="1652">
      <component glyphName="G" x="0" y="0" flags="0x0"/>
      <component glyphName="uni0307.LP" x="1093" y="320" flags="0x0"/>
    </TTGlyph>
    <TTGlyph name="H" xMin="-8" yMin="0" xMax="1364" yMax="1260">
      <contour>
        <pt x="642" y="1187" on="1"/>
        <pt x="577" y="1173" on="0"/>
        <pt x="507" y="1139" on="0"/>
        <pt x="505" y="1125" on="1"/>
        <pt x="450" y="720" on="1"/>
        <pt x="930" y="720" on="1"/>
        <pt x="986" y="1125" on="1"/>
        <pt x="988" y="1137" on="0"/>
        <pt x="933" y="1173" on="0"/>
        <pt x="868" y="1187" on="1"/>
        <pt x="877" y="1260" on="1"/>
        <pt x="1364" y="1260" on="1"/>
        <pt x="1354" y="1187" on="1"/>
        <pt x="1289" y="1173" on="0"/>
        <pt x="1220" y="1139" on="0"/>
        <pt x="1218" y="1125" on="1"/>
        <pt x="1082" y="134" on="1"/>
        <pt x="1080" y="122" on="0"/>
        <pt x="1136" y="87" on="0"/>
        <pt x="1201" y="73" on="1"/>
        <pt x="1192" y="0" on="1"/>
        <pt x="705" y="0" on="1"/>
        <pt x="715" y="73" on="1"/>
        <pt x="780" y="87" on="0"/>
        <pt x="848" y="120" on="0"/>
        <pt x="850" y="134" on="1"/>
        <pt x="914" y="600" on="1"/>
        <pt x="433" y="600" on="1"/>
        <pt x="370" y="134" on="1"/>
        <pt x="368" y="122" on="0"/>
        <pt x="423" y="87" on="0"/>
        <pt x="489" y="73" on="1"/>
        <pt x="479" y="0" on="1"/>
        <pt x="-8" y="0" on="1"/>
        <pt x="2" y="73" on="1"/>
        <pt x="67" y="87" on="0"/>
        <pt x="136" y="120" on="0"/>
        <pt x="138" y="134" on="1"/>
        <pt x="274" y="1125" on="1"/>
        <pt x="276" y="1137" on="0"/>
        <pt x="220" y="1173" on="0"/>
        <pt x="155" y="1187" on="1"/>
        <pt x="165" y="1260" on="1"/>
        <pt x="652" y="1260" on="1"/>
      </contour>
    </TTGlyph>
    <TTGlyph name="Hcircumflex" xMin="-8" yMin="0" xMax="1364" yMax="1707">
      <component glyphName="H" x="0" y="0" flags="0x0"/>
      <component glyphName="uni0302.LP" x="1137" y="320" flags="0x0"/>
    </TTGlyph>
    <TTGlyph name="I" xMin="13" yMin="0" xMax="671" yMax="1260">
      <contour>
        <pt x="661" y="1187" on="1"/>
        <pt x="597" y="1173" on="0"/>
        <pt x="527" y="1139" on="0"/>
        <pt x="525" y="1125" on="1"/>
        <pt x="389" y="134" on="1"/>
        <pt x="387" y="122" on="0"/>
        <pt x="442" y="87" on="0"/>
        <pt x="508" y="73" on="1"/>
        <pt x="498" y="0" on="1"/>
        <pt x="13" y="0" on="1"/>
        <pt x="23" y="73" on="1"/>
        <pt x="86" y="87" on="0"/>
        <pt x="156" y="120" on="0"/>
        <pt x="158" y="134" on="1"/>
        <pt x="293" y="1125" on="1"/>
        <pt x="295" y="1137" on="0"/>
        <pt x="240" y="1173" on="0"/>
        <pt x="175" y="1187" on="1"/>
        <pt x="185" y="1260" on="1"/>
        <pt x="671" y="1260" on="1"/>
      </contour>
    </TTGlyph>
    <TTGlyph name="IJ" xMin="13" yMin="-396" xMax="1329" yMax="1260">
      <component glyphName="I" x="0" y="0" flags="0x0"/>
      <component glyphName="J" x="632" y="0" flags="0x0"/>
    </TTGlyph>
    <TTGlyph name="Iacute" xMin="13" yMin="0" xMax="788" yMax="1731">
      <component glyphName="I" x="0" y="0" flags="0x0"/>
      <component glyphName="acutecomb.LP" x="781" y="320" flags="0x0"/>
    </TTGlyph>
    <TTGlyph name="Ibreve" xMin="13" yMin="0" xMax="807" yMax="1728">
      <component glyphName="I" x="0" y="0" flags="0x0"/>
      <component glyphName="uni0306" x="808" y="320" flags="0x0"/>
    </TTGlyph>
    <TTGlyph name="Icircumflex" xMin="13" yMin="0" xMax="754" yMax="1707">
      <component glyphName="I" x="0" y="0" flags="0x0"/>
      <component glyphName="uni0302.LP" x="788" y="320" flags="0x0"/>
    </TTGlyph>
    <TTGlyph name="Idieresis" xMin="13" yMin="0" xMax="777" yMax="1652">
      <component glyphName="I" x="0" y="0" flags="0x0"/>
      <component glyphName="uni0308.LP" x="798" y="320" flags="0x0"/>
    </TTGlyph>
    <TTGlyph name="Idotaccent" xMin="13" yMin="0" xMax="671" yMax="1652">
      <component glyphName="I" x="0" y="0" flags="0x0"/>
      <component glyphName="uni0307.LP" x="784" y="320" flags="0x0"/>
    </TTGlyph>
    <TTGlyph name="Igrave" xMin="13" yMin="0" xMax="671" yMax="1731">
      <component glyphName="I" x="0" y="0" flags="0x0"/>
      <component glyphName="gravecomb.LP" x="703" y="320" flags="0x0"/>
    </TTGlyph>
    <TTGlyph name="Imacron" xMin="13" yMin="0" xMax="784" yMax="1633">
      <component glyphName="I" x="0" y="0" flags="0x0"/>
      <component glyphName="uni0304.Short" x="793" y="320" flags="0x0"/>
    </TTGlyph>
    <TTGlyph name="Itilde" xMin="13" yMin="0" xMax="833" yMax="1661">
      <component glyphName="I" x="0" y="0" flags="0x0"/>
      <component glyphName="tildecomb.LP" x="783" y="320" flags="0x0"/>
    </TTGlyph>
    <TTGlyph name="J" xMin="-339" yMin="-396" xMax="697" yMax="1260">
      <contour>
        <pt x="685" y="1187" on="1"/>
        <pt x="622" y="1173" on="0"/>
        <pt x="551" y="1139" on="0"/>
        <pt x="549" y="1125" on="1"/>
        <pt x="425" y="205" on="1"/>
        <pt x="410" y="93" on="0"/>
        <pt x="347" y="-65" on="0"/>
        <pt x="267" y="-178" on="0"/>
        <pt x="179" y="-257" on="0"/>
        <pt x="138" y="-289" on="1"/>
        <pt x="111" y="-310" on="0"/>
        <pt x="41" y="-349" on="0"/>
        <pt x="-35" y="-379" on="0"/>
        <pt x="-110" y="-396" on="0"/>
        <pt x="-140" y="-396" on="1"/>
        <pt x="-177" y="-396" on="0"/>
        <pt x="-248" y="-375" on="0"/>
        <pt x="-304" y="-345" on="0"/>
        <pt x="-339" y="-313" on="0"/>
        <pt x="-339" y="-301" on="1"/>
        <pt x="-339" y="-294" on="0"/>
        <pt x="-318" y="-265" on="0"/>
        <pt x="-285" y="-229" on="0"/>
        <pt x="-245" y="-192" on="0"/>
        <pt x="-206" y="-161" on="0"/>
        <pt x="-174" y="-141" on="0"/>
        <pt x="-166" y="-141" on="1"/>
        <pt x="-156" y="-141" on="0"/>
        <pt x="-126" y="-168" on="0"/>
        <pt x="-85" y="-201" on="0"/>
        <pt x="-34" y="-228" on="0"/>
        <pt x="-3" y="-228" on="1"/>
        <pt x="21" y="-228" on="0"/>
        <pt x="73" y="-203" on="0"/>
        <pt x="122" y="-127" on="0"/>
        <pt x="166" y="16" on="0"/>
        <pt x="182" y="133" on="1"/>
        <pt x="318" y="1125" on="1"/>
        <pt x="319" y="1131" on="0"/>
        <pt x="307" y="1145" on="0"/>
        <pt x="271" y="1161" on="0"/>
        <pt x="206" y="1178" on="0"/>
        <pt x="152" y="1187" on="1"/>
        <pt x="162" y="1260" on="1"/>
        <pt x="697" y="1260" on="1"/>
      </contour>
    </TTGlyph>
    <TTGlyph name="K" xMin="-8" yMin="-14" xMax="1242" yMax="1260">
      <contour>
        <pt x="642" y="1187" on="1"/>
        <pt x="577" y="1173" on="0"/>
        <pt x="507" y="1139" on="0"/>
        <pt x="505" y="1125" on="1"/>
        <pt x="442" y="660" on="1"/>
        <pt x="851" y="1098" on="1"/>
        <pt x="876" y="1125" on="0"/>
        <pt x="898" y="1157" on="0"/>
        <pt x="890" y="1175" on="0"/>
        <pt x="852" y="1184" on="0"/>
        <pt x="816" y="1187" on="1"/>
        <pt x="825" y="1260" on="1"/>
        <pt x="1242" y="1260" on="1"/>
        <pt x="1232" y="1187" on="1"/>
        <pt x="1201" y="1183" on="0"/>
        <pt x="1158" y="1175" on="0"/>
        <pt x="1125" y="1162" on="0"/>
        <pt x="1096" y="1141" on="0"/>
        <pt x="1080" y="1125" on="1"/>
        <pt x="618" y="676" on="1"/>
        <pt x="971" y="203" on="1"/>
        <pt x="984" y="186" on="0"/>
        <pt x="1025" y="171" on="0"/>
        <pt x="1076" y="171" on="0"/>
        <pt x="1132" y="185" on="0"/>
        <pt x="1160" y="197" on="1"/>
        <pt x="1187" y="126" on="1"/>
        <pt x="1156" y="100" on="0"/>
        <pt x="1068" y="50" on="0"/>
        <pt x="980" y="10" on="0"/>
        <pt x="902" y="-14" on="0"/>
        <pt x="880" y="-14" on="1"/>
        <pt x="851" y="-14" on="0"/>
        <pt x="812" y="6" on="0"/>
        <pt x="794" y="35" on="1"/>
        <pt x="437" y="625" on="1"/>
        <pt x="370" y="134" on="1"/>
        <pt x="368" y="122" on="0"/>
        <pt x="423" y="87" on="0"/>
        <pt x="489" y="73" on="1"/>
        <pt x="479" y="0" on="1"/>
        <pt x="-8" y="0" on="1"/>
        <pt x="2" y="73" on="1"/>
        <pt x="67" y="87" on="0"/>
        <pt x="136" y="120" on="0"/>
        <pt x="138" y="134" on="1"/>
        <pt x="274" y="1125" on="1"/>
        <pt x="276" y="1137" on="0"/>
        <pt x="220" y="1173" on="0"/>
        <pt x="155" y="1187" on="1"/>
        <pt x="165" y="1260" on="1"/>
        <pt x="652" y="1260" on="1"/>
      </contour>
    </TTGlyph>
    <TTGlyph name="L" xMin="-8" yMin="0" xMax="938" yMax="1260">
      <contour>
        <pt x="938" y="304" on="1"/>
        <pt x="929" y="261" on="0"/>
        <pt x="905" y="166" on="0"/>
        <pt x="883" y="81" on="0"/>
        <pt x="864" y="15" on="0"/>
        <pt x="858" y="0" on="1"/>
        <pt x="-8" y="0" on="1"/>
        <pt x="2" y="73" on="1"/>
        <pt x="67" y="87" on="0"/>
        <pt x="136" y="120" on="0"/>
        <pt x="138" y="134" on="1"/>
        <pt x="274" y="1125" on="1"/>
        <pt x="276" y="1137" on="0"/>
        <pt x="220" y="1173" on="0"/>
        <pt x="155" y="1187" on="1"/>
        <pt x="165" y="1260" on="1"/>
        <pt x="652" y="1260" on="1"/>
        <pt x="642" y="1187" on="1"/>
        <pt x="577" y="1173" on="0"/>
        <pt x="507" y="1139" on="0"/>
        <pt x="505" y="1125" on="1"/>
        <pt x="377" y="192" on="1"/>
        <pt x="375" y="174" on="0"/>
        <pt x="387" y="147" on="0"/>
        <pt x="424" y="129" on="0"/>
        <pt x="489" y="120" on="0"/>
        <pt x="540" y="120" on="1"/>
        <pt x="644" y="120" on="1"/>
        <pt x="686" y="120" on="0"/>
        <pt x="748" y="142" on="0"/>
        <pt x="799" y="191" on="0"/>
        <pt x="846" y="271" on="0"/>
        <pt x="874" y="330" on="1"/>
      </contour>
    </TTGlyph>
    <TTGlyph name="Lacute" xMin="-8" yMin="0" xMax="951" yMax="1731">
      <component glyphName="L" x="0" y="0" flags="0x0"/>
      <component glyphName="acutecomb.LP" x="944" y="320" flags="0x0"/>
    </TTGlyph>
    <TTGlyph name="Lslash" xMin="-8" yMin="0" xMax="938" yMax="1260">
      <contour>
        <pt x="758" y="864" on="1"/>
        <pt x="754" y="849" on="0"/>
        <pt x="738" y="811" on="0"/>
        <pt x="718" y="773" on="0"/>
        <pt x="698" y="738" on="0"/>
        <pt x="691" y="728" on="1"/>
        <pt x="432" y="593" on="1"/>
        <pt x="377" y="192" on="1"/>
        <pt x="375" y="174" on="0"/>
        <pt x="387" y="147" on="0"/>
        <pt x="424" y="129" on="0"/>
        <pt x="489" y="120" on="0"/>
        <pt x="540" y="120" on="1"/>
        <pt x="644" y="120" on="1"/>
        <pt x="686" y="120" on="0"/>
        <pt x="748" y="142" on="0"/>
        <pt x="799" y="191" on="0"/>
        <pt x="846" y="271" on="0"/>
        <pt x="874" y="330" on="1"/>
        <pt x="938" y="304" on="1"/>
        <pt x="929" y="261" on="0"/>
        <pt x="905" y="166" on="0"/>
        <pt x="883" y="81" on="0"/>
        <pt x="864" y="15" on="0"/>
        <pt x="858" y="0" on="1"/>
        <pt x="-8" y="0" on="1"/>
        <pt x="2" y="73" on="1"/>
        <pt x="67" y="87" on="0"/>
        <pt x="136" y="120" on="0"/>
        <pt x="138" y="134" on="1"/>
        <pt x="183" y="463" on="1"/>
        <pt x="53" y="395" on="1"/>
        <pt x="31" y="417" on="1"/>
        <pt x="34" y="432" on="0"/>
        <pt x="51" y="473" on="0"/>
        <pt x="71" y="513" on="0"/>
        <pt x="91" y="547" on="0"/>
        <pt x="97" y="556" on="1"/>
        <pt x="203" y="611" on="1"/>
        <pt x="274" y="1125" on="1"/>
        <pt x="276" y="1137" on="0"/>
        <pt x="220" y="1173" on="0"/>
        <pt x="155" y="1187" on="1"/>
        <pt x="165" y="1260" on="1"/>
        <pt x="652" y="1260" on="1"/>
        <pt x="642" y="1187" on="1"/>
        <pt x="577" y="1173" on="0"/>
        <pt x="507" y="1139" on="0"/>
        <pt x="505" y="1125" on="1"/>
        <pt x="452" y="740" on="1"/>
        <pt x="738" y="889" on="1"/>
      </contour>
    </TTGlyph>
    <TTGlyph name="M" xMin="6" yMin="0" xMax="1641" yMax="1260">
      <contour>
        <pt x="1632" y="1187" on="1"/>
        <pt x="1609" y="1187" on="0"/>
        <pt x="1544" y="1173" on="0"/>
        <pt x="1509" y="1159" on="1"/>
        <pt x="1382" y="134" on="1"/>
        <pt x="1380" y="122" on="0"/>
        <pt x="1443" y="87" on="0"/>
        <pt x="1509" y="73" on="1"/>
        <pt x="1499" y="0" on="1"/>
        <pt x="1018" y="0" on="1"/>
        <pt x="1028" y="73" on="1"/>
        <pt x="1092" y="87" on="0"/>
        <pt x="1170" y="120" on="0"/>
        <pt x="1172" y="134" on="1"/>
        <pt x="1273" y="955" on="1"/>
        <pt x="750" y="0" on="1"/>
        <pt x="663" y="0" on="1"/>
        <pt x="403" y="954" on="1"/>
        <pt x="283" y="134" on="1"/>
        <pt x="281" y="122" on="0"/>
        <pt x="337" y="87" on="0"/>
        <pt x="402" y="73" on="1"/>
        <pt x="393" y="0" on="1"/>
        <pt x="6" y="0" on="1"/>
        <pt x="15" y="73" on="1"/>
        <pt x="81" y="87" on="0"/>
        <pt x="149" y="120" on="0"/>
        <pt x="151" y="134" on="1"/>
        <pt x="300" y="1153" on="1"/>
        <pt x="270" y="1173" on="0"/>
        <pt x="205" y="1187" on="0"/>
        <pt x="178" y="1187" on="1"/>
        <pt x="188" y="1260" on="1"/>
        <pt x="509" y="1260" on="1"/>
        <pt x="518" y="1260" on="0"/>
        <pt x="532" y="1254" on="0"/>
        <pt x="544" y="1236" on="0"/>
        <pt x="556" y="1203" on="0"/>
        <pt x="564" y="1176" on="1"/>
        <pt x="793" y="344" on="1"/>
        <pt x="1250" y="1176" on="1"/>
        <pt x="1265" y="1205" on="0"/>
        <pt x="1287" y="1238" on="0"/>
        <pt x="1304" y="1255" on="0"/>
        <pt x="1319" y="1260" on="0"/>
        <pt x="1328" y="1260" on="1"/>
        <pt x="1641" y="1260" on="1"/>
      </contour>
    </TTGlyph>
    <TTGlyph name="N" xMin="-2" yMin="-30" xMax="1350" yMax="1260">
      <contour>
        <pt x="1341" y="1187" on="1"/>
        <pt x="1272" y="1177" on="0"/>
        <pt x="1208" y="1140" on="0"/>
        <pt x="1206" y="1125" on="1"/>
        <pt x="1047" y="-30" on="1"/>
        <pt x="960" y="-22" on="0"/>
        <pt x="859" y="35" on="0"/>
        <pt x="836" y="80" on="1"/>
        <pt x="389" y="922" on="1"/>
        <pt x="281" y="134" on="1"/>
        <pt x="280" y="128" on="0"/>
        <pt x="290" y="111" on="0"/>
        <pt x="318" y="94" on="0"/>
        <pt x="364" y="78" on="0"/>
        <pt x="399" y="73" on="1"/>
        <pt x="389" y="0" on="1"/>
        <pt x="-2" y="0" on="1"/>
        <pt x="8" y="73" on="1"/>
        <pt x="77" y="82" on="0"/>
        <pt x="140" y="120" on="0"/>
        <pt x="142" y="134" on="1"/>
        <pt x="277" y="1115" on="1"/>
        <pt x="226" y="1175" on="0"/>
        <pt x="158" y="1187" on="1"/>
        <pt x="168" y="1260" on="1"/>
        <pt x="423" y="1260" on="1"/>
        <pt x="439" y="1260" on="0"/>
        <pt x="458" y="1256" on="0"/>
        <pt x="475" y="1240" on="0"/>
        <pt x="492" y="1209" on="0"/>
        <pt x="506" y="1182" on="1"/>
        <pt x="959" y="329" on="1"/>
        <pt x="1068" y="1125" on="1"/>
        <pt x="1069" y="1131" on="0"/>
        <pt x="1059" y="1148" on="0"/>
        <pt x="1033" y="1165" on="0"/>
        <pt x="986" y="1181" on="0"/>
        <pt x="950" y="1187" on="1"/>
        <pt x="959" y="1260" on="1"/>
        <pt x="1350" y="1260" on="1"/>
      </contour>
    </TTGlyph>
    <TTGlyph name="Nacute" xMin="-2" yMin="-30" xMax="1350" yMax="1731">
      <component glyphName="N" x="0" y="0" flags="0x0"/>
      <component glyphName="acutecomb.LP" x="1110" y="320" flags="0x0"/>
    </TTGlyph>
    <TTGlyph name="Ncaron" xMin="-2" yMin="-30" xMax="1350" yMax="1746">
      <component glyphName="N" x="0" y="0" flags="0x0"/>
      <component glyphName="uni030C.LP" x="1122" y="320" flags="0x0"/>
    </TTGlyph>
    <TTGlyph name="Ntilde" xMin="-2" yMin="-30" xMax="1350" yMax="1661">
      <component glyphName="N" x="0" y="0" flags="0x0"/>
      <component glyphName="tildecomb.LP" x="1112" y="320" flags="0x0"/>
    </TTGlyph>
    <TTGlyph name="O" xMin="75" yMin="-31" xMax="1156" yMax="1290">
      <contour>
        <pt x="917" y="756" on="1"/>
        <pt x="917" y="840" on="0"/>
        <pt x="885" y="987" on="0"/>
        <pt x="823" y="1096" on="0"/>
        <pt x="730" y="1158" on="0"/>
        <pt x="670" y="1158" on="1"/>
        <pt x="609" y="1158" on="0"/>
        <pt x="509" y="1100" on="0"/>
        <pt x="431" y="1003" on="0"/>
        <pt x="373" y="876" on="0"/>
        <pt x="335" y="737" on="0"/>
        <pt x="317" y="595" on="0"/>
        <pt x="317" y="532" on="1"/>
        <pt x="317" y="439" on="0"/>
        <pt x="349" y="283" on="0"/>
        <pt x="412" y="170" on="0"/>
        <pt x="502" y="108" on="0"/>
        <pt x="561" y="108" on="1"/>
        <pt x="625" y="108" on="0"/>
        <pt x="727" y="169" on="0"/>
        <pt x="806" y="270" on="0"/>
        <pt x="863" y="403" on="0"/>
        <pt x="900" y="547" on="0"/>
        <pt x="917" y="693" on="0"/>
      </contour>
      <contour>
        <pt x="1156" y="774" on="1"/>
        <pt x="1156" y="703" on="0"/>
        <pt x="1129" y="557" on="0"/>
        <pt x="1079" y="415" on="0"/>
        <pt x="1006" y="282" on="0"/>
        <pt x="961" y="225" on="1"/>
        <pt x="919" y="171" on="0"/>
        <pt x="814" y="78" on="0"/>
        <pt x="696" y="9" on="0"/>
        <pt x="568" y="-31" on="0"/>
        <pt x="501" y="-31" on="1"/>
        <pt x="399" y="-31" on="0"/>
        <pt x="241" y="51" on="0"/>
        <pt x="132" y="192" on="0"/>
        <pt x="75" y="380" on="0"/>
        <pt x="75" y="485" on="1"/>
        <pt x="75" y="559" on="0"/>
        <pt x="100" y="703" on="0"/>
        <pt x="146" y="839" on="0"/>
        <pt x="211" y="963" on="0"/>
        <pt x="251" y="1018" on="1"/>
        <pt x="293" y="1074" on="0"/>
        <pt x="395" y="1173" on="0"/>
        <pt x="516" y="1247" on="0"/>
        <pt x="656" y="1290" on="0"/>
        <pt x="735" y="1290" on="1"/>
        <pt x="842" y="1290" on="0"/>
        <pt x="1000" y="1208" on="0"/>
        <pt x="1105" y="1067" on="0"/>
        <pt x="1156" y="879" on="0"/>
      </contour>
    </TTGlyph>
    <TTGlyph name="OE" xMin="68" yMin="-30" xMax="1607" yMax="1290">
      <contour>
        <pt x="557" y="108" on="1"/>
        <pt x="591" y="108" on="0"/>
        <pt x="643" y="115" on="0"/>
        <pt x="687" y="128" on="0"/>
        <pt x="726" y="149" on="0"/>
        <pt x="747" y="164" on="1"/>
        <pt x="870" y="1062" on="1"/>
        <pt x="835" y="1110" on="0"/>
        <pt x="726" y="1158" on="0"/>
        <pt x="666" y="1158" on="1"/>
        <pt x="592" y="1158" on="0"/>
        <pt x="475" y="1074" on="0"/>
        <pt x="388" y="927" on="0"/>
        <pt x="333" y="727" on="0"/>
        <pt x="320" y="612" on="1"/>
        <pt x="308" y="504" on="0"/>
        <pt x="333" y="320" on="0"/>
        <pt x="396" y="185" on="0"/>
        <pt x="495" y="108" on="0"/>
      </contour>
      <contour>
        <pt x="1575" y="1260" on="1"/>
        <pt x="1607" y="1228" on="1"/>
        <pt x="1602" y="1202" on="0"/>
        <pt x="1584" y="1124" on="0"/>
        <pt x="1562" y="1042" on="0"/>
        <pt x="1540" y="969" on="0"/>
        <pt x="1532" y="950" on="1"/>
        <pt x="1462" y="950" on="1"/>
        <pt x="1471" y="1043" on="0"/>
        <pt x="1447" y="1140" on="0"/>
        <pt x="1412" y="1140" on="1"/>
        <pt x="1112" y="1140" on="1"/>
        <pt x="1056" y="735" on="1"/>
        <pt x="1413" y="735" on="1"/>
        <pt x="1440" y="700" on="1"/>
        <pt x="1430" y="686" on="0"/>
        <pt x="1404" y="648" on="0"/>
        <pt x="1376" y="610" on="0"/>
        <pt x="1348" y="578" on="0"/>
        <pt x="1337" y="570" on="1"/>
        <pt x="1325" y="585" on="0"/>
        <pt x="1297" y="605" on="0"/>
        <pt x="1257" y="619" on="0"/>
        <pt x="1202" y="625" on="0"/>
        <pt x="1163" y="625" on="1"/>
        <pt x="1041" y="625" on="1"/>
        <pt x="981" y="184" on="1"/>
        <pt x="979" y="169" on="0"/>
        <pt x="986" y="146" on="0"/>
        <pt x="1021" y="129" on="0"/>
        <pt x="1091" y="120" on="0"/>
        <pt x="1152" y="120" on="1"/>
        <pt x="1242" y="120" on="1"/>
        <pt x="1285" y="120" on="0"/>
        <pt x="1348" y="142" on="0"/>
        <pt x="1400" y="191" on="0"/>
        <pt x="1449" y="271" on="0"/>
        <pt x="1477" y="330" on="1"/>
        <pt x="1541" y="304" on="1"/>
        <pt x="1532" y="261" on="0"/>
        <pt x="1509" y="166" on="0"/>
        <pt x="1487" y="81" on="0"/>
        <pt x="1468" y="15" on="0"/>
        <pt x="1462" y="0" on="1"/>
        <pt x="783" y="0" on="1"/>
        <pt x="728" y="0" on="0"/>
        <pt x="656" y="-9" on="0"/>
        <pt x="598" y="-21" on="0"/>
        <pt x="539" y="-30" on="0"/>
        <pt x="497" y="-30" on="1"/>
        <pt x="386" y="-30" on="0"/>
        <pt x="218" y="69" on="0"/>
        <pt x="112" y="236" on="0"/>
        <pt x="68" y="455" on="0"/>
        <pt x="81" y="575" on="1"/>
        <pt x="90" y="669" on="0"/>
        <pt x="148" y="848" on="0"/>
        <pt x="237" y="1007" on="0"/>
        <pt x="354" y="1140" on="0"/>
        <pt x="492" y="1236" on="0"/>
        <pt x="648" y="1290" on="0"/>
        <pt x="731" y="1290" on="1"/>
        <pt x="770" y="1290" on="0"/>
        <pt x="825" y="1281" on="0"/>
        <pt x="873" y="1269" on="0"/>
        <pt x="922" y="1260" on="0"/>
        <pt x="955" y="1260" on="1"/>
      </contour>
    </TTGlyph>
    <TTGlyph name="Oacute" xMin="75" yMin="-31" xMax="1156" yMax="1731">
      <component glyphName="O" x="0" y="0" flags="0x0"/>
      <component glyphName="acutecomb.LP" x="1075" y="320" flags="0x0"/>
    </TTGlyph>
    <TTGlyph name="Obreve" xMin="75" yMin="-31" xMax="1156" yMax="1728">
      <component glyphName="O" x="0" y="0" flags="0x0"/>
      <component glyphName="uni0306" x="1102" y="320" flags="0x0"/>
    </TTGlyph>
    <TTGlyph name="Ocircumflex" xMin="75" yMin="-31" xMax="1156" yMax="1707">
      <component glyphName="O" x="0" y="0" flags="0x0"/>
      <component glyphName="uni0302.LP" x="1082" y="320" flags="0x0"/>
    </TTGlyph>
    <TTGlyph name="Odieresis" xMin="75" yMin="-31" xMax="1156" yMax="1652">
      <component glyphName="O" x="0" y="0" flags="0x0"/>
      <component glyphName="uni0308.LP" x="1092" y="320" flags="0x0"/>
    </TTGlyph>
    <TTGlyph name="Ograve" xMin="75" yMin="-31" xMax="1156" yMax="1731">
      <component glyphName="O" x="0" y="0" flags="0x0"/>
      <component glyphName="gravecomb.LP" x="997" y="320" flags="0x0"/>
    </TTGlyph>
    <TTGlyph name="Ohorn" xMin="75" yMin="-31" xMax="1342" yMax="1513">
      <contour>
        <pt x="917" y="756" on="1"/>
        <pt x="917" y="840" on="0"/>
        <pt x="885" y="987" on="0"/>
        <pt x="823" y="1096" on="0"/>
        <pt x="730" y="1158" on="0"/>
        <pt x="670" y="1158" on="1"/>
        <pt x="609" y="1158" on="0"/>
        <pt x="509" y="1100" on="0"/>
        <pt x="431" y="1003" on="0"/>
        <pt x="373" y="876" on="0"/>
        <pt x="335" y="737" on="0"/>
        <pt x="317" y="595" on="0"/>
        <pt x="317" y="532" on="1"/>
        <pt x="317" y="439" on="0"/>
        <pt x="349" y="283" on="0"/>
        <pt x="412" y="170" on="0"/>
        <pt x="502" y="108" on="0"/>
        <pt x="561" y="108" on="1"/>
        <pt x="625" y="108" on="0"/>
        <pt x="727" y="169" on="0"/>
        <pt x="806" y="270" on="0"/>
        <pt x="863" y="403" on="0"/>
        <pt x="900" y="547" on="0"/>
        <pt x="917" y="693" on="0"/>
      </contour>
      <contour>
        <pt x="1342" y="1418" on="1"/>
        <pt x="1342" y="1326" on="0"/>
        <pt x="1201" y="1168" on="0"/>
        <pt x="1072" y="1107" on="1"/>
        <pt x="1114" y="1039" on="0"/>
        <pt x="1156" y="869" on="0"/>
        <pt x="1156" y="774" on="1"/>
        <pt x="1156" y="703" on="0"/>
        <pt x="1129" y="557" on="0"/>
        <pt x="1079" y="415" on="0"/>
        <pt x="1006" y="282" on="0"/>
        <pt x="961" y="225" on="1"/>
        <pt x="919" y="171" on="0"/>
        <pt x="814" y="78" on="0"/>
        <pt x="696" y="9" on="0"/>
        <pt x="568" y="-31" on="0"/>
        <pt x="501" y="-31" on="1"/>
        <pt x="399" y="-31" on="0"/>
        <pt x="241" y="51" on="0"/>
        <pt x="132" y="192" on="0"/>
        <pt x="75" y="380" on="0"/>
        <pt x="75" y="485" on="1"/>
        <pt x="75" y="559" on="0"/>
        <pt x="100" y="703" on="0"/>
        <pt x="146" y="839" on="0"/>
        <pt x="211" y="963" on="0"/>
        <pt x="251" y="1018" on="1"/>
        <pt x="293" y="1074" on="0"/>
        <pt x="395" y="1173" on="0"/>
        <pt x="516" y="1247" on="0"/>
        <pt x="656" y="1290" on="0"/>
        <pt x="735" y="1290" on="1"/>
        <pt x="824" y="1290" on="0"/>
        <pt x="963" y="1233" on="0"/>
        <pt x="1014" y="1182" on="1"/>
        <pt x="1064" y="1207" on="0"/>
        <pt x="1116" y="1271" on="0"/>
        <pt x="1116" y="1313" on="1"/>
        <pt x="1116" y="1322" on="0"/>
        <pt x="1111" y="1347" on="0"/>
        <pt x="1099" y="1372" on="0"/>
        <pt x="1079" y="1395" on="0"/>
        <pt x="1064" y="1403" on="1"/>
        <pt x="1292" y="1513" on="1"/>
        <pt x="1304" y="1505" on="0"/>
        <pt x="1323" y="1482" on="0"/>
        <pt x="1336" y="1456" on="0"/>
        <pt x="1342" y="1429" on="0"/>
      </contour>
    </TTGlyph>
    <TTGlyph name="Ohungarumlaut" xMin="75" yMin="-31" xMax="1187" yMax="1787">
      <component glyphName="O" x="0" y="0" flags="0x0"/>
      <component glyphName="uni030B" x="1083" y="320" flags="0x0"/>
    </TTGlyph>
    <TTGlyph name="Omacron" xMin="75" yMin="-31" xMax="1165" yMax="1600">
      <component glyphName="O" x="0" y="0" flags="0x0"/>
      <component glyphName="uni0304.LP" x="1087" y="320" flags="0x0"/>
    </TTGlyph>
    <TTGlyph name="Omega" xMin="8" yMin="0" xMax="1199" yMax="1290">
      <component glyphName="uni03A9" x="0" y="0" flags="0x0"/>
    </TTGlyph>
    <TTGlyph name="Oslash" xMin="14" yMin="-53" xMax="1233" yMax="1313">
      <contour>
        <pt x="917" y="756" on="1"/>
        <pt x="917" y="818" on="0"/>
        <pt x="908" y="874" on="1"/>
        <pt x="382" y="223" on="1"/>
        <pt x="413" y="168" on="0"/>
        <pt x="503" y="108" on="0"/>
        <pt x="561" y="108" on="1"/>
        <pt x="625" y="108" on="0"/>
        <pt x="727" y="169" on="0"/>
        <pt x="806" y="270" on="0"/>
        <pt x="863" y="403" on="0"/>
        <pt x="900" y="547" on="0"/>
        <pt x="917" y="693" on="0"/>
      </contour>
      <contour>
        <pt x="317" y="532" on="1"/>
        <pt x="317" y="489" on="0"/>
        <pt x="323" y="411" on="0"/>
        <pt x="330" y="375" on="1"/>
        <pt x="860" y="1029" on="1"/>
        <pt x="829" y="1089" on="0"/>
        <pt x="734" y="1158" on="0"/>
        <pt x="670" y="1158" on="1"/>
        <pt x="609" y="1158" on="0"/>
        <pt x="509" y="1100" on="0"/>
        <pt x="431" y="1003" on="0"/>
        <pt x="373" y="876" on="0"/>
        <pt x="335" y="737" on="0"/>
        <pt x="317" y="595" on="0"/>
      </contour>
      <contour>
        <pt x="1156" y="774" on="1"/>
        <pt x="1156" y="703" on="0"/>
        <pt x="1129" y="557" on="0"/>
        <pt x="1079" y="415" on="0"/>
        <pt x="1006" y="282" on="0"/>
        <pt x="961" y="225" on="1"/>
        <pt x="919" y="171" on="0"/>
        <pt x="814" y="78" on="0"/>
        <pt x="696" y="9" on="0"/>
        <pt x="568" y="-31" on="0"/>
        <pt x="501" y="-31" on="1"/>
        <pt x="425" y="-31" on="0"/>
        <pt x="299" y="15" on="0"/>
        <pt x="248" y="57" on="1"/>
        <pt x="200" y="-2" on="1"/>
        <pt x="190" y="-10" on="0"/>
        <pt x="146" y="-26" on="0"/>
        <pt x="97" y="-41" on="0"/>
        <pt x="51" y="-51" on="0"/>
        <pt x="39" y="-53" on="1"/>
        <pt x="14" y="-16" on="1"/>
        <pt x="158" y="162" on="1"/>
        <pt x="117" y="229" on="0"/>
        <pt x="75" y="394" on="0"/>
        <pt x="75" y="485" on="1"/>
        <pt x="75" y="559" on="0"/>
        <pt x="100" y="703" on="0"/>
        <pt x="146" y="839" on="0"/>
        <pt x="211" y="963" on="0"/>
        <pt x="251" y="1018" on="1"/>
        <pt x="293" y="1074" on="0"/>
        <pt x="395" y="1173" on="0"/>
        <pt x="516" y="1247" on="0"/>
        <pt x="656" y="1290" on="0"/>
        <pt x="735" y="1290" on="1"/>
        <pt x="817" y="1290" on="0"/>
        <pt x="947" y="1242" on="0"/>
        <pt x="997" y="1198" on="1"/>
        <pt x="1050" y="1264" on="1"/>
        <pt x="1064" y="1272" on="0"/>
        <pt x="1107" y="1288" on="0"/>
        <pt x="1152" y="1302" on="0"/>
        <pt x="1194" y="1311" on="0"/>
        <pt x="1208" y="1313" on="1"/>
        <pt x="1233" y="1276" on="1"/>
        <pt x="1083" y="1090" on="1"/>
        <pt x="1120" y="1024" on="0"/>
        <pt x="1156" y="863" on="0"/>
      </contour>
    </TTGlyph>
    <TTGlyph name="Oslashacute" xMin="14" yMin="-53" xMax="1233" yMax="1731">
      <component glyphName="Oslash" x="0" y="0" flags="0x0"/>
      <component glyphName="acutecomb.LP" x="1080" y="320" flags="0x0"/>
    </TTGlyph>
    <TTGlyph name="Otilde" xMin="75" yMin="-31" xMax="1156" yMax="1661">
      <component glyphName="O" x="0" y="0" flags="0x0"/>
      <component glyphName="tildecomb.LP" x="1077" y="320" flags="0x0"/>
    </TTGlyph>
    <TTGlyph name="P" xMin="-8" yMin="0" xMax="1088" yMax="1290">
      <contour>
        <pt x="1088" y="942" on="1"/>
        <pt x="1088" y="857" on="0"/>
        <pt x="1015" y="704" on="0"/>
        <pt x="889" y="588" on="0"/>
        <pt x="722" y="520" on="0"/>
        <pt x="628" y="520" on="1"/>
        <pt x="590" y="520" on="0"/>
        <pt x="512" y="539" on="0"/>
        <pt x="485" y="554" on="1"/>
        <pt x="468" y="658" on="1"/>
        <pt x="502" y="644" on="0"/>
        <pt x="557" y="625" on="0"/>
        <pt x="592" y="625" on="1"/>
        <pt x="651" y="625" on="0"/>
        <pt x="745" y="664" on="0"/>
        <pt x="811" y="736" on="0"/>
        <pt x="846" y="840" on="0"/>
        <pt x="846" y="905" on="1"/>
        <pt x="846" y="989" on="0"/>
        <pt x="796" y="1097" on="0"/>
        <pt x="714" y="1160" on="0"/>
        <pt x="606" y="1184" on="0"/>
        <pt x="549" y="1184" on="1"/>
        <pt x="532" y="1184" on="1"/>
        <pt x="524" y="1184" on="0"/>
        <pt x="516" y="1183" on="1"/>
        <pt x="371" y="134" on="1"/>
        <pt x="369" y="128" on="0"/>
        <pt x="381" y="114" on="0"/>
        <pt x="415" y="98" on="0"/>
        <pt x="475" y="82" on="0"/>
        <pt x="522" y="73" on="1"/>
        <pt x="513" y="0" on="1"/>
        <pt x="-8" y="0" on="1"/>
        <pt x="2" y="73" on="1"/>
        <pt x="65" y="87" on="0"/>
        <pt x="133" y="120" on="0"/>
        <pt x="135" y="134" on="1"/>
        <pt x="277" y="1161" on="1"/>
        <pt x="242" y="1156" on="0"/>
        <pt x="171" y="1143" on="0"/>
        <pt x="134" y="1135" on="1"/>
        <pt x="134" y="1225" on="1"/>
        <pt x="183" y="1240" on="0"/>
        <pt x="298" y="1264" on="0"/>
        <pt x="418" y="1281" on="0"/>
        <pt x="540" y="1290" on="0"/>
        <pt x="597" y="1290" on="1"/>
        <pt x="713" y="1290" on="0"/>
        <pt x="896" y="1246" on="0"/>
        <pt x="1022" y="1158" on="0"/>
        <pt x="1088" y="1028" on="0"/>
      </contour>
    </TTGlyph>
    <TTGlyph name="Pi" xMin="-15" yMin="0" xMax="1280" yMax="1260">
      <contour>
        <pt x="-15" y="0" on="1"/>
        <pt x="-6" y="73" on="1"/>
        <pt x="57" y="87" on="0"/>
        <pt x="125" y="120" on="0"/>
        <pt x="127" y="134" on="1"/>
        <pt x="263" y="1125" on="1"/>
        <pt x="265" y="1137" on="0"/>
        <pt x="211" y="1173" on="0"/>
        <pt x="148" y="1187" on="1"/>
        <pt x="158" y="1260" on="1"/>
        <pt x="1280" y="1260" on="1"/>
        <pt x="1271" y="1187" on="1"/>
        <pt x="1207" y="1173" on="0"/>
        <pt x="1138" y="1139" on="0"/>
        <pt x="1136" y="1125" on="1"/>
        <pt x="1000" y="134" on="1"/>
        <pt x="998" y="122" on="0"/>
        <pt x="1053" y="87" on="0"/>
        <pt x="1117" y="73" on="1"/>
        <pt x="1108" y="0" on="1"/>
        <pt x="634" y="0" on="1"/>
        <pt x="644" y="73" on="1"/>
        <pt x="707" y="87" on="0"/>
        <pt x="773" y="120" on="0"/>
        <pt x="775" y="134" on="1"/>
        <pt x="905" y="1080" on="1"/>
        <pt x="906" y="1092" on="0"/>
        <pt x="891" y="1116" on="0"/>
        <pt x="856" y="1136" on="0"/>
        <pt x="802" y="1149" on="0"/>
        <pt x="765" y="1149" on="1"/>
        <pt x="630" y="1149" on="1"/>
        <pt x="595" y="1148" on="0"/>
        <pt x="541" y="1135" on="0"/>
        <pt x="504" y="1116" on="0"/>
        <pt x="483" y="1092" on="0"/>
        <pt x="482" y="1080" on="1"/>
        <pt x="352" y="134" on="1"/>
        <pt x="350" y="122" on="0"/>
        <pt x="404" y="87" on="0"/>
        <pt x="468" y="73" on="1"/>
        <pt x="459" y="0" on="1"/>
      </contour>
    </TTGlyph>
    <TTGlyph name="Q" xMin="75" yMin="-326" xMax="1253" yMax="1290">
      <contour>
        <pt x="917" y="756" on="1"/>
        <pt x="917" y="840" on="0"/>
        <pt x="885" y="987" on="0"/>
        <pt x="823" y="1096" on="0"/>
        <pt x="730" y="1158" on="0"/>
        <pt x="670" y="1158" on="1"/>
        <pt x="609" y="1158" on="0"/>
        <pt x="509" y="1100" on="0"/>
        <pt x="431" y="1003" on="0"/>
        <pt x="373" y="876" on="0"/>
        <pt x="335" y="737" on="0"/>
        <pt x="317" y="595" on="0"/>
        <pt x="317" y="532" on="1"/>
        <pt x="317" y="439" on="0"/>
        <pt x="349" y="283" on="0"/>
        <pt x="412" y="170" on="0"/>
        <pt x="502" y="108" on="0"/>
        <pt x="561" y="108" on="1"/>
        <pt x="625" y="108" on="0"/>
        <pt x="727" y="169" on="0"/>
        <pt x="806" y="270" on="0"/>
        <pt x="863" y="403" on="0"/>
        <pt x="900" y="547" on="0"/>
        <pt x="917" y="693" on="0"/>
      </contour>
      <contour>
        <pt x="1253" y="-125" on="1"/>
        <pt x="1224" y="-169" on="0"/>
        <pt x="1163" y="-242" on="0"/>
        <pt x="1106" y="-296" on="0"/>
        <pt x="1058" y="-326" on="0"/>
        <pt x="1044" y="-326" on="1"/>
        <pt x="1001" y="-326" on="0"/>
        <pt x="918" y="-295" on="0"/>
        <pt x="838" y="-245" on="0"/>
        <pt x="759" y="-180" on="0"/>
        <pt x="680" y="-114" on="0"/>
        <pt x="601" y="-50" on="0"/>
        <pt x="560" y="-26" on="1"/>
        <pt x="546" y="-28" on="0"/>
        <pt x="516" y="-31" on="0"/>
        <pt x="501" y="-31" on="1"/>
        <pt x="399" y="-31" on="0"/>
        <pt x="241" y="51" on="0"/>
        <pt x="132" y="192" on="0"/>
        <pt x="75" y="380" on="0"/>
        <pt x="75" y="485" on="1"/>
        <pt x="75" y="559" on="0"/>
        <pt x="100" y="703" on="0"/>
        <pt x="146" y="839" on="0"/>
        <pt x="211" y="963" on="0"/>
        <pt x="251" y="1018" on="1"/>
        <pt x="293" y="1074" on="0"/>
        <pt x="395" y="1173" on="0"/>
        <pt x="516" y="1247" on="0"/>
        <pt x="656" y="1290" on="0"/>
        <pt x="735" y="1290" on="1"/>
        <pt x="842" y="1290" on="0"/>
        <pt x="1000" y="1208" on="0"/>
        <pt x="1105" y="1067" on="0"/>
        <pt x="1156" y="879" on="0"/>
        <pt x="1156" y="774" on="1"/>
        <pt x="1156" y="703" on="0"/>
        <pt x="1129" y="557" on="0"/>
        <pt x="1079" y="415" on="0"/>
        <pt x="1006" y="282" on="0"/>
        <pt x="961" y="225" on="1"/>
        <pt x="913" y="165" on="0"/>
        <pt x="795" y="63" on="0"/>
        <pt x="727" y="28" on="1"/>
        <pt x="777" y="8" on="0"/>
        <pt x="868" y="-47" on="0"/>
        <pt x="953" y="-96" on="0"/>
        <pt x="1034" y="-130" on="0"/>
        <pt x="1076" y="-130" on="1"/>
        <pt x="1088" y="-130" on="0"/>
        <pt x="1111" y="-125" on="0"/>
        <pt x="1142" y="-110" on="0"/>
        <pt x="1184" y="-82" on="0"/>
        <pt x="1215" y="-60" on="1"/>
      </contour>
    </TTGlyph>
    <TTGlyph name="R" xMin="-8" yMin="-14" xMax="1160" yMax="1290">
      <contour>
        <pt x="562" y="1184" on="1"/>
        <pt x="550" y="1184" on="0"/>
        <pt x="526" y="1183" on="0"/>
        <pt x="514" y="1183" on="1"/>
        <pt x="449" y="704" on="1"/>
        <pt x="473" y="696" on="0"/>
        <pt x="519" y="692" on="0"/>
        <pt x="545" y="692" on="1"/>
        <pt x="597" y="692" on="0"/>
        <pt x="694" y="725" on="0"/>
        <pt x="769" y="789" on="0"/>
        <pt x="813" y="882" on="0"/>
        <pt x="813" y="942" on="1"/>
        <pt x="813" y="1016" on="0"/>
        <pt x="766" y="1110" on="0"/>
        <pt x="692" y="1164" on="0"/>
        <pt x="604" y="1184" on="0"/>
      </contour>
      <contour>
        <pt x="1160" y="117" on="1"/>
        <pt x="1121" y="91" on="0"/>
        <pt x="1029" y="43" on="0"/>
        <pt x="944" y="7" on="0"/>
        <pt x="877" y="-14" on="0"/>
        <pt x="864" y="-14" on="1"/>
        <pt x="847" y="-14" on="0"/>
        <pt x="814" y="-5" on="0"/>
        <pt x="781" y="23" on="0"/>
        <pt x="748" y="75" on="0"/>
        <pt x="732" y="117" on="1"/>
        <pt x="552" y="581" on="1"/>
        <pt x="524" y="582" on="0"/>
        <pt x="461" y="587" on="0"/>
        <pt x="434" y="594" on="1"/>
        <pt x="372" y="134" on="1"/>
        <pt x="369" y="122" on="0"/>
        <pt x="432" y="87" on="0"/>
        <pt x="495" y="73" on="1"/>
        <pt x="485" y="0" on="1"/>
        <pt x="-8" y="0" on="1"/>
        <pt x="2" y="73" on="1"/>
        <pt x="65" y="87" on="0"/>
        <pt x="134" y="120" on="0"/>
        <pt x="136" y="134" on="1"/>
        <pt x="275" y="1161" on="1"/>
        <pt x="237" y="1156" on="0"/>
        <pt x="165" y="1143" on="0"/>
        <pt x="133" y="1136" on="1"/>
        <pt x="134" y="1227" on="1"/>
        <pt x="179" y="1240" on="0"/>
        <pt x="289" y="1263" on="0"/>
        <pt x="411" y="1280" on="0"/>
        <pt x="544" y="1290" on="0"/>
        <pt x="612" y="1290" on="1"/>
        <pt x="717" y="1290" on="0"/>
        <pt x="881" y="1249" on="0"/>
        <pt x="994" y="1168" on="0"/>
        <pt x="1053" y="1049" on="0"/>
        <pt x="1053" y="971" on="1"/>
        <pt x="1053" y="922" on="0"/>
        <pt x="1010" y="813" on="0"/>
        <pt x="928" y="711" on="0"/>
        <pt x="808" y="627" on="0"/>
        <pt x="730" y="604" on="1"/>
        <pt x="951" y="214" on="1"/>
        <pt x="966" y="188" on="0"/>
        <pt x="996" y="163" on="0"/>
        <pt x="1037" y="159" on="0"/>
        <pt x="1093" y="172" on="0"/>
        <pt x="1134" y="185" on="1"/>
      </contour>
    </TTGlyph>
    <TTGlyph name="Racute" xMin="-8" yMin="-14" xMax="1160" yMax="1731">
      <component glyphName="R" x="0" y="0" flags="0x0"/>
      <component glyphName="acutecomb.LP" x="1001" y="320" flags="0x0"/>
    </TTGlyph>
    <TTGlyph name="Rcaron" xMin="-8" yMin="-14" xMax="1160" yMax="1746">
      <component glyphName="R" x="0" y="0" flags="0x0"/>
      <component glyphName="uni030C.LP" x="1013" y="320" flags="0x0"/>
    </TTGlyph>
    <TTGlyph name="S" xMin="25" yMin="-31" xMax="966" yMax="1290">
      <contour>
        <pt x="962" y="1198" on="1"/>
        <pt x="966" y="1195" on="0"/>
        <pt x="957" y="1165" on="0"/>
        <pt x="938" y="1124" on="0"/>
        <pt x="911" y="1076" on="0"/>
        <pt x="884" y="1034" on="0"/>
        <pt x="860" y="1003" on="0"/>
        <pt x="853" y="999" on="1"/>
        <pt x="794" y="1005" on="1"/>
        <pt x="782" y="1047" on="0"/>
        <pt x="740" y="1109" on="0"/>
        <pt x="689" y="1150" on="0"/>
        <pt x="630" y="1171" on="0"/>
        <pt x="600" y="1171" on="1"/>
        <pt x="549" y="1171" on="0"/>
        <pt x="474" y="1141" on="0"/>
        <pt x="425" y="1091" on="0"/>
        <pt x="401" y="1028" on="0"/>
        <pt x="401" y="995" on="1"/>
        <pt x="401" y="973" on="0"/>
        <pt x="415" y="925" on="0"/>
        <pt x="459" y="873" on="0"/>
        <pt x="540" y="814" on="0"/>
        <pt x="607" y="780" on="1"/>
        <pt x="686" y="739" on="0"/>
        <pt x="800" y="663" on="0"/>
        <pt x="874" y="581" on="0"/>
        <pt x="909" y="489" on="0"/>
        <pt x="909" y="433" on="1"/>
        <pt x="909" y="339" on="0"/>
        <pt x="827" y="171" on="0"/>
        <pt x="684" y="44" on="0"/>
        <pt x="491" y="-31" on="0"/>
        <pt x="381" y="-31" on="1"/>
        <pt x="347" y="-31" on="0"/>
        <pt x="267" y="-19" on="0"/>
        <pt x="188" y="2" on="0"/>
        <pt x="115" y="31" on="0"/>
        <pt x="59" y="66" on="0"/>
        <pt x="25" y="104" on="0"/>
        <pt x="25" y="123" on="1"/>
        <pt x="25" y="133" on="0"/>
        <pt x="40" y="169" on="0"/>
        <pt x="66" y="211" on="0"/>
        <pt x="97" y="255" on="0"/>
        <pt x="129" y="291" on="0"/>
        <pt x="159" y="314" on="0"/>
        <pt x="169" y="314" on="1"/>
        <pt x="180" y="314" on="0"/>
        <pt x="207" y="284" on="0"/>
        <pt x="242" y="239" on="0"/>
        <pt x="286" y="186" on="0"/>
        <pt x="343" y="141" on="0"/>
        <pt x="412" y="111" on="0"/>
        <pt x="455" y="111" on="1"/>
        <pt x="503" y="111" on="0"/>
        <pt x="588" y="143" on="0"/>
        <pt x="651" y="201" on="0"/>
        <pt x="688" y="285" on="0"/>
        <pt x="688" y="338" on="1"/>
        <pt x="688" y="381" on="0"/>
        <pt x="659" y="455" on="0"/>
        <pt x="594" y="524" on="0"/>
        <pt x="489" y="590" on="0"/>
        <pt x="413" y="626" on="1"/>
        <pt x="347" y="657" on="0"/>
        <pt x="261" y="726" on="0"/>
        <pt x="212" y="801" on="0"/>
        <pt x="192" y="883" on="0"/>
        <pt x="192" y="928" on="1"/>
        <pt x="192" y="994" on="0"/>
        <pt x="259" y="1124" on="0"/>
        <pt x="384" y="1226" on="0"/>
        <pt x="559" y="1290" on="0"/>
        <pt x="667" y="1290" on="1"/>
        <pt x="762" y="1290" on="0"/>
        <pt x="914" y="1235" on="0"/>
      </contour>
    </TTGlyph>
    <TTGlyph name="Sacute" xMin="25" yMin="-31" xMax="966" yMax="1731">
      <component glyphName="S" x="0" y="0" flags="0x0"/>
      <component glyphName="acutecomb.LP" x="953" y="320" flags="0x0"/>
    </TTGlyph>
    <TTGlyph name="Scaron" xMin="25" yMin="-31" xMax="973" yMax="1746">
      <component glyphName="S" x="0" y="0" flags="0x0"/>
      <component glyphName="uni030C.LP" x="965" y="320" flags="0x0"/>
    </TTGlyph>
    <TTGlyph name="Scircumflex" xMin="25" yMin="-31" xMax="966" yMax="1707">
      <component glyphName="S" x="0" y="0" flags="0x0"/>
      <component glyphName="uni0302.LP" x="960" y="320" flags="0x0"/>
    </TTGlyph>
    <TTGlyph name="T" xMin="94" yMin="0" xMax="1193" yMax="1260">
      <contour>
        <pt x="758" y="0" on="1"/>
        <pt x="237" y="0" on="1"/>
        <pt x="246" y="73" on="1"/>
        <pt x="290" y="82" on="0"/>
        <pt x="348" y="102" on="0"/>
        <pt x="384" y="121" on="0"/>
        <pt x="400" y="138" on="0"/>
        <pt x="401" y="145" on="1"/>
        <pt x="537" y="1140" on="1"/>
        <pt x="303" y="1140" on="1"/>
        <pt x="289" y="1140" on="0"/>
        <pt x="262" y="1119" on="0"/>
        <pt x="229" y="1069" on="0"/>
        <pt x="187" y="989" on="0"/>
        <pt x="158" y="931" on="1"/>
        <pt x="94" y="958" on="1"/>
        <pt x="100" y="986" on="0"/>
        <pt x="119" y="1069" on="0"/>
        <pt x="142" y="1155" on="0"/>
        <pt x="164" y="1234" on="0"/>
        <pt x="173" y="1260" on="1"/>
        <pt x="1164" y="1260" on="1"/>
        <pt x="1193" y="1228" on="1"/>
        <pt x="1189" y="1203" on="0"/>
        <pt x="1172" y="1129" on="0"/>
        <pt x="1151" y="1048" on="0"/>
        <pt x="1129" y="970" on="0"/>
        <pt x="1120" y="940" on="1"/>
        <pt x="1051" y="940" on="1"/>
        <pt x="1048" y="987" on="0"/>
        <pt x="1045" y="1062" on="0"/>
        <pt x="1036" y="1113" on="0"/>
        <pt x="1016" y="1140" on="0"/>
        <pt x="996" y="1140" on="1"/>
        <pt x="769" y="1140" on="1"/>
        <pt x="633" y="145" on="1"/>
        <pt x="632" y="139" on="0"/>
        <pt x="643" y="122" on="0"/>
        <pt x="673" y="102" on="0"/>
        <pt x="727" y="82" on="0"/>
        <pt x="768" y="73" on="1"/>
      </contour>
    </TTGlyph>
    <TTGlyph name="Tcaron" xMin="94" yMin="0" xMax="1193" yMax="1746">
      <component glyphName="T" x="0" y="0" flags="0x0"/>
      <component glyphName="uni030C.LP" x="1035" y="320" flags="0x0"/>
    </TTGlyph>
    <TTGlyph name="Thorn" xMin="-7" yMin="0" xMax="1048" yMax="1260">
      <contour>
        <pt x="670" y="1187" on="1"/>
        <pt x="623" y="1178" on="0"/>
        <pt x="560" y="1162" on="0"/>
        <pt x="522" y="1147" on="0"/>
        <pt x="505" y="1132" on="0"/>
        <pt x="504" y="1125" on="1"/>
        <pt x="489" y="1017" on="1"/>
        <pt x="521" y="1022" on="0"/>
        <pt x="591" y="1028" on="0"/>
        <pt x="629" y="1028" on="1"/>
        <pt x="725" y="1028" on="0"/>
        <pt x="880" y="979" on="0"/>
        <pt x="989" y="890" on="0"/>
        <pt x="1048" y="765" on="0"/>
        <pt x="1048" y="690" on="1"/>
        <pt x="1048" y="603" on="0"/>
        <pt x="980" y="445" on="0"/>
        <pt x="857" y="327" on="0"/>
        <pt x="686" y="257" on="0"/>
        <pt x="584" y="257" on="1"/>
        <pt x="542" y="257" on="0"/>
        <pt x="471" y="273" on="0"/>
        <pt x="443" y="290" on="1"/>
        <pt x="432" y="394" on="1"/>
        <pt x="468" y="375" on="0"/>
        <pt x="536" y="365" on="0"/>
        <pt x="568" y="365" on="1"/>
        <pt x="619" y="365" on="0"/>
        <pt x="707" y="405" on="0"/>
        <pt x="772" y="480" on="0"/>
        <pt x="809" y="586" on="0"/>
        <pt x="809" y="651" on="1"/>
        <pt x="809" y="720" on="0"/>
        <pt x="770" y="821" on="0"/>
        <pt x="704" y="885" on="0"/>
        <pt x="617" y="916" on="0"/>
        <pt x="568" y="916" on="1"/>
        <pt x="545" y="916" on="0"/>
        <pt x="497" y="910" on="0"/>
        <pt x="474" y="905" on="1"/>
        <pt x="370" y="134" on="1"/>
        <pt x="368" y="128" on="0"/>
        <pt x="380" y="114" on="0"/>
        <pt x="414" y="98" on="0"/>
        <pt x="472" y="82" on="0"/>
        <pt x="517" y="73" on="1"/>
        <pt x="508" y="0" on="1"/>
        <pt x="-7" y="0" on="1"/>
        <pt x="3" y="73" on="1"/>
        <pt x="66" y="87" on="0"/>
        <pt x="133" y="120" on="0"/>
        <pt x="135" y="134" on="1"/>
        <pt x="271" y="1125" on="1"/>
        <pt x="273" y="1137" on="0"/>
        <pt x="219" y="1173" on="0"/>
        <pt x="156" y="1187" on="1"/>
        <pt x="165" y="1260" on="1"/>
        <pt x="680" y="1260" on="1"/>
      </contour>
    </TTGlyph>
    <TTGlyph name="U" xMin="161" yMin="-31" xMax="1335" yMax="1260">
      <contour>
        <pt x="1325" y="1187" on="1"/>
        <pt x="1262" y="1173" on="0"/>
        <pt x="1200" y="1139" on="0"/>
        <pt x="1198" y="1125" on="1"/>
        <pt x="1111" y="512" on="1"/>
        <pt x="1093" y="381" on="0"/>
        <pt x="997" y="178" on="0"/>
        <pt x="858" y="40" on="0"/>
        <pt x="682" y="-31" on="0"/>
        <pt x="583" y="-31" on="1"/>
        <pt x="501" y="-31" on="0"/>
        <pt x="353" y="19" on="0"/>
        <pt x="241" y="115" on="0"/>
        <pt x="175" y="256" on="0"/>
        <pt x="175" y="348" on="1"/>
        <pt x="175" y="401" on="0"/>
        <pt x="184" y="463" on="1"/>
        <pt x="278" y="1125" on="1"/>
        <pt x="280" y="1137" on="0"/>
        <pt x="226" y="1173" on="0"/>
        <pt x="161" y="1187" on="1"/>
        <pt x="170" y="1260" on="1"/>
        <pt x="652" y="1260" on="1"/>
        <pt x="642" y="1187" on="1"/>
        <pt x="579" y="1173" on="0"/>
        <pt x="509" y="1139" on="0"/>
        <pt x="507" y="1125" on="1"/>
        <pt x="419" y="510" on="1"/>
        <pt x="415" y="481" on="0"/>
        <pt x="410" y="423" on="0"/>
        <pt x="410" y="397" on="1"/>
        <pt x="410" y="257" on="0"/>
        <pt x="531" y="116" on="0"/>
        <pt x="657" y="116" on="1"/>
        <pt x="722" y="116" on="0"/>
        <pt x="820" y="170" on="0"/>
        <pt x="890" y="265" on="0"/>
        <pt x="933" y="394" on="0"/>
        <pt x="943" y="469" on="1"/>
        <pt x="1035" y="1125" on="1"/>
        <pt x="1036" y="1131" on="0"/>
        <pt x="1025" y="1147" on="0"/>
        <pt x="999" y="1163" on="0"/>
        <pt x="955" y="1180" on="0"/>
        <pt x="923" y="1187" on="1"/>
        <pt x="933" y="1260" on="1"/>
        <pt x="1335" y="1260" on="1"/>
      </contour>
    </TTGlyph>
    <TTGlyph name="Uacute" xMin="161" yMin="-31" xMax="1335" yMax="1731">
      <component glyphName="U" x="0" y="0" flags="0x0"/>
      <component glyphName="acutecomb.LP" x="1123" y="320" flags="0x0"/>
    </TTGlyph>
    <TTGlyph name="Ubreve" xMin="161" yMin="-31" xMax="1335" yMax="1728">
      <component glyphName="U" x="0" y="0" flags="0x0"/>
      <component glyphName="uni0306" x="1150" y="320" flags="0x0"/>
    </TTGlyph>
    <TTGlyph name="Ucircumflex" xMin="161" yMin="-31" xMax="1335" yMax="1707">
      <component glyphName="U" x="0" y="0" flags="0x0"/>
      <component glyphName="uni0302.LP" x="1130" y="320" flags="0x0"/>
    </TTGlyph>
    <TTGlyph name="Udieresis" xMin="161" yMin="-31" xMax="1335" yMax="1652">
      <component glyphName="U" x="0" y="0" flags="0x0"/>
      <component glyphName="uni0308.LP" x="1140" y="320" flags="0x0"/>
    </TTGlyph>
    <TTGlyph name="Ugrave" xMin="161" yMin="-31" xMax="1335" yMax="1731">
      <component glyphName="U" x="0" y="0" flags="0x0"/>
      <component glyphName="gravecomb.LP" x="1045" y="320" flags="0x0"/>
    </TTGlyph>
    <TTGlyph name="Uhorn" xMin="161" yMin="-31" xMax="1540" yMax="1513">
      <contour>
        <pt x="1540" y="1418" on="1"/>
        <pt x="1540" y="1365" on="0"/>
        <pt x="1492" y="1268" on="0"/>
        <pt x="1402" y="1180" on="0"/>
        <pt x="1272" y="1104" on="0"/>
        <pt x="1190" y="1073" on="1"/>
        <pt x="1111" y="512" on="1"/>
        <pt x="1093" y="381" on="0"/>
        <pt x="997" y="178" on="0"/>
        <pt x="858" y="40" on="0"/>
        <pt x="682" y="-31" on="0"/>
        <pt x="583" y="-31" on="1"/>
        <pt x="501" y="-31" on="0"/>
        <pt x="353" y="19" on="0"/>
        <pt x="241" y="115" on="0"/>
        <pt x="175" y="256" on="0"/>
        <pt x="175" y="348" on="1"/>
        <pt x="175" y="401" on="0"/>
        <pt x="184" y="463" on="1"/>
        <pt x="278" y="1125" on="1"/>
        <pt x="280" y="1137" on="0"/>
        <pt x="226" y="1173" on="0"/>
        <pt x="161" y="1187" on="1"/>
        <pt x="170" y="1260" on="1"/>
        <pt x="652" y="1260" on="1"/>
        <pt x="642" y="1187" on="1"/>
        <pt x="579" y="1173" on="0"/>
        <pt x="509" y="1139" on="0"/>
        <pt x="507" y="1125" on="1"/>
        <pt x="419" y="510" on="1"/>
        <pt x="415" y="481" on="0"/>
        <pt x="410" y="423" on="0"/>
        <pt x="410" y="397" on="1"/>
        <pt x="410" y="257" on="0"/>
        <pt x="531" y="116" on="0"/>
        <pt x="657" y="116" on="1"/>
        <pt x="722" y="116" on="0"/>
        <pt x="820" y="170" on="0"/>
        <pt x="890" y="265" on="0"/>
        <pt x="933" y="394" on="0"/>
        <pt x="943" y="469" on="1"/>
        <pt x="1035" y="1125" on="1"/>
        <pt x="1036" y="1131" on="0"/>
        <pt x="1025" y="1147" on="0"/>
        <pt x="999" y="1163" on="0"/>
        <pt x="955" y="1180" on="0"/>
        <pt x="923" y="1187" on="1"/>
        <pt x="933" y="1260" on="1"/>
        <pt x="1301" y="1260" on="1"/>
        <pt x="1314" y="1286" on="0"/>
        <pt x="1314" y="1313" on="1"/>
        <pt x="1314" y="1322" on="0"/>
        <pt x="1308" y="1347" on="0"/>
        <pt x="1296" y="1372" on="0"/>
        <pt x="1276" y="1395" on="0"/>
        <pt x="1261" y="1403" on="1"/>
        <pt x="1489" y="1513" on="1"/>
        <pt x="1514" y="1498" on="0"/>
        <pt x="1540" y="1440" on="0"/>
      </contour>
    </TTGlyph>
    <TTGlyph name="Uhungarumlaut" xMin="161" yMin="-31" xMax="1335" yMax="1787">
      <component glyphName="U" x="0" y="0" flags="0x0"/>
      <component glyphName="uni030B" x="1131" y="320" flags="0x0"/>
    </TTGlyph>
    <TTGlyph name="Umacron" xMin="161" yMin="-31" xMax="1335" yMax="1600">
      <component glyphName="U" x="0" y="0" flags="0x0"/>
      <component glyphName="uni0304.LP" x="1135" y="320" flags="0x0"/>
    </TTGlyph>
    <TTGlyph name="Uring" xMin="161" yMin="-31" xMax="1335" yMax="1773">
      <component glyphName="U" x="0" y="0" flags="0x0"/>
      <component glyphName="uni030A" x="1124" y="320" flags="0x0"/>
    </TTGlyph>
    <TTGlyph name="Utilde" xMin="161" yMin="-31" xMax="1335" yMax="1661">
      <component glyphName="U" x="0" y="0" flags="0x0"/>
      <component glyphName="tildecomb.LP" x="1125" y="320" flags="0x0"/>
    </TTGlyph>
    <TTGlyph name="V" xMin="124" yMin="-30" xMax="1352" yMax="1260">
      <contour>
        <pt x="1342" y="1187" on="1"/>
        <pt x="1276" y="1174" on="0"/>
        <pt x="1202" y="1149" on="0"/>
        <pt x="1189" y="1121" on="1"/>
        <pt x="699" y="82" on="1"/>
        <pt x="689" y="60" on="0"/>
        <pt x="642" y="24" on="0"/>
        <pt x="585" y="-5" on="0"/>
        <pt x="526" y="-24" on="0"/>
        <pt x="502" y="-30" on="1"/>
        <pt x="239" y="1121" on="1"/>
        <pt x="233" y="1147" on="0"/>
        <pt x="182" y="1179" on="0"/>
        <pt x="124" y="1187" on="1"/>
        <pt x="134" y="1260" on="1"/>
        <pt x="607" y="1260" on="1"/>
        <pt x="597" y="1187" on="1"/>
        <pt x="523" y="1181" on="0"/>
        <pt x="470" y="1151" on="0"/>
        <pt x="477" y="1123" on="1"/>
        <pt x="661" y="284" on="1"/>
        <pt x="1052" y="1121" on="1"/>
        <pt x="1065" y="1150" on="0"/>
        <pt x="1017" y="1177" on="0"/>
        <pt x="943" y="1187" on="1"/>
        <pt x="953" y="1260" on="1"/>
        <pt x="1352" y="1260" on="1"/>
      </contour>
    </TTGlyph>
    <TTGlyph name="W" xMin="114" yMin="-30" xMax="1708" yMax="1260">
      <contour>
        <pt x="1699" y="1187" on="1"/>
        <pt x="1620" y="1170" on="0"/>
        <pt x="1554" y="1143" on="0"/>
        <pt x="1548" y="1125" on="1"/>
        <pt x="1191" y="59" on="1"/>
        <pt x="1183" y="38" on="0"/>
        <pt x="1146" y="7" on="0"/>
        <pt x="1101" y="-14" on="0"/>
        <pt x="1057" y="-27" on="0"/>
        <pt x="1042" y="-30" on="1"/>
        <pt x="850" y="877" on="1"/>
        <pt x="473" y="59" on="1"/>
        <pt x="464" y="37" on="0"/>
        <pt x="425" y="7" on="0"/>
        <pt x="379" y="-13" on="0"/>
        <pt x="333" y="-26" on="0"/>
        <pt x="315" y="-30" on="1"/>
        <pt x="232" y="1117" on="1"/>
        <pt x="230" y="1142" on="0"/>
        <pt x="178" y="1174" on="0"/>
        <pt x="114" y="1187" on="1"/>
        <pt x="124" y="1260" on="1"/>
        <pt x="576" y="1260" on="1"/>
        <pt x="567" y="1187" on="1"/>
        <pt x="521" y="1182" on="0"/>
        <pt x="469" y="1167" on="0"/>
        <pt x="443" y="1149" on="0"/>
        <pt x="437" y="1128" on="0"/>
        <pt x="438" y="1117" on="1"/>
        <pt x="495" y="386" on="1"/>
        <pt x="886" y="1260" on="1"/>
        <pt x="980" y="1260" on="1"/>
        <pt x="1169" y="386" on="1"/>
        <pt x="1419" y="1125" on="1"/>
        <pt x="1423" y="1137" on="0"/>
        <pt x="1405" y="1155" on="0"/>
        <pt x="1369" y="1169" on="0"/>
        <pt x="1317" y="1181" on="0"/>
        <pt x="1286" y="1187" on="1"/>
        <pt x="1295" y="1260" on="1"/>
        <pt x="1708" y="1260" on="1"/>
      </contour>
    </TTGlyph>
    <TTGlyph name="Wacute" xMin="114" yMin="-30" xMax="1708" yMax="1731">
      <component glyphName="W" x="0" y="0" flags="0x0"/>
      <component glyphName="acutecomb.LP" x="1286" y="320" flags="0x0"/>
    </TTGlyph>
    <TTGlyph name="Wcircumflex" xMin="114" yMin="-30" xMax="1708" yMax="1707">
      <component glyphName="W" x="0" y="0" flags="0x0"/>
      <component glyphName="uni0302.LP" x="1293" y="320" flags="0x0"/>
    </TTGlyph>
    <TTGlyph name="Wdieresis" xMin="114" yMin="-30" xMax="1708" yMax="1652">
      <component glyphName="W" x="0" y="0" flags="0x0"/>
      <component glyphName="uni0308.LP" x="1303" y="320" flags="0x0"/>
    </TTGlyph>
    <TTGlyph name="Wgrave" xMin="114" yMin="-30" xMax="1708" yMax="1731">
      <component glyphName="W" x="0" y="0" flags="0x0"/>
      <component glyphName="gravecomb.LP" x="1208" y="320" flags="0x0"/>
    </TTGlyph>
    <TTGlyph name="X" xMin="-35" yMin="0" xMax="1243" yMax="1260">
      <contour>
        <pt x="1118" y="0" on="1"/>
        <pt x="625" y="0" on="1"/>
        <pt x="634" y="73" on="1"/>
        <pt x="676" y="77" on="0"/>
        <pt x="728" y="90" on="0"/>
        <pt x="753" y="109" on="0"/>
        <pt x="752" y="137" on="0"/>
        <pt x="742" y="157" on="1"/>
        <pt x="569" y="503" on="1"/>
        <pt x="310" y="157" on="1"/>
        <pt x="293" y="135" on="0"/>
        <pt x="283" y="106" on="0"/>
        <pt x="301" y="87" on="0"/>
        <pt x="349" y="76" on="0"/>
        <pt x="391" y="73" on="1"/>
        <pt x="381" y="0" on="1"/>
        <pt x="-35" y="0" on="1"/>
        <pt x="-25" y="73" on="1"/>
        <pt x="36" y="78" on="0"/>
        <pt x="124" y="117" on="0"/>
        <pt x="154" y="157" on="1"/>
        <pt x="506" y="631" on="1"/>
        <pt x="271" y="1103" on="1"/>
        <pt x="259" y="1125" on="0"/>
        <pt x="237" y="1153" on="0"/>
        <pt x="208" y="1171" on="0"/>
        <pt x="167" y="1182" on="0"/>
        <pt x="137" y="1187" on="1"/>
        <pt x="147" y="1260" on="1"/>
        <pt x="648" y="1260" on="1"/>
        <pt x="638" y="1187" on="1"/>
        <pt x="558" y="1179" on="0"/>
        <pt x="505" y="1146" on="0"/>
        <pt x="527" y="1103" on="1"/>
        <pt x="678" y="799" on="1"/>
        <pt x="896" y="1103" on="1"/>
        <pt x="912" y="1126" on="0"/>
        <pt x="921" y="1155" on="0"/>
        <pt x="903" y="1174" on="0"/>
        <pt x="854" y="1184" on="0"/>
        <pt x="814" y="1187" on="1"/>
        <pt x="824" y="1260" on="1"/>
        <pt x="1243" y="1260" on="1"/>
        <pt x="1233" y="1187" on="1"/>
        <pt x="1199" y="1183" on="0"/>
        <pt x="1145" y="1171" on="0"/>
        <pt x="1102" y="1152" on="0"/>
        <pt x="1067" y="1124" on="0"/>
        <pt x="1052" y="1103" on="1"/>
        <pt x="740" y="676" on="1"/>
        <pt x="1000" y="157" on="1"/>
        <pt x="1010" y="136" on="0"/>
        <pt x="1033" y="107" on="0"/>
        <pt x="1063" y="88" on="0"/>
        <pt x="1101" y="77" on="0"/>
        <pt x="1128" y="73" on="1"/>
      </contour>
    </TTGlyph>
    <TTGlyph name="Y" xMin="119" yMin="0" xMax="1262" yMax="1272">
      <contour>
        <pt x="802" y="0" on="1"/>
        <pt x="279" y="0" on="1"/>
        <pt x="289" y="73" on="1"/>
        <pt x="332" y="82" on="0"/>
        <pt x="390" y="102" on="0"/>
        <pt x="426" y="121" on="0"/>
        <pt x="442" y="138" on="0"/>
        <pt x="443" y="145" on="1"/>
        <pt x="496" y="533" on="1"/>
        <pt x="475" y="611" on="0"/>
        <pt x="416" y="778" on="0"/>
        <pt x="352" y="937" on="0"/>
        <pt x="287" y="1074" on="0"/>
        <pt x="259" y="1122" on="1"/>
        <pt x="252" y="1134" on="0"/>
        <pt x="235" y="1151" on="0"/>
        <pt x="205" y="1162" on="0"/>
        <pt x="157" y="1166" on="0"/>
        <pt x="119" y="1165" on="1"/>
        <pt x="122" y="1238" on="1"/>
        <pt x="150" y="1243" on="0"/>
        <pt x="223" y="1255" on="0"/>
        <pt x="295" y="1265" on="0"/>
        <pt x="359" y="1272" on="0"/>
        <pt x="378" y="1272" on="1"/>
        <pt x="401" y="1272" on="0"/>
        <pt x="449" y="1248" on="0"/>
        <pt x="462" y="1225" on="1"/>
        <pt x="490" y="1175" on="0"/>
        <pt x="552" y="1042" on="0"/>
        <pt x="611" y="895" on="0"/>
        <pt x="663" y="744" on="0"/>
        <pt x="683" y="678" on="1"/>
        <pt x="960" y="1121" on="1"/>
        <pt x="977" y="1148" on="0"/>
        <pt x="935" y="1177" on="0"/>
        <pt x="865" y="1187" on="1"/>
        <pt x="875" y="1260" on="1"/>
        <pt x="1262" y="1260" on="1"/>
        <pt x="1252" y="1187" on="1"/>
        <pt x="1220" y="1181" on="0"/>
        <pt x="1172" y="1168" on="0"/>
        <pt x="1138" y="1153" on="0"/>
        <pt x="1114" y="1134" on="0"/>
        <pt x="1106" y="1121" on="1"/>
        <pt x="727" y="523" on="1"/>
        <pt x="675" y="145" on="1"/>
        <pt x="674" y="139" on="0"/>
        <pt x="685" y="122" on="0"/>
        <pt x="716" y="102" on="0"/>
        <pt x="770" y="82" on="0"/>
        <pt x="812" y="73" on="1"/>
      </contour>
    </TTGlyph>
    <TTGlyph name="Yacute" xMin="119" yMin="0" xMax="1262" yMax="1731">
      <component glyphName="Y" x="0" y="0" flags="0x0"/>
      <component glyphName="acutecomb.LP" x="1069" y="320" flags="0x0"/>
    </TTGlyph>
    <TTGlyph name="Ycircumflex" xMin="119" yMin="0" xMax="1262" yMax="1707">
      <component glyphName="Y" x="0" y="0" flags="0x0"/>
      <component glyphName="uni0302.LP" x="1076" y="320" flags="0x0"/>
    </TTGlyph>
    <TTGlyph name="Ydieresis" xMin="119" yMin="0" xMax="1262" yMax="1652">
      <component glyphName="Y" x="0" y="0" flags="0x0"/>
      <component glyphName="uni0308.LP" x="1086" y="320" flags="0x0"/>
    </TTGlyph>
    <TTGlyph name="Ygrave" xMin="119" yMin="0" xMax="1262" yMax="1731">
      <component glyphName="Y" x="0" y="0" flags="0x0"/>
      <component glyphName="gravecomb.LP" x="991" y="320" flags="0x0"/>
    </TTGlyph>
    <TTGlyph name="Z" xMin="16" yMin="0" xMax="1081" yMax="1279">
      <contour>
        <pt x="319" y="130" on="1"/>
        <pt x="743" y="130" on="1"/>
        <pt x="763" y="130" on="0"/>
        <pt x="799" y="160" on="0"/>
        <pt x="836" y="222" on="0"/>
        <pt x="878" y="315" on="0"/>
        <pt x="904" y="377" on="1"/>
        <pt x="981" y="356" on="1"/>
        <pt x="975" y="323" on="0"/>
        <pt x="958" y="226" on="0"/>
        <pt x="941" y="123" on="0"/>
        <pt x="925" y="29" on="0"/>
        <pt x="921" y="0" on="1"/>
        <pt x="42" y="0" on="1"/>
        <pt x="16" y="53" on="1"/>
        <pt x="784" y="1132" on="1"/>
        <pt x="421" y="1132" on="1"/>
        <pt x="406" y="1132" on="0"/>
        <pt x="364" y="1098" on="0"/>
        <pt x="318" y="1036" on="0"/>
        <pt x="274" y="949" on="0"/>
        <pt x="256" y="896" on="1"/>
        <pt x="178" y="915" on="1"/>
        <pt x="262" y="1279" on="1"/>
        <pt x="287" y="1272" on="0"/>
        <pt x="327" y="1264" on="0"/>
        <pt x="366" y="1261" on="0"/>
        <pt x="409" y="1260" on="0"/>
        <pt x="436" y="1260" on="1"/>
        <pt x="1058" y="1260" on="1"/>
        <pt x="1081" y="1209" on="1"/>
      </contour>
    </TTGlyph>
    <TTGlyph name="Zacute" xMin="16" yMin="0" xMax="1081" yMax="1731">
      <component glyphName="Z" x="0" y="0" flags="0x0"/>
      <component glyphName="acutecomb.LP" x="1006" y="320" flags="0x0"/>
    </TTGlyph>
    <TTGlyph name="Zcaron" xMin="16" yMin="0" xMax="1081" yMax="1746">
      <component glyphName="Z" x="0" y="0" flags="0x0"/>
      <component glyphName="uni030C.LP" x="1018" y="320" flags="0x0"/>
    </TTGlyph>
    <TTGlyph name="Zdotaccent" xMin="16" yMin="0" xMax="1081" yMax="1652">
      <component glyphName="Z" x="0" y="0" flags="0x0"/>
      <component glyphName="uni0307.LP" x="1009" y="320" flags="0x0"/>
    </TTGlyph>
    <TTGlyph name="a" xMin="38" yMin="-41" xMax="980" yMax="936">
      <contour>
        <pt x="583" y="378" on="1"/>
        <pt x="589" y="420" on="0"/>
        <pt x="604" y="516" on="0"/>
        <pt x="619" y="609" on="0"/>
        <pt x="633" y="694" on="0"/>
        <pt x="639" y="725" on="1"/>
        <pt x="610" y="752" on="0"/>
        <pt x="546" y="794" on="0"/>
        <pt x="515" y="794" on="1"/>
        <pt x="473" y="793" on="0"/>
        <pt x="403" y="753" on="0"/>
        <pt x="348" y="687" on="0"/>
        <pt x="306" y="602" on="0"/>
        <pt x="279" y="510" on="0"/>
        <pt x="265" y="419" on="0"/>
        <pt x="265" y="379" on="1"/>
        <pt x="265" y="323" on="0"/>
        <pt x="281" y="239" on="0"/>
        <pt x="308" y="184" on="0"/>
        <pt x="343" y="156" on="0"/>
        <pt x="362" y="156" on="1"/>
        <pt x="394" y="156" on="0"/>
        <pt x="510" y="270" on="0"/>
      </contour>
      <contour>
        <pt x="980" y="106" on="1"/>
        <pt x="938" y="76" on="0"/>
        <pt x="855" y="23" on="0"/>
        <pt x="783" y="-18" on="0"/>
        <pt x="726" y="-41" on="0"/>
        <pt x="708" y="-41" on="1"/>
        <pt x="691" y="-41" on="0"/>
        <pt x="648" y="-19" on="0"/>
        <pt x="609" y="36" on="0"/>
        <pt x="578" y="128" on="0"/>
        <pt x="573" y="198" on="1"/>
        <pt x="541" y="154" on="0"/>
        <pt x="468" y="68" on="0"/>
        <pt x="389" y="0" on="0"/>
        <pt x="306" y="-41" on="0"/>
        <pt x="266" y="-41" on="1"/>
        <pt x="230" y="-41" on="0"/>
        <pt x="150" y="-3" on="0"/>
        <pt x="83" y="80" on="0"/>
        <pt x="38" y="211" on="0"/>
        <pt x="38" y="305" on="1"/>
        <pt x="38" y="384" on="0"/>
        <pt x="78" y="535" on="0"/>
        <pt x="154" y="673" on="0"/>
        <pt x="264" y="794" on="0"/>
        <pt x="335" y="842" on="1"/>
        <pt x="362" y="860" on="0"/>
        <pt x="428" y="894" on="0"/>
        <pt x="502" y="920" on="0"/>
        <pt x="583" y="936" on="0"/>
        <pt x="625" y="936" on="1"/>
        <pt x="667" y="936" on="0"/>
        <pt x="748" y="898" on="0"/>
        <pt x="783" y="876" on="1"/>
        <pt x="817" y="893" on="0"/>
        <pt x="885" y="922" on="0"/>
        <pt x="912" y="936" on="1"/>
        <pt x="943" y="871" on="1"/>
        <pt x="926" y="857" on="0"/>
        <pt x="904" y="835" on="0"/>
        <pt x="887" y="806" on="0"/>
        <pt x="875" y="764" on="0"/>
        <pt x="868" y="730" on="1"/>
        <pt x="853" y="658" on="0"/>
        <pt x="829" y="523" on="0"/>
        <pt x="812" y="410" on="0"/>
        <pt x="804" y="324" on="0"/>
        <pt x="804" y="302" on="1"/>
        <pt x="804" y="233" on="0"/>
        <pt x="834" y="144" on="0"/>
        <pt x="857" y="144" on="1"/>
        <pt x="877" y="144" on="0"/>
        <pt x="924" y="155" on="0"/>
        <pt x="964" y="172" on="1"/>
      </contour>
    </TTGlyph>
    <TTGlyph name="a.SngStory" xMin="38" yMin="-41" xMax="980" yMax="936">
      <contour>
        <pt x="583" y="378" on="1"/>
        <pt x="589" y="420" on="0"/>
        <pt x="604" y="516" on="0"/>
        <pt x="619" y="609" on="0"/>
        <pt x="633" y="694" on="0"/>
        <pt x="639" y="725" on="1"/>
        <pt x="610" y="752" on="0"/>
        <pt x="546" y="794" on="0"/>
        <pt x="515" y="794" on="1"/>
        <pt x="473" y="793" on="0"/>
        <pt x="403" y="753" on="0"/>
        <pt x="348" y="687" on="0"/>
        <pt x="306" y="602" on="0"/>
        <pt x="279" y="510" on="0"/>
        <pt x="265" y="419" on="0"/>
        <pt x="265" y="379" on="1"/>
        <pt x="265" y="323" on="0"/>
        <pt x="281" y="239" on="0"/>
        <pt x="308" y="184" on="0"/>
        <pt x="343" y="156" on="0"/>
        <pt x="362" y="156" on="1"/>
        <pt x="394" y="156" on="0"/>
        <pt x="510" y="270" on="0"/>
      </contour>
      <contour>
        <pt x="980" y="106" on="1"/>
        <pt x="938" y="76" on="0"/>
        <pt x="855" y="23" on="0"/>
        <pt x="783" y="-18" on="0"/>
        <pt x="726" y="-41" on="0"/>
        <pt x="708" y="-41" on="1"/>
        <pt x="691" y="-41" on="0"/>
        <pt x="648" y="-19" on="0"/>
        <pt x="609" y="36" on="0"/>
        <pt x="578" y="128" on="0"/>
        <pt x="573" y="198" on="1"/>
        <pt x="541" y="154" on="0"/>
        <pt x="468" y="68" on="0"/>
        <pt x="389" y="0" on="0"/>
        <pt x="306" y="-41" on="0"/>
        <pt x="266" y="-41" on="1"/>
        <pt x="230" y="-41" on="0"/>
        <pt x="150" y="-3" on="0"/>
        <pt x="83" y="80" on="0"/>
        <pt x="38" y="211" on="0"/>
        <pt x="38" y="305" on="1"/>
        <pt x="38" y="384" on="0"/>
        <pt x="78" y="535" on="0"/>
        <pt x="154" y="673" on="0"/>
        <pt x="264" y="794" on="0"/>
        <pt x="335" y="842" on="1"/>
        <pt x="362" y="860" on="0"/>
        <pt x="428" y="894" on="0"/>
        <pt x="502" y="920" on="0"/>
        <pt x="583" y="936" on="0"/>
        <pt x="625" y="936" on="1"/>
        <pt x="667" y="936" on="0"/>
        <pt x="748" y="898" on="0"/>
        <pt x="783" y="876" on="1"/>
        <pt x="817" y="893" on="0"/>
        <pt x="885" y="922" on="0"/>
        <pt x="912" y="936" on="1"/>
        <pt x="943" y="871" on="1"/>
        <pt x="926" y="857" on="0"/>
        <pt x="904" y="835" on="0"/>
        <pt x="887" y="806" on="0"/>
        <pt x="875" y="764" on="0"/>
        <pt x="868" y="730" on="1"/>
        <pt x="853" y="658" on="0"/>
        <pt x="829" y="523" on="0"/>
        <pt x="812" y="410" on="0"/>
        <pt x="804" y="324" on="0"/>
        <pt x="804" y="302" on="1"/>
        <pt x="804" y="233" on="0"/>
        <pt x="834" y="144" on="0"/>
        <pt x="857" y="144" on="1"/>
        <pt x="877" y="144" on="0"/>
        <pt x="924" y="155" on="0"/>
        <pt x="964" y="172" on="1"/>
      </contour>
    </TTGlyph>
    <TTGlyph name="aacute" xMin="38" yMin="-41" xMax="980" yMax="1467">
      <component glyphName="a" x="0" y="0" flags="0x0"/>
      <component glyphName="acutecomb" x="935" y="0" flags="0x0"/>
    </TTGlyph>
    <TTGlyph name="aacute.SngStory" xMin="38" yMin="-41" xMax="980" yMax="1467">
      <component glyphName="a.SngStory" x="0" y="0" flags="0x0"/>
      <component glyphName="acutecomb" x="935" y="0" flags="0x0"/>
    </TTGlyph>
    <TTGlyph name="abreve" xMin="38" yMin="-41" xMax="980" yMax="1408">
      <component glyphName="a" x="0" y="0" flags="0x0"/>
      <component glyphName="uni0306" x="962" y="0" flags="0x0"/>
    </TTGlyph>
    <TTGlyph name="abreve.SngStory" xMin="38" yMin="-41" xMax="980" yMax="1408">
      <component glyphName="a.SngStory" x="0" y="0" flags="0x0"/>
      <component glyphName="uni0306" x="962" y="0" flags="0x0"/>
    </TTGlyph>
    <TTGlyph name="acircumflex" xMin="38" yMin="-41" xMax="980" yMax="1457">
      <component glyphName="a" x="0" y="0" flags="0x0"/>
      <component glyphName="uni0302" x="949" y="0" flags="0x0"/>
    </TTGlyph>
    <TTGlyph name="acircumflex.SngStory" xMin="38" yMin="-41" xMax="980" yMax="1457">
      <component glyphName="a.SngStory" x="0" y="0" flags="0x0"/>
      <component glyphName="uni0302" x="949" y="0" flags="0x0"/>
    </TTGlyph>
    <TTGlyph name="acute" xMin="162" yMin="1019" xMax="607" yMax="1467">
      <contour>
        <pt x="607" y="1367" on="1"/>
        <pt x="229" y="1019" on="1"/>
        <pt x="213" y="1023" on="0"/>
        <pt x="176" y="1052" on="0"/>
        <pt x="162" y="1069" on="1"/>
        <pt x="396" y="1467" on="1"/>
        <pt x="434" y="1460" on="1"/>
        <pt x="462" y="1455" on="0"/>
        <pt x="522" y="1443" on="0"/>
        <pt x="575" y="1430" on="0"/>
        <pt x="584" y="1427" on="1"/>
      </contour>
    </TTGlyph>
    <TTGlyph name="acutecomb" xMin="-423" yMin="1019" xMax="22" yMax="1467">
      <contour>
        <pt x="22" y="1367" on="1"/>
        <pt x="-356" y="1019" on="1"/>
        <pt x="-372" y="1023" on="0"/>
        <pt x="-409" y="1052" on="0"/>
        <pt x="-423" y="1069" on="1"/>
        <pt x="-189" y="1467" on="1"/>
        <pt x="-150" y="1460" on="1"/>
        <pt x="-123" y="1455" on="0"/>
        <pt x="-63" y="1443" on="0"/>
        <pt x="-10" y="1430" on="0"/>
        <pt x="-1" y="1427" on="1"/>
      </contour>
    </TTGlyph>
    <TTGlyph name="acutecomb.LP" xMin="-512" yMin="1019" xMax="7" yMax="1411">
      <contour>
        <pt x="7" y="1255" on="1"/>
        <pt x="-464" y="1019" on="1"/>
        <pt x="-478" y="1028" on="0"/>
        <pt x="-503" y="1068" on="0"/>
        <pt x="-512" y="1088" on="1"/>
        <pt x="-158" y="1411" on="1"/>
        <pt x="-139" y="1401" on="0"/>
        <pt x="-92" y="1376" on="0"/>
        <pt x="-46" y="1350" on="0"/>
        <pt x="-6" y="1326" on="0"/>
        <pt x="7" y="1317" on="1"/>
      </contour>
    </TTGlyph>
    <TTGlyph name="adieresis" xMin="38" yMin="-41" xMax="980" yMax="1371">
      <component glyphName="a" x="0" y="0" flags="0x0"/>
      <component glyphName="uni0308" x="960" y="0" flags="0x0"/>
    </TTGlyph>
    <TTGlyph name="adieresis.SngStory" xMin="38" yMin="-41" xMax="980" yMax="1371">
      <component glyphName="a.SngStory" x="0" y="0" flags="0x0"/>
      <component glyphName="uni0308" x="960" y="0" flags="0x0"/>
    </TTGlyph>
    <TTGlyph name="ae" xMin="8" yMin="-41" xMax="1315" yMax="936">
      <contour>
        <pt x="892" y="737" on="1"/>
        <pt x="837" y="677" on="0"/>
        <pt x="779" y="525" on="0"/>
        <pt x="772" y="434" on="1"/>
        <pt x="871" y="477" on="0"/>
        <pt x="990" y="550" on="0"/>
        <pt x="1053" y="616" on="0"/>
        <pt x="1073" y="680" on="0"/>
        <pt x="1073" y="715" on="1"/>
        <pt x="1073" y="756" on="0"/>
        <pt x="1028" y="801" on="0"/>
        <pt x="999" y="801" on="1"/>
        <pt x="981" y="801" on="0"/>
        <pt x="919" y="766" on="0"/>
      </contour>
      <contour>
        <pt x="559" y="376" on="1"/>
        <pt x="560" y="384" on="0"/>
        <pt x="562" y="402" on="0"/>
        <pt x="564" y="410" on="1"/>
        <pt x="570" y="448" on="0"/>
        <pt x="583" y="533" on="0"/>
        <pt x="596" y="617" on="0"/>
        <pt x="607" y="692" on="0"/>
        <pt x="612" y="719" on="1"/>
        <pt x="581" y="748" on="0"/>
        <pt x="514" y="794" on="0"/>
        <pt x="482" y="794" on="1"/>
        <pt x="440" y="794" on="0"/>
        <pt x="370" y="754" on="0"/>
        <pt x="314" y="689" on="0"/>
        <pt x="271" y="603" on="0"/>
        <pt x="242" y="511" on="0"/>
        <pt x="228" y="418" on="0"/>
        <pt x="228" y="379" on="1"/>
        <pt x="228" y="320" on="0"/>
        <pt x="246" y="236" on="0"/>
        <pt x="276" y="182" on="0"/>
        <pt x="312" y="156" on="0"/>
        <pt x="330" y="156" on="1"/>
        <pt x="360" y="156" on="0"/>
        <pt x="481" y="270" on="0"/>
      </contour>
      <contour>
        <pt x="870" y="894" on="1"/>
        <pt x="856" y="883" on="0"/>
        <pt x="836" y="866" on="0"/>
        <pt x="819" y="848" on="0"/>
        <pt x="805" y="825" on="0"/>
        <pt x="799" y="808" on="1"/>
        <pt x="810" y="818" on="0"/>
        <pt x="833" y="837" on="0"/>
        <pt x="845" y="846" on="1"/>
        <pt x="869" y="864" on="0"/>
        <pt x="932" y="897" on="0"/>
        <pt x="1001" y="922" on="0"/>
        <pt x="1071" y="936" on="0"/>
        <pt x="1102" y="936" on="1"/>
        <pt x="1154" y="936" on="0"/>
        <pt x="1233" y="905" on="0"/>
        <pt x="1287" y="855" on="0"/>
        <pt x="1315" y="792" on="0"/>
        <pt x="1315" y="760" on="1"/>
        <pt x="1315" y="732" on="0"/>
        <pt x="1303" y="669" on="0"/>
        <pt x="1264" y="601" on="0"/>
        <pt x="1191" y="527" on="0"/>
        <pt x="1071" y="448" on="0"/>
        <pt x="895" y="363" on="0"/>
        <pt x="773" y="318" on="1"/>
        <pt x="779" y="267" on="0"/>
        <pt x="811" y="191" on="0"/>
        <pt x="853" y="140" on="0"/>
        <pt x="899" y="114" on="0"/>
        <pt x="920" y="114" on="1"/>
        <pt x="963" y="114" on="0"/>
        <pt x="1125" y="192" on="0"/>
        <pt x="1247" y="289" on="1"/>
        <pt x="1252" y="286" on="0"/>
        <pt x="1266" y="266" on="0"/>
        <pt x="1279" y="243" on="0"/>
        <pt x="1290" y="222" on="0"/>
        <pt x="1292" y="218" on="1"/>
        <pt x="1209" y="147" on="0"/>
        <pt x="1072" y="48" on="0"/>
        <pt x="958" y="-14" on="0"/>
        <pt x="865" y="-41" on="0"/>
        <pt x="825" y="-41" on="1"/>
        <pt x="794" y="-41" on="0"/>
        <pt x="714" y="-13" on="0"/>
        <pt x="637" y="48" on="0"/>
        <pt x="575" y="145" on="0"/>
        <pt x="562" y="214" on="1"/>
        <pt x="526" y="162" on="0"/>
        <pt x="444" y="70" on="0"/>
        <pt x="358" y="0" on="0"/>
        <pt x="272" y="-41" on="0"/>
        <pt x="232" y="-41" on="1"/>
        <pt x="198" y="-41" on="0"/>
        <pt x="120" y="-3" on="0"/>
        <pt x="53" y="80" on="0"/>
        <pt x="8" y="211" on="0"/>
        <pt x="8" y="305" on="1"/>
        <pt x="8" y="384" on="0"/>
        <pt x="47" y="535" on="0"/>
        <pt x="122" y="673" on="0"/>
        <pt x="232" y="794" on="0"/>
        <pt x="304" y="842" on="1"/>
        <pt x="331" y="860" on="0"/>
        <pt x="396" y="894" on="0"/>
        <pt x="470" y="920" on="0"/>
        <pt x="550" y="936" on="0"/>
        <pt x="592" y="936" on="1"/>
        <pt x="632" y="936" on="0"/>
        <pt x="698" y="907" on="0"/>
        <pt x="725" y="890" on="1"/>
        <pt x="745" y="902" on="0"/>
        <pt x="795" y="925" on="0"/>
        <pt x="827" y="936" on="1"/>
      </contour>
    </TTGlyph>
    <TTGlyph name="aeacute" xMin="8" yMin="-41" xMax="1315" yMax="1467">
      <component glyphName="ae" x="0" y="0" flags="0x0"/>
      <component glyphName="acutecomb" x="1103" y="0" flags="0x0"/>
    </TTGlyph>
    <TTGlyph name="agrave" xMin="38" yMin="-41" xMax="980" yMax="1467">
      <component glyphName="a" x="0" y="0" flags="0x0"/>
      <component glyphName="gravecomb" x="857" y="0" flags="0x0"/>
    </TTGlyph>
    <TTGlyph name="agrave.SngStory" xMin="38" yMin="-41" xMax="980" yMax="1467">
      <component glyphName="a.SngStory" x="0" y="0" flags="0x0"/>
      <component glyphName="gravecomb" x="857" y="0" flags="0x0"/>
    </TTGlyph>
    <TTGlyph name="amacron" xMin="38" yMin="-41" xMax="1028" yMax="1313">
      <component glyphName="a" x="0" y="0" flags="0x0"/>
      <component glyphName="uni0304" x="947" y="0" flags="0x0"/>
    </TTGlyph>
    <TTGlyph name="amacron.SngStory" xMin="38" yMin="-41" xMax="1028" yMax="1313">
      <component glyphName="a.SngStory" x="0" y="0" flags="0x0"/>
      <component glyphName="uni0304" x="947" y="0" flags="0x0"/>
    </TTGlyph>
    <TTGlyph name="ampersand" xMin="55" yMin="-30" xMax="1369" yMax="1450">
      <contour>
        <pt x="576" y="1130" on="1"/>
        <pt x="568" y="1078" on="0"/>
        <pt x="579" y="967" on="0"/>
        <pt x="595" y="908" on="1"/>
        <pt x="643" y="937" on="0"/>
        <pt x="710" y="1002" on="0"/>
        <pt x="755" y="1069" on="0"/>
        <pt x="779" y="1137" on="0"/>
        <pt x="784" y="1169" on="1"/>
        <pt x="795" y="1240" on="0"/>
        <pt x="746" y="1321" on="0"/>
        <pt x="701" y="1321" on="1"/>
        <pt x="675" y="1321" on="0"/>
        <pt x="633" y="1291" on="0"/>
        <pt x="602" y="1239" on="0"/>
        <pt x="582" y="1169" on="0"/>
      </contour>
      <contour>
        <pt x="507" y="114" on="1"/>
        <pt x="560" y="114" on="0"/>
        <pt x="661" y="147" on="0"/>
        <pt x="709" y="176" on="1"/>
        <pt x="672" y="221" on="0"/>
        <pt x="596" y="327" on="0"/>
        <pt x="525" y="443" on="0"/>
        <pt x="460" y="567" on="0"/>
        <pt x="434" y="632" on="1"/>
        <pt x="375" y="569" on="0"/>
        <pt x="320" y="445" on="0"/>
        <pt x="310" y="376" on="1"/>
        <pt x="301" y="306" on="0"/>
        <pt x="329" y="206" on="0"/>
        <pt x="387" y="143" on="0"/>
        <pt x="466" y="114" on="0"/>
      </contour>
      <contour>
        <pt x="1369" y="748" on="1"/>
        <pt x="1356" y="733" on="0"/>
        <pt x="1324" y="696" on="0"/>
        <pt x="1291" y="661" on="0"/>
        <pt x="1260" y="631" on="0"/>
        <pt x="1248" y="622" on="1"/>
        <pt x="1216" y="639" on="0"/>
        <pt x="1140" y="668" on="0"/>
        <pt x="1109" y="670" on="1"/>
        <pt x="1124" y="641" on="0"/>
        <pt x="1127" y="577" on="0"/>
        <pt x="1122" y="538" on="1"/>
        <pt x="1113" y="472" on="0"/>
        <pt x="1038" y="324" on="0"/>
        <pt x="978" y="253" on="1"/>
        <pt x="994" y="235" on="0"/>
        <pt x="1025" y="201" on="0"/>
        <pt x="1040" y="186" on="1"/>
        <pt x="1082" y="143" on="0"/>
        <pt x="1181" y="121" on="0"/>
        <pt x="1229" y="133" on="1"/>
        <pt x="1234" y="60" on="1"/>
        <pt x="1192" y="41" on="0"/>
        <pt x="1100" y="8" on="0"/>
        <pt x="1019" y="-16" on="0"/>
        <pt x="959" y="-30" on="0"/>
        <pt x="949" y="-30" on="1"/>
        <pt x="926" y="-30" on="0"/>
        <pt x="842" y="31" on="0"/>
        <pt x="789" y="86" on="1"/>
        <pt x="709" y="33" on="0"/>
        <pt x="529" y="-30" on="0"/>
        <pt x="432" y="-30" on="1"/>
        <pt x="335" y="-30" on="0"/>
        <pt x="187" y="20" on="0"/>
        <pt x="92" y="117" on="0"/>
        <pt x="55" y="261" on="0"/>
        <pt x="68" y="355" on="1"/>
        <pt x="82" y="461" on="0"/>
        <pt x="236" y="671" on="0"/>
        <pt x="385" y="777" on="1"/>
        <pt x="365" y="853" on="0"/>
        <pt x="350" y="1001" on="0"/>
        <pt x="360" y="1073" on="1"/>
        <pt x="371" y="1154" on="0"/>
        <pt x="447" y="1292" on="0"/>
        <pt x="560" y="1393" on="0"/>
        <pt x="700" y="1450" on="0"/>
        <pt x="775" y="1450" on="1"/>
        <pt x="845" y="1450" on="0"/>
        <pt x="940" y="1409" on="0"/>
        <pt x="996" y="1340" on="0"/>
        <pt x="1015" y="1251" on="0"/>
        <pt x="1008" y="1202" on="1"/>
        <pt x="1001" y="1150" on="0"/>
        <pt x="937" y="1043" on="0"/>
        <pt x="841" y="941" on="0"/>
        <pt x="725" y="848" on="0"/>
        <pt x="665" y="811" on="1"/>
        <pt x="635" y="792" on="1"/>
        <pt x="681" y="676" on="0"/>
        <pt x="819" y="452" on="0"/>
        <pt x="893" y="356" on="1"/>
        <pt x="938" y="427" on="0"/>
        <pt x="949" y="497" on="1"/>
        <pt x="955" y="540" on="0"/>
        <pt x="940" y="609" on="0"/>
        <pt x="907" y="657" on="0"/>
        <pt x="860" y="683" on="0"/>
        <pt x="833" y="683" on="1"/>
        <pt x="810" y="718" on="1"/>
        <pt x="816" y="724" on="0"/>
        <pt x="839" y="746" on="0"/>
        <pt x="866" y="769" on="0"/>
        <pt x="892" y="788" on="0"/>
        <pt x="902" y="792" on="1"/>
        <pt x="1347" y="792" on="1"/>
      </contour>
    </TTGlyph>
    <TTGlyph name="approxequal" xMin="52" yMin="281" xMax="851" yMax="844">
      <contour>
        <pt x="810" y="460" on="1"/>
        <pt x="782" y="420" on="0"/>
        <pt x="717" y="355" on="0"/>
        <pt x="649" y="309" on="0"/>
        <pt x="580" y="284" on="0"/>
        <pt x="549" y="284" on="1"/>
        <pt x="511" y="284" on="0"/>
        <pt x="440" y="315" on="0"/>
        <pt x="371" y="351" on="0"/>
        <pt x="301" y="382" on="0"/>
        <pt x="265" y="382" on="1"/>
        <pt x="222" y="382" on="0"/>
        <pt x="149" y="329" on="0"/>
        <pt x="103" y="281" on="1"/>
        <pt x="52" y="358" on="1"/>
        <pt x="108" y="440" on="0"/>
        <pt x="244" y="535" on="0"/>
        <pt x="307" y="535" on="1"/>
        <pt x="347" y="535" on="0"/>
        <pt x="424" y="505" on="0"/>
        <pt x="496" y="468" on="0"/>
        <pt x="560" y="438" on="0"/>
        <pt x="589" y="438" on="1"/>
        <pt x="610" y="438" on="0"/>
        <pt x="653" y="455" on="0"/>
        <pt x="696" y="483" on="0"/>
        <pt x="735" y="520" on="0"/>
        <pt x="752" y="540" on="1"/>
      </contour>
      <contour>
        <pt x="851" y="764" on="1"/>
        <pt x="823" y="723" on="0"/>
        <pt x="758" y="658" on="0"/>
        <pt x="690" y="613" on="0"/>
        <pt x="621" y="588" on="0"/>
        <pt x="590" y="588" on="1"/>
        <pt x="552" y="588" on="0"/>
        <pt x="481" y="618" on="0"/>
        <pt x="412" y="655" on="0"/>
        <pt x="343" y="685" on="0"/>
        <pt x="307" y="685" on="1"/>
        <pt x="264" y="685" on="0"/>
        <pt x="191" y="633" on="0"/>
        <pt x="144" y="585" on="1"/>
        <pt x="94" y="662" on="1"/>
        <pt x="151" y="743" on="0"/>
        <pt x="285" y="839" on="0"/>
        <pt x="349" y="839" on="1"/>
        <pt x="389" y="839" on="0"/>
        <pt x="466" y="809" on="0"/>
        <pt x="537" y="772" on="0"/>
        <pt x="601" y="742" on="0"/>
        <pt x="630" y="742" on="1"/>
        <pt x="651" y="742" on="0"/>
        <pt x="695" y="758" on="0"/>
        <pt x="737" y="786" on="0"/>
        <pt x="777" y="823" on="0"/>
        <pt x="793" y="844" on="1"/>
      </contour>
    </TTGlyph>
    <TTGlyph name="aring" xMin="38" yMin="-41" xMax="980" yMax="1453">
      <component glyphName="a" x="0" y="0" flags="0x0"/>
      <component glyphName="uni030A" x="936" y="0" flags="0x0"/>
    </TTGlyph>
    <TTGlyph name="aring.SngStory" xMin="38" yMin="-41" xMax="980" yMax="1453">
      <component glyphName="a.SngStory" x="0" y="0" flags="0x0"/>
      <component glyphName="uni030A" x="936" y="0" flags="0x0"/>
    </TTGlyph>
    <TTGlyph name="aringacute" xMin="38" yMin="-41" xMax="1015" yMax="1932">
      <component glyphName="a" x="0" y="0" flags="0x0"/>
      <component glyphName="uni030A" x="936" y="0" flags="0x0"/>
      <component glyphName="acutecomb" x="993" y="465" flags="0x0"/>
    </TTGlyph>
    <TTGlyph name="aringacute.SngStory" xMin="38" yMin="-41" xMax="1015" yMax="1932">
      <component glyphName="a.SngStory" x="0" y="0" flags="0x0"/>
      <component glyphName="uni030A" x="936" y="0" flags="0x0"/>
      <component glyphName="acutecomb" x="993" y="465" flags="0x0"/>
    </TTGlyph>
    <TTGlyph name="asciicircum" xMin="94" yMin="565" xMax="854" yMax="1550">
      <contour>
        <pt x="854" y="635" on="1"/>
        <pt x="826" y="612" on="0"/>
        <pt x="777" y="581" on="0"/>
        <pt x="743" y="565" on="1"/>
        <pt x="713" y="592" on="1"/>
        <pt x="553" y="1315" on="1"/>
        <pt x="223" y="635" on="1"/>
        <pt x="212" y="625" on="0"/>
        <pt x="182" y="604" on="0"/>
        <pt x="151" y="585" on="0"/>
        <pt x="123" y="570" on="0"/>
        <pt x="113" y="565" on="1"/>
        <pt x="94" y="592" on="1"/>
        <pt x="516" y="1462" on="1"/>
        <pt x="529" y="1474" on="0"/>
        <pt x="565" y="1499" on="0"/>
        <pt x="603" y="1523" on="0"/>
        <pt x="639" y="1543" on="0"/>
        <pt x="653" y="1550" on="1"/>
      </contour>
    </TTGlyph>
    <TTGlyph name="asciitilde" xMin="75" yMin="475" xMax="950" yMax="799">
      <contour>
        <pt x="950" y="774" on="1"/>
        <pt x="924" y="725" on="0"/>
        <pt x="850" y="620" on="0"/>
        <pt x="764" y="533" on="0"/>
        <pt x="672" y="477" on="0"/>
        <pt x="628" y="477" on="1"/>
        <pt x="589" y="477" on="0"/>
        <pt x="508" y="527" on="0"/>
        <pt x="427" y="587" on="0"/>
        <pt x="345" y="637" on="0"/>
        <pt x="305" y="637" on="1"/>
        <pt x="259" y="637" on="0"/>
        <pt x="171" y="559" on="0"/>
        <pt x="121" y="475" on="1"/>
        <pt x="75" y="502" on="1"/>
        <pt x="102" y="551" on="0"/>
        <pt x="176" y="656" on="0"/>
        <pt x="261" y="743" on="0"/>
        <pt x="353" y="799" on="0"/>
        <pt x="397" y="799" on="1"/>
        <pt x="440" y="799" on="0"/>
        <pt x="523" y="749" on="0"/>
        <pt x="604" y="689" on="0"/>
        <pt x="681" y="639" on="0"/>
        <pt x="719" y="639" on="1"/>
        <pt x="763" y="639" on="0"/>
        <pt x="854" y="717" on="0"/>
        <pt x="904" y="799" on="1"/>
      </contour>
    </TTGlyph>
    <TTGlyph name="asterisk" xMin="-6" yMin="708" xMax="780" yMax="1561">
      <contour>
        <pt x="444" y="1220" on="1"/>
        <pt x="671" y="1404" on="1"/>
        <pt x="695" y="1383" on="1"/>
        <pt x="711" y="1369" on="0"/>
        <pt x="745" y="1336" on="0"/>
        <pt x="774" y="1306" on="0"/>
        <pt x="780" y="1298" on="1"/>
        <pt x="765" y="1242" on="1"/>
        <pt x="480" y="1136" on="1"/>
        <pt x="715" y="1040" on="1"/>
        <pt x="713" y="1028" on="0"/>
        <pt x="701" y="980" on="0"/>
        <pt x="687" y="928" on="0"/>
        <pt x="672" y="882" on="0"/>
        <pt x="668" y="871" on="1"/>
        <pt x="616" y="851" on="1"/>
        <pt x="424" y="1049" on="1"/>
        <pt x="432" y="770" on="1"/>
        <pt x="421" y="764" on="0"/>
        <pt x="377" y="745" on="0"/>
        <pt x="329" y="726" on="0"/>
        <pt x="285" y="710" on="0"/>
        <pt x="275" y="708" on="1"/>
        <pt x="240" y="743" on="1"/>
        <pt x="331" y="1048" on="1"/>
        <pt x="104" y="864" on="1"/>
        <pt x="95" y="871" on="0"/>
        <pt x="63" y="900" on="0"/>
        <pt x="29" y="932" on="0"/>
        <pt x="0" y="962" on="0"/>
        <pt x="-6" y="970" on="1"/>
        <pt x="11" y="1026" on="1"/>
        <pt x="296" y="1132" on="1"/>
        <pt x="60" y="1228" on="1"/>
        <pt x="69" y="1264" on="1"/>
        <pt x="75" y="1288" on="0"/>
        <pt x="89" y="1340" on="0"/>
        <pt x="102" y="1386" on="0"/>
        <pt x="107" y="1397" on="1"/>
        <pt x="158" y="1417" on="1"/>
        <pt x="351" y="1219" on="1"/>
        <pt x="343" y="1498" on="1"/>
        <pt x="354" y="1504" on="0"/>
        <pt x="397" y="1523" on="0"/>
        <pt x="445" y="1542" on="0"/>
        <pt x="489" y="1558" on="0"/>
        <pt x="500" y="1561" on="1"/>
        <pt x="536" y="1525" on="1"/>
      </contour>
    </TTGlyph>
    <TTGlyph name="at" xMin="48" yMin="-375" xMax="1647" yMax="1333">
      <contour>
        <pt x="946" y="355" on="1"/>
        <pt x="951" y="397" on="0"/>
        <pt x="968" y="503" on="0"/>
        <pt x="986" y="610" on="0"/>
        <pt x="1003" y="707" on="0"/>
        <pt x="1009" y="739" on="1"/>
        <pt x="983" y="762" on="0"/>
        <pt x="929" y="794" on="0"/>
        <pt x="901" y="794" on="1"/>
        <pt x="861" y="794" on="0"/>
        <pt x="795" y="754" on="0"/>
        <pt x="743" y="689" on="0"/>
        <pt x="704" y="603" on="0"/>
        <pt x="678" y="511" on="0"/>
        <pt x="665" y="418" on="0"/>
        <pt x="665" y="379" on="1"/>
        <pt x="665" y="323" on="0"/>
        <pt x="681" y="239" on="0"/>
        <pt x="706" y="184" on="0"/>
        <pt x="736" y="156" on="0"/>
        <pt x="751" y="156" on="1"/>
        <pt x="783" y="156" on="0"/>
        <pt x="883" y="257" on="0"/>
      </contour>
      <contour>
        <pt x="1620" y="549" on="1"/>
        <pt x="1608" y="462" on="0"/>
        <pt x="1541" y="308" on="0"/>
        <pt x="1446" y="177" on="0"/>
        <pt x="1334" y="72" on="0"/>
        <pt x="1221" y="-2" on="0"/>
        <pt x="1117" y="-41" on="0"/>
        <pt x="1077" y="-41" on="1"/>
        <pt x="1062" y="-41" on="0"/>
        <pt x="1022" y="-22" on="0"/>
        <pt x="983" y="28" on="0"/>
        <pt x="951" y="117" on="0"/>
        <pt x="944" y="187" on="1"/>
        <pt x="918" y="144" on="0"/>
        <pt x="851" y="62" on="0"/>
        <pt x="777" y="-2" on="0"/>
        <pt x="701" y="-41" on="0"/>
        <pt x="666" y="-41" on="1"/>
        <pt x="632" y="-41" on="0"/>
        <pt x="553" y="-3" on="0"/>
        <pt x="484" y="80" on="0"/>
        <pt x="438" y="211" on="0"/>
        <pt x="438" y="305" on="1"/>
        <pt x="438" y="384" on="0"/>
        <pt x="476" y="535" on="0"/>
        <pt x="549" y="673" on="0"/>
        <pt x="657" y="794" on="0"/>
        <pt x="728" y="842" on="1"/>
        <pt x="755" y="860" on="0"/>
        <pt x="827" y="894" on="0"/>
        <pt x="903" y="920" on="0"/>
        <pt x="979" y="936" on="0"/>
        <pt x="1011" y="936" on="1"/>
        <pt x="1052" y="936" on="0"/>
        <pt x="1129" y="900" on="0"/>
        <pt x="1162" y="880" on="1"/>
        <pt x="1194" y="896" on="0"/>
        <pt x="1258" y="924" on="0"/>
        <pt x="1284" y="936" on="1"/>
        <pt x="1316" y="871" on="1"/>
        <pt x="1299" y="857" on="0"/>
        <pt x="1276" y="835" on="0"/>
        <pt x="1258" y="806" on="0"/>
        <pt x="1245" y="764" on="0"/>
        <pt x="1238" y="730" on="1"/>
        <pt x="1223" y="658" on="0"/>
        <pt x="1199" y="523" on="0"/>
        <pt x="1182" y="410" on="0"/>
        <pt x="1174" y="324" on="0"/>
        <pt x="1174" y="302" on="1"/>
        <pt x="1174" y="227" on="0"/>
        <pt x="1208" y="162" on="0"/>
        <pt x="1232" y="162" on="1"/>
        <pt x="1257" y="162" on="0"/>
        <pt x="1310" y="207" on="0"/>
        <pt x="1358" y="295" on="0"/>
        <pt x="1398" y="425" on="0"/>
        <pt x="1411" y="510" on="1"/>
        <pt x="1436" y="679" on="0"/>
        <pt x="1380" y="932" on="0"/>
        <pt x="1247" y="1100" on="0"/>
        <pt x="1054" y="1184" on="0"/>
        <pt x="943" y="1184" on="1"/>
        <pt x="860" y="1184" on="0"/>
        <pt x="708" y="1133" on="0"/>
        <pt x="574" y="1042" on="0"/>
        <pt x="462" y="916" on="0"/>
        <pt x="375" y="765" on="0"/>
        <pt x="316" y="594" on="0"/>
        <pt x="303" y="504" on="1"/>
        <pt x="286" y="383" on="0"/>
        <pt x="312" y="182" on="0"/>
        <pt x="384" y="21" on="0"/>
        <pt x="495" y="-99" on="0"/>
        <pt x="632" y="-179" on="0"/>
        <pt x="788" y="-219" on="0"/>
        <pt x="869" y="-219" on="1"/>
        <pt x="950" y="-219" on="0"/>
        <pt x="1108" y="-177" on="0"/>
        <pt x="1247" y="-115" on="0"/>
        <pt x="1356" y="-48" on="0"/>
        <pt x="1388" y="-22" on="1"/>
        <pt x="1419" y="-115" on="1"/>
        <pt x="1381" y="-153" on="0"/>
        <pt x="1257" y="-244" on="0"/>
        <pt x="1096" y="-322" on="0"/>
        <pt x="900" y="-375" on="0"/>
        <pt x="790" y="-375" on="1"/>
        <pt x="676" y="-375" on="0"/>
        <pt x="469" y="-322" on="0"/>
        <pt x="296" y="-220" on="0"/>
        <pt x="162" y="-74" on="0"/>
        <pt x="77" y="113" on="0"/>
        <pt x="48" y="337" on="0"/>
        <pt x="66" y="465" on="1"/>
        <pt x="82" y="577" on="0"/>
        <pt x="167" y="794" on="0"/>
        <pt x="297" y="986" on="0"/>
        <pt x="467" y="1149" on="0"/>
        <pt x="669" y="1267" on="0"/>
        <pt x="897" y="1333" on="0"/>
        <pt x="1020" y="1333" on="1"/>
        <pt x="1161" y="1333" on="0"/>
        <pt x="1404" y="1229" on="0"/>
        <pt x="1572" y="1028" on="0"/>
        <pt x="1647" y="736" on="0"/>
      </contour>
    </TTGlyph>
    <TTGlyph name="atilde" xMin="38" yMin="-41" xMax="988" yMax="1372">
      <component glyphName="a" x="0" y="0" flags="0x0"/>
      <component glyphName="tildecomb" x="937" y="0" flags="0x0"/>
    </TTGlyph>
    <TTGlyph name="atilde.SngStory" xMin="38" yMin="-41" xMax="988" yMax="1372">
      <component glyphName="a.SngStory" x="0" y="0" flags="0x0"/>
      <component glyphName="tildecomb" x="937" y="0" flags="0x0"/>
    </TTGlyph>
    <TTGlyph name="b" xMin="91" yMin="-41" xMax="965" yMax="1520">
      <contour>
        <pt x="623" y="758" on="1"/>
        <pt x="609" y="758" on="0"/>
        <pt x="560" y="730" on="0"/>
        <pt x="496" y="670" on="0"/>
        <pt x="420" y="574" on="0"/>
        <pt x="380" y="507" on="1"/>
        <pt x="370" y="438" on="0"/>
        <pt x="359" y="332" on="0"/>
        <pt x="359" y="301" on="1"/>
        <pt x="359" y="275" on="0"/>
        <pt x="390" y="220" on="0"/>
        <pt x="435" y="176" on="0"/>
        <pt x="487" y="147" on="0"/>
        <pt x="508" y="146" on="1"/>
        <pt x="558" y="144" on="0"/>
        <pt x="630" y="197" on="0"/>
        <pt x="657" y="237" on="1"/>
        <pt x="677" y="267" on="0"/>
        <pt x="705" y="340" on="0"/>
        <pt x="722" y="418" on="0"/>
        <pt x="730" y="496" on="0"/>
        <pt x="730" y="530" on="1"/>
        <pt x="730" y="582" on="0"/>
        <pt x="715" y="666" on="0"/>
        <pt x="686" y="726" on="0"/>
        <pt x="647" y="758" on="0"/>
      </contour>
      <contour>
        <pt x="964" y="610" on="1"/>
        <pt x="962" y="504" on="0"/>
        <pt x="876" y="287" on="0"/>
        <pt x="801" y="188" on="1"/>
        <pt x="766" y="143" on="0"/>
        <pt x="679" y="60" on="0"/>
        <pt x="575" y="-3" on="0"/>
        <pt x="459" y="-41" on="0"/>
        <pt x="396" y="-41" on="1"/>
        <pt x="362" y="-41" on="0"/>
        <pt x="266" y="6" on="0"/>
        <pt x="177" y="84" on="0"/>
        <pt x="115" y="186" on="0"/>
        <pt x="114" y="240" on="1"/>
        <pt x="114" y="266" on="0"/>
        <pt x="126" y="371" on="0"/>
        <pt x="145" y="509" on="0"/>
        <pt x="170" y="671" on="0"/>
        <pt x="196" y="838" on="0"/>
        <pt x="221" y="1002" on="0"/>
        <pt x="241" y="1144" on="0"/>
        <pt x="253" y="1255" on="0"/>
        <pt x="253" y="1286" on="1"/>
        <pt x="253" y="1309" on="0"/>
        <pt x="243" y="1336" on="0"/>
        <pt x="227" y="1349" on="0"/>
        <pt x="209" y="1353" on="0"/>
        <pt x="200" y="1353" on="1"/>
        <pt x="191" y="1353" on="0"/>
        <pt x="160" y="1344" on="0"/>
        <pt x="145" y="1339" on="1"/>
        <pt x="127" y="1333" on="0"/>
        <pt x="108" y="1326" on="1"/>
        <pt x="91" y="1395" on="1"/>
        <pt x="136" y="1417" on="0"/>
        <pt x="248" y="1461" on="0"/>
        <pt x="352" y="1497" on="0"/>
        <pt x="436" y="1520" on="0"/>
        <pt x="454" y="1520" on="1"/>
        <pt x="488" y="1520" on="0"/>
        <pt x="511" y="1484" on="0"/>
        <pt x="511" y="1438" on="1"/>
        <pt x="511" y="1395" on="0"/>
        <pt x="492" y="1239" on="0"/>
        <pt x="464" y="1044" on="0"/>
        <pt x="428" y="826" on="0"/>
        <pt x="412" y="721" on="1"/>
        <pt x="462" y="787" on="0"/>
        <pt x="554" y="870" on="0"/>
        <pt x="637" y="918" on="0"/>
        <pt x="708" y="936" on="0"/>
        <pt x="736" y="936" on="1"/>
        <pt x="784" y="937" on="0"/>
        <pt x="867" y="894" on="0"/>
        <pt x="929" y="811" on="0"/>
        <pt x="965" y="689" on="0"/>
      </contour>
    </TTGlyph>
    <TTGlyph name="backslash" xMin="138" yMin="-336" xMax="727" yMax="1599">
      <contour>
        <pt x="685" y="-336" on="1"/>
        <pt x="674" y="-332" on="0"/>
        <pt x="627" y="-316" on="0"/>
        <pt x="576" y="-296" on="0"/>
        <pt x="532" y="-277" on="0"/>
        <pt x="525" y="-270" on="1"/>
        <pt x="138" y="1570" on="1"/>
        <pt x="182" y="1599" on="1"/>
        <pt x="196" y="1595" on="0"/>
        <pt x="240" y="1581" on="0"/>
        <pt x="287" y="1563" on="0"/>
        <pt x="330" y="1544" on="0"/>
        <pt x="342" y="1535" on="1"/>
        <pt x="727" y="-304" on="1"/>
      </contour>
    </TTGlyph>
    <TTGlyph name="bar" xMin="28" yMin="-336" xMax="453" yMax="1599">
      <contour>
        <pt x="193" y="-274" on="1"/>
        <pt x="183" y="-281" on="0"/>
        <pt x="150" y="-299" on="0"/>
        <pt x="113" y="-317" on="0"/>
        <pt x="77" y="-332" on="0"/>
        <pt x="65" y="-336" on="1"/>
        <pt x="28" y="-304" on="1"/>
        <pt x="289" y="1539" on="1"/>
        <pt x="317" y="1556" on="0"/>
        <pt x="387" y="1591" on="0"/>
        <pt x="416" y="1599" on="1"/>
        <pt x="453" y="1570" on="1"/>
      </contour>
    </TTGlyph>
    <TTGlyph name="braceleft" xMin="102" yMin="-315" xMax="788" yMax="1600">
      <contour>
        <pt x="788" y="1523" on="1"/>
        <pt x="748" y="1499" on="0"/>
        <pt x="680" y="1441" on="0"/>
        <pt x="628" y="1376" on="0"/>
        <pt x="594" y="1304" on="0"/>
        <pt x="588" y="1267" on="1"/>
        <pt x="581" y="1214" on="0"/>
        <pt x="582" y="1133" on="0"/>
        <pt x="585" y="1057" on="0"/>
        <pt x="586" y="975" on="0"/>
        <pt x="579" y="923" on="1"/>
        <pt x="573" y="881" on="0"/>
        <pt x="535" y="800" on="0"/>
        <pt x="477" y="729" on="0"/>
        <pt x="402" y="671" on="0"/>
        <pt x="360" y="653" on="1"/>
        <pt x="451" y="635" on="0"/>
        <pt x="520" y="496" on="0"/>
        <pt x="504" y="385" on="1"/>
        <pt x="497" y="331" on="0"/>
        <pt x="473" y="239" on="0"/>
        <pt x="447" y="154" on="0"/>
        <pt x="424" y="72" on="0"/>
        <pt x="418" y="28" on="1"/>
        <pt x="412" y="-13" on="0"/>
        <pt x="414" y="-80" on="0"/>
        <pt x="439" y="-140" on="0"/>
        <pt x="492" y="-195" on="0"/>
        <pt x="537" y="-224" on="1"/>
        <pt x="490" y="-315" on="1"/>
        <pt x="409" y="-281" on="0"/>
        <pt x="286" y="-211" on="0"/>
        <pt x="206" y="-124" on="0"/>
        <pt x="174" y="-15" on="0"/>
        <pt x="184" y="57" on="1"/>
        <pt x="191" y="110" on="0"/>
        <pt x="214" y="195" on="0"/>
        <pt x="240" y="277" on="0"/>
        <pt x="264" y="365" on="0"/>
        <pt x="272" y="422" on="1"/>
        <pt x="283" y="503" on="0"/>
        <pt x="227" y="571" on="0"/>
        <pt x="168" y="571" on="1"/>
        <pt x="149" y="571" on="1"/>
        <pt x="143" y="571" on="0"/>
        <pt x="133" y="570" on="0"/>
        <pt x="120" y="567" on="0"/>
        <pt x="107" y="565" on="1"/>
        <pt x="102" y="648" on="1"/>
        <pt x="211" y="679" on="0"/>
        <pt x="322" y="788" on="0"/>
        <pt x="333" y="863" on="1"/>
        <pt x="340" y="918" on="0"/>
        <pt x="340" y="998" on="0"/>
        <pt x="336" y="1073" on="0"/>
        <pt x="335" y="1154" on="0"/>
        <pt x="343" y="1210" on="1"/>
        <pt x="352" y="1277" on="0"/>
        <pt x="423" y="1391" on="0"/>
        <pt x="534" y="1487" on="0"/>
        <pt x="678" y="1566" on="0"/>
        <pt x="761" y="1600" on="1"/>
      </contour>
    </TTGlyph>
    <TTGlyph name="braceright" xMin="-82" yMin="-316" xMax="603" yMax="1599">
      <contour>
        <pt x="603" y="636" on="1"/>
        <pt x="494" y="605" on="0"/>
        <pt x="383" y="497" on="0"/>
        <pt x="372" y="421" on="1"/>
        <pt x="364" y="366" on="0"/>
        <pt x="365" y="286" on="0"/>
        <pt x="370" y="212" on="0"/>
        <pt x="370" y="131" on="0"/>
        <pt x="363" y="75" on="1"/>
        <pt x="353" y="7" on="0"/>
        <pt x="281" y="-106" on="0"/>
        <pt x="170" y="-202" on="0"/>
        <pt x="26" y="-282" on="0"/>
        <pt x="-56" y="-316" on="1"/>
        <pt x="-82" y="-238" on="1"/>
        <pt x="-3" y="-189" on="0"/>
        <pt x="106" y="-58" on="0"/>
        <pt x="116" y="18" on="1"/>
        <pt x="123" y="70" on="0"/>
        <pt x="123" y="151" on="0"/>
        <pt x="120" y="228" on="0"/>
        <pt x="119" y="309" on="0"/>
        <pt x="126" y="362" on="1"/>
        <pt x="132" y="404" on="0"/>
        <pt x="170" y="484" on="0"/>
        <pt x="229" y="555" on="0"/>
        <pt x="303" y="613" on="0"/>
        <pt x="345" y="631" on="1"/>
        <pt x="254" y="650" on="0"/>
        <pt x="186" y="788" on="0"/>
        <pt x="201" y="900" on="1"/>
        <pt x="208" y="954" on="0"/>
        <pt x="233" y="1046" on="0"/>
        <pt x="258" y="1130" on="0"/>
        <pt x="281" y="1212" on="0"/>
        <pt x="287" y="1256" on="1"/>
        <pt x="293" y="1297" on="0"/>
        <pt x="291" y="1365" on="0"/>
        <pt x="266" y="1424" on="0"/>
        <pt x="212" y="1479" on="0"/>
        <pt x="167" y="1508" on="1"/>
        <pt x="216" y="1599" on="1"/>
        <pt x="297" y="1566" on="0"/>
        <pt x="420" y="1495" on="0"/>
        <pt x="499" y="1409" on="0"/>
        <pt x="531" y="1300" on="0"/>
        <pt x="521" y="1228" on="1"/>
        <pt x="513" y="1175" on="0"/>
        <pt x="490" y="1090" on="0"/>
        <pt x="465" y="1007" on="0"/>
        <pt x="441" y="919" on="0"/>
        <pt x="434" y="863" on="1"/>
        <pt x="422" y="782" on="0"/>
        <pt x="478" y="714" on="0"/>
        <pt x="537" y="714" on="1"/>
        <pt x="556" y="714" on="1"/>
        <pt x="562" y="714" on="0"/>
        <pt x="571" y="715" on="0"/>
        <pt x="585" y="717" on="0"/>
        <pt x="599" y="720" on="1"/>
      </contour>
    </TTGlyph>
    <TTGlyph name="bracketleft" xMin="50" yMin="-336" xMax="824" yMax="1599">
      <contour>
        <pt x="824" y="1566" on="1"/>
        <pt x="821" y="1554" on="0"/>
        <pt x="807" y="1521" on="0"/>
        <pt x="791" y="1489" on="0"/>
        <pt x="777" y="1463" on="0"/>
        <pt x="773" y="1457" on="1"/>
        <pt x="511" y="1457" on="1"/>
        <pt x="284" y="-191" on="1"/>
        <pt x="540" y="-191" on="1"/>
        <pt x="576" y="-228" on="1"/>
        <pt x="573" y="-238" on="0"/>
        <pt x="560" y="-267" on="0"/>
        <pt x="545" y="-299" on="0"/>
        <pt x="531" y="-327" on="0"/>
        <pt x="526" y="-336" on="1"/>
        <pt x="50" y="-336" on="1"/>
        <pt x="322" y="1599" on="1"/>
        <pt x="790" y="1599" on="1"/>
      </contour>
    </TTGlyph>
    <TTGlyph name="bracketright" xMin="-86" yMin="-336" xMax="688" yMax="1599">
      <contour>
        <pt x="418" y="-336" on="1"/>
        <pt x="-50" y="-336" on="1"/>
        <pt x="-86" y="-300" on="1"/>
        <pt x="-82" y="-288" on="0"/>
        <pt x="-69" y="-256" on="0"/>
        <pt x="-54" y="-224" on="0"/>
        <pt x="-40" y="-197" on="0"/>
        <pt x="-36" y="-191" on="1"/>
        <pt x="226" y="-191" on="1"/>
        <pt x="458" y="1457" on="1"/>
        <pt x="204" y="1457" on="1"/>
        <pt x="167" y="1491" on="1"/>
        <pt x="170" y="1502" on="0"/>
        <pt x="182" y="1532" on="0"/>
        <pt x="197" y="1563" on="0"/>
        <pt x="210" y="1591" on="0"/>
        <pt x="215" y="1599" on="1"/>
        <pt x="688" y="1599" on="1"/>
      </contour>
    </TTGlyph>
    <TTGlyph name="breve" xMin="95" yMin="1043" xMax="748" yMax="1408">
      <contour>
        <pt x="748" y="1335" on="1"/>
        <pt x="711" y="1254" on="0"/>
        <pt x="618" y="1143" on="0"/>
        <pt x="520" y="1074" on="0"/>
        <pt x="424" y="1043" on="0"/>
        <pt x="384" y="1043" on="1"/>
        <pt x="340" y="1043" on="0"/>
        <pt x="251" y="1074" on="0"/>
        <pt x="173" y="1144" on="0"/>
        <pt x="112" y="1255" on="0"/>
        <pt x="95" y="1335" on="1"/>
        <pt x="102" y="1344" on="0"/>
        <pt x="122" y="1365" on="0"/>
        <pt x="144" y="1386" on="0"/>
        <pt x="164" y="1403" on="0"/>
        <pt x="172" y="1408" on="1"/>
        <pt x="187" y="1358" on="0"/>
        <pt x="239" y="1291" on="0"/>
        <pt x="302" y="1250" on="0"/>
        <pt x="367" y="1232" on="0"/>
        <pt x="396" y="1232" on="1"/>
        <pt x="427" y="1232" on="0"/>
        <pt x="504" y="1250" on="0"/>
        <pt x="582" y="1291" on="0"/>
        <pt x="655" y="1358" on="0"/>
        <pt x="682" y="1408" on="1"/>
        <pt x="689" y="1403" on="0"/>
        <pt x="707" y="1387" on="0"/>
        <pt x="726" y="1366" on="0"/>
        <pt x="743" y="1344" on="0"/>
      </contour>
    </TTGlyph>
    <TTGlyph name="brokenbar" xMin="35" yMin="-336" xMax="468" yMax="1599">
      <contour>
        <pt x="357" y="774" on="1"/>
        <pt x="347" y="766" on="0"/>
        <pt x="310" y="749" on="0"/>
        <pt x="269" y="732" on="0"/>
        <pt x="249" y="725" on="1"/>
        <pt x="218" y="715" on="1"/>
        <pt x="180" y="745" on="1"/>
        <pt x="293" y="1543" on="1"/>
        <pt x="308" y="1552" on="0"/>
        <pt x="343" y="1568" on="0"/>
        <pt x="380" y="1583" on="0"/>
        <pt x="415" y="1595" on="0"/>
        <pt x="430" y="1599" on="1"/>
        <pt x="468" y="1570" on="1"/>
      </contour>
      <contour>
        <pt x="207" y="-278" on="1"/>
        <pt x="198" y="-285" on="0"/>
        <pt x="162" y="-302" on="0"/>
        <pt x="121" y="-318" on="0"/>
        <pt x="82" y="-332" on="0"/>
        <pt x="71" y="-336" on="1"/>
        <pt x="35" y="-304" on="1"/>
        <pt x="146" y="482" on="1"/>
        <pt x="159" y="491" on="0"/>
        <pt x="194" y="508" on="0"/>
        <pt x="230" y="523" on="0"/>
        <pt x="265" y="536" on="0"/>
        <pt x="280" y="541" on="1"/>
        <pt x="321" y="509" on="1"/>
      </contour>
    </TTGlyph>
    <TTGlyph name="bullet" xMin="66" yMin="389" xMax="479" yMax="885">
      <contour>
        <pt x="479" y="713" on="1"/>
        <pt x="479" y="657" on="0"/>
        <pt x="444" y="541" on="0"/>
        <pt x="377" y="448" on="0"/>
        <pt x="279" y="389" on="0"/>
        <pt x="215" y="389" on="1"/>
        <pt x="177" y="389" on="0"/>
        <pt x="121" y="415" on="0"/>
        <pt x="84" y="461" on="0"/>
        <pt x="66" y="523" on="0"/>
        <pt x="66" y="559" on="1"/>
        <pt x="66" y="615" on="0"/>
        <pt x="102" y="731" on="0"/>
        <pt x="171" y="825" on="0"/>
        <pt x="270" y="885" on="0"/>
        <pt x="332" y="885" on="1"/>
        <pt x="370" y="885" on="0"/>
        <pt x="426" y="858" on="0"/>
        <pt x="462" y="811" on="0"/>
        <pt x="479" y="748" on="0"/>
      </contour>
    </TTGlyph>
    <TTGlyph name="c" xMin="71" yMin="-41" xMax="906" yMax="936">
      <contour>
        <pt x="906" y="823" on="1"/>
        <pt x="885" y="802" on="0"/>
        <pt x="827" y="749" on="0"/>
        <pt x="767" y="701" on="0"/>
        <pt x="713" y="669" on="0"/>
        <pt x="697" y="669" on="1"/>
        <pt x="681" y="669" on="0"/>
        <pt x="648" y="708" on="0"/>
        <pt x="609" y="755" on="0"/>
        <pt x="562" y="794" on="0"/>
        <pt x="533" y="794" on="1"/>
        <pt x="479" y="794" on="0"/>
        <pt x="394" y="720" on="0"/>
        <pt x="337" y="603" on="0"/>
        <pt x="307" y="458" on="0"/>
        <pt x="307" y="388" on="1"/>
        <pt x="307" y="323" on="0"/>
        <pt x="328" y="222" on="0"/>
        <pt x="367" y="151" on="0"/>
        <pt x="419" y="114" on="0"/>
        <pt x="451" y="114" on="1"/>
        <pt x="505" y="114" on="0"/>
        <pt x="656" y="193" on="0"/>
        <pt x="764" y="281" on="1"/>
        <pt x="768" y="276" on="0"/>
        <pt x="782" y="255" on="0"/>
        <pt x="798" y="233" on="0"/>
        <pt x="811" y="214" on="0"/>
        <pt x="813" y="210" on="1"/>
        <pt x="735" y="139" on="0"/>
        <pt x="605" y="42" on="0"/>
        <pt x="494" y="-16" on="0"/>
        <pt x="398" y="-41" on="0"/>
        <pt x="353" y="-41" on="1"/>
        <pt x="311" y="-41" on="0"/>
        <pt x="212" y="-7" on="0"/>
        <pt x="127" y="77" on="0"/>
        <pt x="71" y="217" on="0"/>
        <pt x="71" y="322" on="1"/>
        <pt x="71" y="389" on="0"/>
        <pt x="99" y="527" on="0"/>
        <pt x="162" y="658" on="0"/>
        <pt x="263" y="778" on="0"/>
        <pt x="337" y="827" on="1"/>
        <pt x="365" y="845" on="0"/>
        <pt x="439" y="884" on="0"/>
        <pt x="523" y="916" on="0"/>
        <pt x="611" y="936" on="0"/>
        <pt x="653" y="936" on="1"/>
        <pt x="697" y="936" on="0"/>
        <pt x="767" y="907" on="0"/>
        <pt x="826" y="869" on="0"/>
        <pt x="879" y="832" on="0"/>
      </contour>
    </TTGlyph>
    <TTGlyph name="cacute" xMin="71" yMin="-41" xMax="961" yMax="1467">
      <component glyphName="c" x="0" y="0" flags="0x0"/>
      <component glyphName="acutecomb" x="939" y="0" flags="0x0"/>
    </TTGlyph>
    <TTGlyph name="caron" xMin="113" yMin="1043" xMax="747" yMax="1476">
      <contour>
        <pt x="452" y="1043" on="1"/>
        <pt x="315" y="1043" on="1"/>
        <pt x="113" y="1416" on="1"/>
        <pt x="129" y="1434" on="0"/>
        <pt x="164" y="1465" on="0"/>
        <pt x="181" y="1476" on="1"/>
        <pt x="405" y="1255" on="1"/>
        <pt x="693" y="1476" on="1"/>
        <pt x="705" y="1465" on="0"/>
        <pt x="736" y="1434" on="0"/>
        <pt x="747" y="1416" on="1"/>
      </contour>
    </TTGlyph>
    <TTGlyph name="ccaron" xMin="71" yMin="-41" xMax="967" yMax="1476">
      <component glyphName="c" x="0" y="0" flags="0x0"/>
      <component glyphName="uni030C" x="966" y="0" flags="0x0"/>
    </TTGlyph>
    <TTGlyph name="ccedilla" xMin="71" yMin="-412" xMax="906" yMax="936">
      <contour>
        <pt x="558" y="-221" on="1"/>
        <pt x="558" y="-274" on="0"/>
        <pt x="490" y="-362" on="0"/>
        <pt x="379" y="-412" on="0"/>
        <pt x="236" y="-411" on="0"/>
        <pt x="161" y="-375" on="1"/>
        <pt x="159" y="-306" on="1"/>
        <pt x="201" y="-323" on="0"/>
        <pt x="271" y="-328" on="0"/>
        <pt x="320" y="-312" on="0"/>
        <pt x="348" y="-281" on="0"/>
        <pt x="348" y="-261" on="1"/>
        <pt x="348" y="-240" on="0"/>
        <pt x="307" y="-213" on="0"/>
        <pt x="278" y="-215" on="1"/>
        <pt x="293" y="-183" on="0"/>
        <pt x="317" y="-127" on="0"/>
        <pt x="336" y="-75" on="0"/>
        <pt x="343" y="-49" on="1"/>
        <pt x="344" y="-45" on="0"/>
        <pt x="346" y="-41" on="1"/>
        <pt x="307" y="-39" on="0"/>
        <pt x="261" y="-24" on="1"/>
        <pt x="212" y="-7" on="0"/>
        <pt x="127" y="77" on="0"/>
        <pt x="71" y="217" on="0"/>
        <pt x="71" y="322" on="1"/>
        <pt x="71" y="389" on="0"/>
        <pt x="99" y="527" on="0"/>
        <pt x="162" y="658" on="0"/>
        <pt x="263" y="778" on="0"/>
        <pt x="337" y="827" on="1"/>
        <pt x="365" y="845" on="0"/>
        <pt x="439" y="884" on="0"/>
        <pt x="523" y="916" on="0"/>
        <pt x="611" y="936" on="0"/>
        <pt x="653" y="936" on="1"/>
        <pt x="697" y="936" on="0"/>
        <pt x="767" y="907" on="0"/>
        <pt x="826" y="869" on="0"/>
        <pt x="879" y="832" on="0"/>
        <pt x="906" y="823" on="1"/>
        <pt x="885" y="802" on="0"/>
        <pt x="827" y="749" on="0"/>
        <pt x="767" y="701" on="0"/>
        <pt x="713" y="669" on="0"/>
        <pt x="697" y="669" on="1"/>
        <pt x="681" y="669" on="0"/>
        <pt x="648" y="708" on="0"/>
        <pt x="609" y="755" on="0"/>
        <pt x="562" y="794" on="0"/>
        <pt x="533" y="794" on="1"/>
        <pt x="479" y="794" on="0"/>
        <pt x="394" y="720" on="0"/>
        <pt x="337" y="603" on="0"/>
        <pt x="307" y="458" on="0"/>
        <pt x="307" y="388" on="1"/>
        <pt x="307" y="323" on="0"/>
        <pt x="328" y="222" on="0"/>
        <pt x="367" y="151" on="0"/>
        <pt x="419" y="114" on="0"/>
        <pt x="451" y="114" on="1"/>
        <pt x="505" y="114" on="0"/>
        <pt x="656" y="193" on="0"/>
        <pt x="764" y="281" on="1"/>
        <pt x="768" y="276" on="0"/>
        <pt x="782" y="255" on="0"/>
        <pt x="798" y="233" on="0"/>
        <pt x="811" y="214" on="0"/>
        <pt x="813" y="210" on="1"/>
        <pt x="735" y="139" on="0"/>
        <pt x="605" y="42" on="0"/>
        <pt x="549" y="13" on="1"/>
        <pt x="496" y="-15" on="0"/>
        <pt x="450" y="-27" on="1"/>
        <pt x="444" y="-55" on="1"/>
        <pt x="438" y="-84" on="0"/>
        <pt x="433" y="-98" on="1"/>
        <pt x="496" y="-100" on="0"/>
        <pt x="558" y="-172" on="0"/>
      </contour>
    </TTGlyph>
    <TTGlyph name="ccircumflex" xMin="71" yMin="-41" xMax="922" yMax="1457">
      <component glyphName="c" x="0" y="0" flags="0x0"/>
      <component glyphName="uni0302" x="953" y="0" flags="0x0"/>
    </TTGlyph>
    <TTGlyph name="cdotaccent" xMin="71" yMin="-41" xMax="906" yMax="1371">
      <component glyphName="c" x="0" y="0" flags="0x0"/>
      <component glyphName="uni0307" x="942" y="0" flags="0x0"/>
    </TTGlyph>
    <TTGlyph name="cedilla" xMin="-165" yMin="-412" xMax="234" yMax="4">
      <contour>
        <pt x="234" y="-221" on="1"/>
        <pt x="234" y="-274" on="0"/>
        <pt x="166" y="-362" on="0"/>
        <pt x="54" y="-412" on="0"/>
        <pt x="-88" y="-411" on="0"/>
        <pt x="-163" y="-375" on="1"/>
        <pt x="-165" y="-306" on="1"/>
        <pt x="-123" y="-323" on="0"/>
        <pt x="-54" y="-328" on="0"/>
        <pt x="-4" y="-312" on="0"/>
        <pt x="24" y="-281" on="0"/>
        <pt x="24" y="-261" on="1"/>
        <pt x="24" y="-240" on="0"/>
        <pt x="-17" y="-213" on="0"/>
        <pt x="-47" y="-215" on="1"/>
        <pt x="-31" y="-183" on="0"/>
        <pt x="-7" y="-127" on="0"/>
        <pt x="12" y="-75" on="0"/>
        <pt x="27" y="-24" on="0"/>
        <pt x="33" y="4" on="1"/>
        <pt x="131" y="2" on="1"/>
        <pt x="127" y="-26" on="0"/>
        <pt x="114" y="-84" on="0"/>
        <pt x="109" y="-98" on="1"/>
        <pt x="172" y="-100" on="0"/>
        <pt x="234" y="-172" on="0"/>
      </contour>
    </TTGlyph>
    <TTGlyph name="cent" xMin="89" yMin="-49" xMax="954" yMax="1217">
      <contour>
        <pt x="318" y="510" on="1"/>
        <pt x="318" y="418" on="0"/>
        <pt x="376" y="306" on="0"/>
        <pt x="417" y="282" on="1"/>
        <pt x="503" y="907" on="1"/>
        <pt x="460" y="887" on="0"/>
        <pt x="391" y="802" on="0"/>
        <pt x="343" y="692" on="0"/>
        <pt x="318" y="568" on="0"/>
      </contour>
      <contour>
        <pt x="636" y="1054" on="1"/>
        <pt x="644" y="1054" on="0"/>
        <pt x="662" y="1055" on="0"/>
        <pt x="671" y="1055" on="1"/>
        <pt x="718" y="1055" on="0"/>
        <pt x="802" y="1022" on="0"/>
        <pt x="874" y="980" on="0"/>
        <pt x="933" y="941" on="0"/>
        <pt x="954" y="936" on="1"/>
        <pt x="942" y="926" on="0"/>
        <pt x="908" y="891" on="0"/>
        <pt x="870" y="851" on="0"/>
        <pt x="829" y="810" on="0"/>
        <pt x="792" y="777" on="0"/>
        <pt x="761" y="756" on="0"/>
        <pt x="751" y="756" on="1"/>
        <pt x="740" y="756" on="0"/>
        <pt x="714" y="793" on="0"/>
        <pt x="683" y="843" on="0"/>
        <pt x="642" y="895" on="0"/>
        <pt x="616" y="909" on="1"/>
        <pt x="527" y="266" on="1"/>
        <pt x="554" y="271" on="0"/>
        <pt x="610" y="297" on="0"/>
        <pt x="673" y="340" on="0"/>
        <pt x="747" y="399" on="0"/>
        <pt x="793" y="437" on="1"/>
        <pt x="797" y="431" on="0"/>
        <pt x="812" y="410" on="0"/>
        <pt x="828" y="388" on="0"/>
        <pt x="841" y="368" on="0"/>
        <pt x="843" y="364" on="1"/>
        <pt x="786" y="312" on="0"/>
        <pt x="693" y="233" on="0"/>
        <pt x="614" y="175" on="0"/>
        <pt x="543" y="137" on="0"/>
        <pt x="508" y="126" on="1"/>
        <pt x="491" y="5" on="1"/>
        <pt x="473" y="-12" on="0"/>
        <pt x="417" y="-41" on="0"/>
        <pt x="394" y="-49" on="1"/>
        <pt x="375" y="-27" on="1"/>
        <pt x="394" y="111" on="1"/>
        <pt x="365" y="111" on="0"/>
        <pt x="298" y="126" on="0"/>
        <pt x="230" y="160" on="0"/>
        <pt x="167" y="214" on="0"/>
        <pt x="118" y="294" on="0"/>
        <pt x="89" y="401" on="0"/>
        <pt x="89" y="471" on="1"/>
        <pt x="89" y="538" on="0"/>
        <pt x="126" y="675" on="0"/>
        <pt x="201" y="805" on="0"/>
        <pt x="312" y="924" on="0"/>
        <pt x="386" y="973" on="1"/>
        <pt x="415" y="992" on="0"/>
        <pt x="482" y="1023" on="0"/>
        <pt x="521" y="1034" on="1"/>
        <pt x="539" y="1164" on="1"/>
        <pt x="565" y="1182" on="0"/>
        <pt x="607" y="1209" on="0"/>
        <pt x="635" y="1217" on="1"/>
        <pt x="655" y="1194" on="1"/>
      </contour>
    </TTGlyph>
    <TTGlyph name="circumflex" xMin="110" yMin="1019" xMax="744" yMax="1457">
      <contour>
        <pt x="744" y="1079" on="1"/>
        <pt x="730" y="1059" on="0"/>
        <pt x="692" y="1027" on="0"/>
        <pt x="676" y="1019" on="1"/>
        <pt x="452" y="1246" on="1"/>
        <pt x="165" y="1019" on="1"/>
        <pt x="156" y="1025" on="0"/>
        <pt x="120" y="1059" on="0"/>
        <pt x="110" y="1079" on="1"/>
        <pt x="409" y="1457" on="1"/>
        <pt x="546" y="1457" on="1"/>
      </contour>
    </TTGlyph>
    <TTGlyph name="colon" xMin="44" yMin="-31" xMax="445" yMax="961">
      <contour>
        <pt x="445" y="852" on="1"/>
        <pt x="445" y="819" on="0"/>
        <pt x="421" y="749" on="0"/>
        <pt x="374" y="692" on="0"/>
        <pt x="305" y="655" on="0"/>
        <pt x="260" y="655" on="1"/>
        <pt x="197" y="655" on="0"/>
        <pt x="139" y="717" on="0"/>
        <pt x="139" y="768" on="1"/>
        <pt x="139" y="800" on="0"/>
        <pt x="165" y="868" on="0"/>
        <pt x="214" y="925" on="0"/>
        <pt x="283" y="961" on="0"/>
        <pt x="326" y="961" on="1"/>
        <pt x="386" y="961" on="0"/>
        <pt x="445" y="900" on="0"/>
      </contour>
      <contour>
        <pt x="351" y="167" on="1"/>
        <pt x="351" y="134" on="0"/>
        <pt x="327" y="63" on="0"/>
        <pt x="279" y="6" on="0"/>
        <pt x="210" y="-31" on="0"/>
        <pt x="165" y="-31" on="1"/>
        <pt x="102" y="-31" on="0"/>
        <pt x="44" y="32" on="0"/>
        <pt x="44" y="83" on="1"/>
        <pt x="44" y="115" on="0"/>
        <pt x="70" y="183" on="0"/>
        <pt x="119" y="240" on="0"/>
        <pt x="188" y="276" on="0"/>
        <pt x="231" y="276" on="1"/>
        <pt x="291" y="276" on="0"/>
        <pt x="351" y="215" on="0"/>
      </contour>
    </TTGlyph>
    <TTGlyph name="comma" xMin="-12" yMin="-373" xMax="375" yMax="259">
      <contour>
        <pt x="375" y="117" on="1"/>
        <pt x="375" y="76" on="0"/>
        <pt x="346" y="-17" on="0"/>
        <pt x="296" y="-112" on="0"/>
        <pt x="229" y="-204" on="0"/>
        <pt x="156" y="-286" on="0"/>
        <pt x="80" y="-352" on="0"/>
        <pt x="45" y="-373" on="1"/>
        <pt x="-12" y="-323" on="1"/>
        <pt x="64" y="-242" on="0"/>
        <pt x="141" y="-82" on="0"/>
        <pt x="141" y="-23" on="1"/>
        <pt x="141" y="-4" on="0"/>
        <pt x="128" y="33" on="0"/>
        <pt x="101" y="62" on="0"/>
        <pt x="59" y="77" on="0"/>
        <pt x="29" y="74" on="1"/>
        <pt x="25" y="152" on="1"/>
        <pt x="36" y="161" on="0"/>
        <pt x="78" y="185" on="0"/>
        <pt x="130" y="209" on="0"/>
        <pt x="188" y="231" on="0"/>
        <pt x="243" y="248" on="0"/>
        <pt x="289" y="259" on="0"/>
        <pt x="304" y="259" on="1"/>
        <pt x="322" y="249" on="0"/>
        <pt x="348" y="225" on="0"/>
        <pt x="366" y="192" on="0"/>
        <pt x="375" y="148" on="0"/>
      </contour>
    </TTGlyph>
    <TTGlyph name="copyright" xMin="79" yMin="-46" xMax="1295" yMax="1305">
      <contour>
        <pt x="1044" y="942" on="1"/>
        <pt x="1028" y="930" on="0"/>
        <pt x="980" y="893" on="0"/>
        <pt x="932" y="859" on="0"/>
        <pt x="889" y="835" on="0"/>
        <pt x="878" y="835" on="1"/>
        <pt x="865" y="835" on="0"/>
        <pt x="835" y="870" on="0"/>
        <pt x="798" y="913" on="0"/>
        <pt x="753" y="948" on="0"/>
        <pt x="725" y="948" on="1"/>
        <pt x="689" y="948" on="0"/>
        <pt x="627" y="912" on="0"/>
        <pt x="577" y="852" on="0"/>
        <pt x="538" y="772" on="0"/>
        <pt x="512" y="686" on="0"/>
        <pt x="499" y="598" on="0"/>
        <pt x="499" y="559" on="1"/>
        <pt x="499" y="503" on="0"/>
        <pt x="530" y="425" on="0"/>
        <pt x="582" y="375" on="0"/>
        <pt x="650" y="353" on="0"/>
        <pt x="687" y="353" on="1"/>
        <pt x="732" y="353" on="0"/>
        <pt x="854" y="413" on="0"/>
        <pt x="941" y="489" on="1"/>
        <pt x="945" y="484" on="0"/>
        <pt x="957" y="467" on="0"/>
        <pt x="971" y="450" on="0"/>
        <pt x="982" y="435" on="0"/>
        <pt x="984" y="431" on="1"/>
        <pt x="918" y="371" on="0"/>
        <pt x="812" y="291" on="0"/>
        <pt x="720" y="243" on="0"/>
        <pt x="637" y="223" on="0"/>
        <pt x="595" y="223" on="1"/>
        <pt x="553" y="223" on="0"/>
        <pt x="455" y="252" on="0"/>
        <pt x="370" y="321" on="0"/>
        <pt x="314" y="438" on="0"/>
        <pt x="314" y="526" on="1"/>
        <pt x="314" y="575" on="0"/>
        <pt x="333" y="684" on="0"/>
        <pt x="383" y="793" on="0"/>
        <pt x="466" y="901" on="0"/>
        <pt x="531" y="950" on="1"/>
        <pt x="554" y="968" on="0"/>
        <pt x="616" y="1002" on="0"/>
        <pt x="688" y="1028" on="0"/>
        <pt x="768" y="1044" on="0"/>
        <pt x="809" y="1044" on="1"/>
        <pt x="855" y="1044" on="0"/>
        <pt x="928" y="1016" on="0"/>
        <pt x="985" y="980" on="0"/>
        <pt x="1027" y="946" on="0"/>
      </contour>
      <contour>
        <pt x="1185" y="719" on="1"/>
        <pt x="1185" y="820" on="0"/>
        <pt x="1125" y="992" on="0"/>
        <pt x="1015" y="1118" on="0"/>
        <pt x="861" y="1189" on="0"/>
        <pt x="767" y="1189" on="1"/>
        <pt x="685" y="1189" on="0"/>
        <pt x="536" y="1138" on="0"/>
        <pt x="407" y="1049" on="0"/>
        <pt x="302" y="926" on="0"/>
        <pt x="228" y="783" on="0"/>
        <pt x="187" y="625" on="0"/>
        <pt x="187" y="545" on="1"/>
        <pt x="187" y="443" on="0"/>
        <pt x="247" y="270" on="0"/>
        <pt x="358" y="142" on="0"/>
        <pt x="513" y="70" on="0"/>
        <pt x="608" y="70" on="1"/>
        <pt x="690" y="70" on="0"/>
        <pt x="840" y="121" on="0"/>
        <pt x="968" y="211" on="0"/>
        <pt x="1072" y="335" on="0"/>
        <pt x="1145" y="479" on="0"/>
        <pt x="1185" y="638" on="0"/>
      </contour>
      <contour>
        <pt x="1295" y="752" on="1"/>
        <pt x="1295" y="657" on="0"/>
        <pt x="1250" y="464" on="0"/>
        <pt x="1165" y="287" on="0"/>
        <pt x="1043" y="133" on="0"/>
        <pt x="887" y="19" on="0"/>
        <pt x="700" y="-46" on="0"/>
        <pt x="593" y="-46" on="1"/>
        <pt x="473" y="-46" on="0"/>
        <pt x="282" y="45" on="0"/>
        <pt x="150" y="201" on="0"/>
        <pt x="79" y="409" on="0"/>
        <pt x="79" y="526" on="1"/>
        <pt x="79" y="619" on="0"/>
        <pt x="126" y="807" on="0"/>
        <pt x="213" y="980" on="0"/>
        <pt x="337" y="1130" on="0"/>
        <pt x="493" y="1241" on="0"/>
        <pt x="677" y="1305" on="0"/>
        <pt x="780" y="1305" on="1"/>
        <pt x="900" y="1305" on="0"/>
        <pt x="1090" y="1219" on="0"/>
        <pt x="1224" y="1069" on="0"/>
        <pt x="1295" y="867" on="0"/>
      </contour>
    </TTGlyph>
    <TTGlyph name="currency" xMin="49" yMin="183" xMax="891" yMax="1021">
      <contour>
        <pt x="503" y="820" on="1"/>
        <pt x="460" y="820" on="0"/>
        <pt x="382" y="784" on="0"/>
        <pt x="322" y="723" on="0"/>
        <pt x="282" y="644" on="0"/>
        <pt x="276" y="601" on="1"/>
        <pt x="271" y="562" on="0"/>
        <pt x="289" y="484" on="0"/>
        <pt x="332" y="423" on="0"/>
        <pt x="399" y="384" on="0"/>
        <pt x="443" y="384" on="1"/>
        <pt x="486" y="384" on="0"/>
        <pt x="563" y="420" on="0"/>
        <pt x="623" y="481" on="0"/>
        <pt x="662" y="560" on="0"/>
        <pt x="668" y="602" on="1"/>
        <pt x="674" y="642" on="0"/>
        <pt x="656" y="719" on="0"/>
        <pt x="613" y="780" on="0"/>
        <pt x="546" y="818" on="0"/>
      </contour>
      <contour>
        <pt x="714" y="183" on="1"/>
        <pt x="610" y="320" on="1"/>
        <pt x="570" y="291" on="0"/>
        <pt x="478" y="260" on="0"/>
        <pt x="427" y="260" on="1"/>
        <pt x="375" y="260" on="0"/>
        <pt x="289" y="293" on="0"/>
        <pt x="257" y="322" on="1"/>
        <pt x="112" y="183" on="1"/>
        <pt x="74" y="186" on="1"/>
        <pt x="68" y="203" on="0"/>
        <pt x="54" y="246" on="0"/>
        <pt x="49" y="266" on="1"/>
        <pt x="194" y="406" on="1"/>
        <pt x="174" y="449" on="0"/>
        <pt x="158" y="547" on="0"/>
        <pt x="165" y="599" on="1"/>
        <pt x="172" y="653" on="0"/>
        <pt x="216" y="753" on="0"/>
        <pt x="248" y="797" on="1"/>
        <pt x="140" y="939" on="1"/>
        <pt x="149" y="983" on="1"/>
        <pt x="166" y="993" on="0"/>
        <pt x="209" y="1012" on="0"/>
        <pt x="229" y="1021" on="1"/>
        <pt x="334" y="882" on="1"/>
        <pt x="376" y="912" on="0"/>
        <pt x="470" y="946" on="0"/>
        <pt x="521" y="946" on="1"/>
        <pt x="571" y="946" on="0"/>
        <pt x="654" y="911" on="0"/>
        <pt x="686" y="882" on="1"/>
        <pt x="829" y="1019" on="1"/>
        <pt x="868" y="1020" on="1"/>
        <pt x="891" y="935" on="1"/>
        <pt x="748" y="796" on="1"/>
        <pt x="770" y="751" on="0"/>
        <pt x="787" y="650" on="0"/>
        <pt x="780" y="599" on="1"/>
        <pt x="772" y="547" on="0"/>
        <pt x="730" y="447" on="0"/>
        <pt x="697" y="404" on="1"/>
        <pt x="804" y="265" on="1"/>
        <pt x="798" y="220" on="1"/>
      </contour>
    </TTGlyph>
    <TTGlyph name="d" xMin="38" yMin="-41" xMax="988" yMax="1520">
      <contour>
        <pt x="589" y="381" on="1"/>
        <pt x="598" y="447" on="0"/>
        <pt x="626" y="620" on="0"/>
        <pt x="641" y="716" on="1"/>
        <pt x="613" y="746" on="0"/>
        <pt x="549" y="794" on="0"/>
        <pt x="512" y="794" on="1"/>
        <pt x="470" y="794" on="0"/>
        <pt x="401" y="754" on="0"/>
        <pt x="346" y="689" on="0"/>
        <pt x="305" y="603" on="0"/>
        <pt x="278" y="511" on="0"/>
        <pt x="265" y="418" on="0"/>
        <pt x="265" y="379" on="1"/>
        <pt x="265" y="267" on="0"/>
        <pt x="327" y="156" on="0"/>
        <pt x="369" y="156" on="1"/>
        <pt x="383" y="156" on="0"/>
        <pt x="425" y="180" on="0"/>
        <pt x="481" y="233" on="0"/>
        <pt x="549" y="319" on="0"/>
      </contour>
      <contour>
        <pt x="988" y="104" on="1"/>
        <pt x="946" y="75" on="0"/>
        <pt x="863" y="23" on="0"/>
        <pt x="791" y="-17" on="0"/>
        <pt x="731" y="-41" on="0"/>
        <pt x="711" y="-41" on="1"/>
        <pt x="694" y="-41" on="0"/>
        <pt x="652" y="-17" on="0"/>
        <pt x="613" y="40" on="0"/>
        <pt x="584" y="133" on="0"/>
        <pt x="579" y="201" on="1"/>
        <pt x="498" y="84" on="0"/>
        <pt x="338" y="-41" on="0"/>
        <pt x="269" y="-41" on="1"/>
        <pt x="230" y="-41" on="0"/>
        <pt x="148" y="0" on="0"/>
        <pt x="81" y="87" on="0"/>
        <pt x="38" y="222" on="0"/>
        <pt x="38" y="315" on="1"/>
        <pt x="38" y="394" on="0"/>
        <pt x="77" y="543" on="0"/>
        <pt x="152" y="678" on="0"/>
        <pt x="261" y="795" on="0"/>
        <pt x="332" y="842" on="1"/>
        <pt x="360" y="860" on="0"/>
        <pt x="428" y="893" on="0"/>
        <pt x="502" y="920" on="0"/>
        <pt x="579" y="936" on="0"/>
        <pt x="615" y="936" on="1"/>
        <pt x="628" y="936" on="0"/>
        <pt x="657" y="925" on="0"/>
        <pt x="673" y="916" on="1"/>
        <pt x="682" y="975" on="0"/>
        <pt x="698" y="1086" on="0"/>
        <pt x="710" y="1182" on="0"/>
        <pt x="717" y="1260" on="0"/>
        <pt x="717" y="1286" on="1"/>
        <pt x="717" y="1309" on="0"/>
        <pt x="710" y="1336" on="0"/>
        <pt x="697" y="1349" on="0"/>
        <pt x="681" y="1353" on="0"/>
        <pt x="672" y="1353" on="1"/>
        <pt x="663" y="1353" on="0"/>
        <pt x="630" y="1344" on="0"/>
        <pt x="613" y="1339" on="1"/>
        <pt x="594" y="1333" on="0"/>
        <pt x="572" y="1326" on="1"/>
        <pt x="556" y="1395" on="1"/>
        <pt x="607" y="1419" on="0"/>
        <pt x="714" y="1465" on="0"/>
        <pt x="810" y="1499" on="0"/>
        <pt x="885" y="1520" on="0"/>
        <pt x="903" y="1520" on="1"/>
        <pt x="937" y="1520" on="0"/>
        <pt x="973" y="1484" on="0"/>
        <pt x="973" y="1438" on="1"/>
        <pt x="973" y="1399" on="0"/>
        <pt x="959" y="1276" on="0"/>
        <pt x="936" y="1125" on="0"/>
        <pt x="907" y="953" on="0"/>
        <pt x="876" y="779" on="0"/>
        <pt x="847" y="610" on="0"/>
        <pt x="824" y="463" on="0"/>
        <pt x="810" y="348" on="0"/>
        <pt x="810" y="314" on="1"/>
        <pt x="810" y="229" on="0"/>
        <pt x="840" y="146" on="0"/>
        <pt x="863" y="146" on="1"/>
        <pt x="889" y="146" on="0"/>
        <pt x="936" y="157" on="0"/>
        <pt x="971" y="172" on="1"/>
      </contour>
    </TTGlyph>
    <TTGlyph name="dagger" xMin="138" yMin="-40" xMax="971" yMax="1480">
      <contour>
        <pt x="971" y="1112" on="1"/>
        <pt x="962" y="1095" on="0"/>
        <pt x="925" y="1030" on="0"/>
        <pt x="881" y="958" on="0"/>
        <pt x="838" y="891" on="0"/>
        <pt x="824" y="872" on="1"/>
        <pt x="797" y="891" on="0"/>
        <pt x="745" y="920" on="0"/>
        <pt x="690" y="942" on="0"/>
        <pt x="631" y="956" on="0"/>
        <pt x="596" y="959" on="1"/>
        <pt x="591" y="891" on="0"/>
        <pt x="604" y="747" on="0"/>
        <pt x="624" y="680" on="1"/>
        <pt x="576" y="569" on="0"/>
        <pt x="515" y="369" on="0"/>
        <pt x="501" y="273" on="1"/>
        <pt x="492" y="215" on="0"/>
        <pt x="496" y="98" on="0"/>
        <pt x="513" y="37" on="1"/>
        <pt x="504" y="30" on="0"/>
        <pt x="458" y="7" on="0"/>
        <pt x="405" y="-16" on="0"/>
        <pt x="356" y="-36" on="0"/>
        <pt x="345" y="-40" on="1"/>
        <pt x="316" y="-12" on="1"/>
        <pt x="331" y="22" on="0"/>
        <pt x="358" y="96" on="0"/>
        <pt x="381" y="171" on="0"/>
        <pt x="397" y="243" on="0"/>
        <pt x="401" y="273" on="1"/>
        <pt x="413" y="372" on="0"/>
        <pt x="407" y="570" on="0"/>
        <pt x="390" y="680" on="1"/>
        <pt x="428" y="747" on="0"/>
        <pt x="479" y="891" on="0"/>
        <pt x="493" y="959" on="1"/>
        <pt x="408" y="951" on="0"/>
        <pt x="245" y="909" on="0"/>
        <pt x="160" y="872" on="1"/>
        <pt x="138" y="923" on="1"/>
        <pt x="147" y="940" on="0"/>
        <pt x="185" y="1004" on="0"/>
        <pt x="229" y="1076" on="0"/>
        <pt x="272" y="1143" on="0"/>
        <pt x="286" y="1162" on="1"/>
        <pt x="313" y="1144" on="0"/>
        <pt x="364" y="1115" on="0"/>
        <pt x="417" y="1094" on="0"/>
        <pt x="475" y="1080" on="0"/>
        <pt x="509" y="1077" on="1"/>
        <pt x="515" y="1157" on="0"/>
        <pt x="494" y="1290" on="0"/>
        <pt x="468" y="1361" on="1"/>
        <pt x="487" y="1373" on="0"/>
        <pt x="553" y="1408" on="0"/>
        <pt x="622" y="1443" on="0"/>
        <pt x="685" y="1473" on="0"/>
        <pt x="701" y="1480" on="1"/>
        <pt x="741" y="1448" on="1"/>
        <pt x="696" y="1357" on="0"/>
        <pt x="631" y="1169" on="0"/>
        <pt x="613" y="1077" on="1"/>
        <pt x="698" y="1084" on="0"/>
        <pt x="863" y="1125" on="0"/>
        <pt x="949" y="1162" on="1"/>
      </contour>
    </TTGlyph>
    <TTGlyph name="daggerdbl" xMin="57" yMin="-40" xMax="971" yMax="1480">
      <contour>
        <pt x="971" y="1112" on="1"/>
        <pt x="962" y="1095" on="0"/>
        <pt x="925" y="1030" on="0"/>
        <pt x="881" y="958" on="0"/>
        <pt x="838" y="891" on="0"/>
        <pt x="824" y="872" on="1"/>
        <pt x="770" y="908" on="0"/>
        <pt x="667" y="950" on="0"/>
        <pt x="598" y="958" on="1"/>
        <pt x="595" y="898" on="0"/>
        <pt x="611" y="786" on="0"/>
        <pt x="631" y="720" on="1"/>
        <pt x="596" y="657" on="0"/>
        <pt x="548" y="539" on="0"/>
        <pt x="534" y="482" on="1"/>
        <pt x="702" y="495" on="0"/>
        <pt x="868" y="568" on="1"/>
        <pt x="890" y="518" on="1"/>
        <pt x="881" y="501" on="0"/>
        <pt x="844" y="436" on="0"/>
        <pt x="800" y="364" on="0"/>
        <pt x="757" y="297" on="0"/>
        <pt x="743" y="278" on="1"/>
        <pt x="716" y="294" on="0"/>
        <pt x="664" y="322" on="0"/>
        <pt x="610" y="344" on="0"/>
        <pt x="550" y="360" on="0"/>
        <pt x="515" y="364" on="1"/>
        <pt x="511" y="320" on="0"/>
        <pt x="513" y="248" on="0"/>
        <pt x="523" y="182" on="0"/>
        <pt x="542" y="117" on="0"/>
        <pt x="556" y="80" on="1"/>
        <pt x="537" y="68" on="0"/>
        <pt x="472" y="32" on="0"/>
        <pt x="403" y="-3" on="0"/>
        <pt x="341" y="-33" on="0"/>
        <pt x="325" y="-40" on="1"/>
        <pt x="284" y="-8" on="1"/>
        <pt x="332" y="86" on="0"/>
        <pt x="397" y="266" on="0"/>
        <pt x="414" y="364" on="1"/>
        <pt x="329" y="356" on="0"/>
        <pt x="164" y="313" on="0"/>
        <pt x="79" y="278" on="1"/>
        <pt x="57" y="329" on="1"/>
        <pt x="66" y="346" on="0"/>
        <pt x="103" y="410" on="0"/>
        <pt x="147" y="482" on="0"/>
        <pt x="190" y="549" on="0"/>
        <pt x="204" y="568" on="1"/>
        <pt x="257" y="531" on="0"/>
        <pt x="360" y="489" on="0"/>
        <pt x="428" y="482" on="1"/>
        <pt x="430" y="539" on="0"/>
        <pt x="415" y="657" on="0"/>
        <pt x="397" y="720" on="1"/>
        <pt x="434" y="786" on="0"/>
        <pt x="481" y="899" on="0"/>
        <pt x="494" y="959" on="1"/>
        <pt x="409" y="951" on="0"/>
        <pt x="245" y="907" on="0"/>
        <pt x="160" y="872" on="1"/>
        <pt x="138" y="923" on="1"/>
        <pt x="147" y="940" on="0"/>
        <pt x="185" y="1004" on="0"/>
        <pt x="229" y="1076" on="0"/>
        <pt x="272" y="1143" on="0"/>
        <pt x="286" y="1162" on="1"/>
        <pt x="340" y="1124" on="0"/>
        <pt x="443" y="1083" on="0"/>
        <pt x="511" y="1077" on="1"/>
        <pt x="514" y="1119" on="0"/>
        <pt x="511" y="1192" on="0"/>
        <pt x="500" y="1259" on="0"/>
        <pt x="482" y="1325" on="0"/>
        <pt x="470" y="1361" on="1"/>
        <pt x="489" y="1373" on="0"/>
        <pt x="555" y="1408" on="0"/>
        <pt x="624" y="1443" on="0"/>
        <pt x="686" y="1473" on="0"/>
        <pt x="702" y="1480" on="1"/>
        <pt x="743" y="1448" on="1"/>
        <pt x="700" y="1356" on="0"/>
        <pt x="634" y="1173" on="0"/>
        <pt x="614" y="1077" on="1"/>
        <pt x="699" y="1084" on="0"/>
        <pt x="864" y="1125" on="0"/>
        <pt x="949" y="1162" on="1"/>
      </contour>
    </TTGlyph>
    <TTGlyph name="dcroat" xMin="38" yMin="-41" xMax="1107" yMax="1520">
      <contour>
        <pt x="589" y="381" on="1"/>
        <pt x="598" y="447" on="0"/>
        <pt x="626" y="620" on="0"/>
        <pt x="641" y="716" on="1"/>
        <pt x="613" y="746" on="0"/>
        <pt x="549" y="794" on="0"/>
        <pt x="512" y="794" on="1"/>
        <pt x="470" y="794" on="0"/>
        <pt x="401" y="754" on="0"/>
        <pt x="346" y="689" on="0"/>
        <pt x="305" y="603" on="0"/>
        <pt x="278" y="511" on="0"/>
        <pt x="265" y="418" on="0"/>
        <pt x="265" y="379" on="1"/>
        <pt x="265" y="267" on="0"/>
        <pt x="327" y="156" on="0"/>
        <pt x="369" y="156" on="1"/>
        <pt x="383" y="156" on="0"/>
        <pt x="425" y="180" on="0"/>
        <pt x="481" y="233" on="0"/>
        <pt x="549" y="319" on="0"/>
      </contour>
      <contour>
        <pt x="988" y="104" on="1"/>
        <pt x="946" y="75" on="0"/>
        <pt x="863" y="23" on="0"/>
        <pt x="791" y="-17" on="0"/>
        <pt x="731" y="-41" on="0"/>
        <pt x="711" y="-41" on="1"/>
        <pt x="694" y="-41" on="0"/>
        <pt x="652" y="-17" on="0"/>
        <pt x="613" y="40" on="0"/>
        <pt x="584" y="133" on="0"/>
        <pt x="579" y="201" on="1"/>
        <pt x="498" y="84" on="0"/>
        <pt x="338" y="-41" on="0"/>
        <pt x="269" y="-41" on="1"/>
        <pt x="230" y="-41" on="0"/>
        <pt x="148" y="0" on="0"/>
        <pt x="81" y="87" on="0"/>
        <pt x="38" y="222" on="0"/>
        <pt x="38" y="315" on="1"/>
        <pt x="38" y="394" on="0"/>
        <pt x="77" y="543" on="0"/>
        <pt x="152" y="678" on="0"/>
        <pt x="261" y="795" on="0"/>
        <pt x="332" y="842" on="1"/>
        <pt x="360" y="860" on="0"/>
        <pt x="428" y="893" on="0"/>
        <pt x="502" y="920" on="0"/>
        <pt x="579" y="936" on="0"/>
        <pt x="615" y="936" on="1"/>
        <pt x="628" y="936" on="0"/>
        <pt x="657" y="925" on="0"/>
        <pt x="673" y="916" on="1"/>
        <pt x="680" y="960" on="0"/>
        <pt x="692" y="1043" on="0"/>
        <pt x="697" y="1081" on="1"/>
        <pt x="429" y="1081" on="1"/>
        <pt x="402" y="1111" on="1"/>
        <pt x="405" y="1119" on="0"/>
        <pt x="418" y="1143" on="0"/>
        <pt x="432" y="1169" on="0"/>
        <pt x="445" y="1193" on="0"/>
        <pt x="450" y="1201" on="1"/>
        <pt x="711" y="1201" on="1"/>
        <pt x="717" y="1252" on="0"/>
        <pt x="717" y="1286" on="1"/>
        <pt x="717" y="1309" on="0"/>
        <pt x="710" y="1336" on="0"/>
        <pt x="697" y="1349" on="0"/>
        <pt x="681" y="1353" on="0"/>
        <pt x="672" y="1353" on="1"/>
        <pt x="663" y="1353" on="0"/>
        <pt x="630" y="1344" on="0"/>
        <pt x="613" y="1339" on="1"/>
        <pt x="594" y="1333" on="0"/>
        <pt x="572" y="1326" on="1"/>
        <pt x="556" y="1395" on="1"/>
        <pt x="607" y="1419" on="0"/>
        <pt x="714" y="1465" on="0"/>
        <pt x="810" y="1499" on="0"/>
        <pt x="885" y="1520" on="0"/>
        <pt x="903" y="1520" on="1"/>
        <pt x="937" y="1520" on="0"/>
        <pt x="973" y="1484" on="0"/>
        <pt x="973" y="1438" on="1"/>
        <pt x="973" y="1399" on="0"/>
        <pt x="958" y="1276" on="0"/>
        <pt x="947" y="1201" on="1"/>
        <pt x="1081" y="1201" on="1"/>
        <pt x="1107" y="1169" on="1"/>
        <pt x="1059" y="1081" on="1"/>
        <pt x="928" y="1081" on="1"/>
        <pt x="916" y="1008" on="0"/>
        <pt x="889" y="854" on="0"/>
        <pt x="863" y="704" on="0"/>
        <pt x="839" y="562" on="0"/>
        <pt x="821" y="440" on="0"/>
        <pt x="810" y="343" on="0"/>
        <pt x="810" y="314" on="1"/>
        <pt x="810" y="229" on="0"/>
        <pt x="840" y="146" on="0"/>
        <pt x="863" y="146" on="1"/>
        <pt x="889" y="146" on="0"/>
        <pt x="936" y="157" on="0"/>
        <pt x="971" y="172" on="1"/>
      </contour>
    </TTGlyph>
    <TTGlyph name="degree" xMin="186" yMin="737" xMax="667" yMax="1258">
      <contour>
        <pt x="407" y="874" on="1"/>
        <pt x="434" y="874" on="0"/>
        <pt x="477" y="901" on="0"/>
        <pt x="507" y="943" on="0"/>
        <pt x="524" y="995" on="0"/>
        <pt x="524" y="1021" on="1"/>
        <pt x="524" y="1039" on="0"/>
        <pt x="514" y="1075" on="0"/>
        <pt x="495" y="1103" on="0"/>
        <pt x="466" y="1120" on="0"/>
        <pt x="447" y="1120" on="1"/>
        <pt x="426" y="1120" on="0"/>
        <pt x="384" y="1097" on="0"/>
        <pt x="350" y="1058" on="0"/>
        <pt x="329" y="1004" on="0"/>
        <pt x="329" y="974" on="1"/>
        <pt x="329" y="927" on="0"/>
        <pt x="375" y="874" on="0"/>
      </contour>
      <contour>
        <pt x="667" y="1073" on="1"/>
        <pt x="667" y="1000" on="0"/>
        <pt x="606" y="877" on="0"/>
        <pt x="513" y="787" on="0"/>
        <pt x="403" y="737" on="0"/>
        <pt x="354" y="737" on="1"/>
        <pt x="309" y="737" on="0"/>
        <pt x="246" y="769" on="0"/>
        <pt x="205" y="820" on="0"/>
        <pt x="186" y="885" on="0"/>
        <pt x="186" y="918" on="1"/>
        <pt x="186" y="987" on="0"/>
        <pt x="245" y="1110" on="0"/>
        <pt x="336" y="1203" on="0"/>
        <pt x="446" y="1258" on="0"/>
        <pt x="498" y="1258" on="1"/>
        <pt x="538" y="1258" on="0"/>
        <pt x="601" y="1228" on="0"/>
        <pt x="645" y="1177" on="0"/>
        <pt x="667" y="1110" on="0"/>
      </contour>
    </TTGlyph>
    <TTGlyph name="dieresis" xMin="285" yMin="1084" xMax="925" yMax="1371">
      <contour>
        <pt x="538" y="1270" on="1"/>
        <pt x="538" y="1239" on="0"/>
        <pt x="516" y="1173" on="0"/>
        <pt x="475" y="1119" on="0"/>
        <pt x="415" y="1084" on="0"/>
        <pt x="378" y="1084" on="1"/>
        <pt x="330" y="1084" on="0"/>
        <pt x="285" y="1144" on="0"/>
        <pt x="285" y="1184" on="1"/>
        <pt x="285" y="1213" on="0"/>
        <pt x="307" y="1279" on="0"/>
        <pt x="348" y="1334" on="0"/>
        <pt x="406" y="1371" on="0"/>
        <pt x="443" y="1371" on="1"/>
        <pt x="467" y="1371" on="0"/>
        <pt x="503" y="1354" on="0"/>
        <pt x="526" y="1326" on="0"/>
        <pt x="538" y="1289" on="0"/>
      </contour>
      <contour>
        <pt x="925" y="1270" on="1"/>
        <pt x="925" y="1239" on="0"/>
        <pt x="903" y="1173" on="0"/>
        <pt x="862" y="1119" on="0"/>
        <pt x="802" y="1084" on="0"/>
        <pt x="765" y="1084" on="1"/>
        <pt x="718" y="1084" on="0"/>
        <pt x="672" y="1144" on="0"/>
        <pt x="672" y="1184" on="1"/>
        <pt x="672" y="1213" on="0"/>
        <pt x="694" y="1279" on="0"/>
        <pt x="735" y="1334" on="0"/>
        <pt x="793" y="1371" on="0"/>
        <pt x="830" y="1371" on="1"/>
        <pt x="854" y="1371" on="0"/>
        <pt x="890" y="1354" on="0"/>
        <pt x="913" y="1326" on="0"/>
        <pt x="925" y="1289" on="0"/>
      </contour>
    </TTGlyph>
</ttFont>
